<mxfile host="app.diagrams.net" agent="Mozilla/5.0 (Windows NT 10.0; Win64; x64) AppleWebKit/537.36 (KHTML, like Gecko) Chrome/138.0.0.0 Safari/537.36" version="28.0.6">
  <diagram name="PÃ¡gina-1" id="Lm5PMwqfKSdQqDlOC7tL">
    <mxGraphModel dx="1246" dy="676" grid="1" gridSize="10" guides="1" tooltips="1" connect="1" arrows="1" fold="1" page="1" pageScale="1" pageWidth="827" pageHeight="1169" math="0" shadow="0">
      <root>
        <mxCell id="0" />
        <mxCell id="1" parent="0" />
        <mxCell id="E9rDun7O-10vDkbBBoyJ-6" value="" style="rounded=1;whiteSpace=wrap;html=1;" vertex="1" parent="1">
          <mxGeometry x="46" y="440" width="454" height="320" as="geometry" />
        </mxCell>
        <mxCell id="E9rDun7O-10vDkbBBoyJ-10" value="" style="rounded=1;whiteSpace=wrap;html=1;" vertex="1" parent="1">
          <mxGeometry x="210" y="450" width="230" height="170" as="geometry" />
        </mxCell>
        <mxCell id="E9rDun7O-10vDkbBBoyJ-39" style="edgeStyle=orthogonalEdgeStyle;rounded=0;orthogonalLoop=1;jettySize=auto;html=1;" edge="1" parent="1" source="E9rDun7O-10vDkbBBoyJ-5" target="E9rDun7O-10vDkbBBoyJ-15">
          <mxGeometry relative="1" as="geometry">
            <Array as="points">
              <mxPoint x="140" y="420" />
              <mxPoint x="480" y="420" />
            </Array>
          </mxGeometry>
        </mxCell>
        <mxCell id="E9rDun7O-10vDkbBBoyJ-5" value="" style="shape=image;verticalLabelPosition=bottom;labelBackgroundColor=default;verticalAlign=top;aspect=fixed;imageAspect=0;image=data:image/png,iVBORw0KGgoAAAANSUhEUgAAAOEAAADhCAIAAACx0UUtAAAPnElEQVR4Ae3d32sTSxsH8PPPFF56ldslFEKxBEosoaWllF6oUM6dgiAoeKNX6p3HC6EXInphLzRpxVPE9hwKHigicmoFecVSSrNptZaSaDWt/bHvW0Ye1802md3M7D6T/R4OMtluJrPPfLozfbI7+5uD/xAB3hH4jXfz0DpEwIFRIOAeARjl3kNoH4zCAPcIwCj3HkL7YBQGuEcARrn3ENoHozDAPQLhje7UDrkfHNrXFhEIb3R5aXdseG15abct4oCD4BuB8EZXV773WqVeq3Tjyqdq5YDvIaJlhkegJaP5jD3aVx7K2v3ddmGiango0HymEVBgdLSvPJIr93fbpwfWXr34xvRA0SxjI6DG6GhfWUjNpUuXzn1cL+8ZGxA0nF0EVBoVUoeydi5dunN7ax9Q2XW3kQ1Sb1RIHeyxB3vsudltI6OCRnOKgC6jYujPZ+yzZ9aRn+LU4+a1RaNRmqQiP2WeC04t1m6UJqn5DPJTnHrenLZEZJTyU6N9ZeSnzOHBoqXRGaWhH/kpFj1vTiOiNkpDf6+F/JQ5TGJtaTxGhVSRn5qZ/hJrBPDh3CMQp1F3furd2x3uoUL7YopAzEbdk1RcPxWTAe4fy8IoTVKRn+LuJY72MTKK/FQcAAz4TF5G3UM/rp8ygE8kTeRolIb+Xqs0fgvXT0UCgfGH8DUqpA722ENZG/kpxoS0N427UeSntBNg/wEGGHVPUpGfYi9KfQONMUqTVOSn1CvgXaNhRpGf4s1JS+vMM+oe+pGf0oKCWaWmGqWhX+SnsLAPM1cqm2O2USEV+SmVIvjV1Q5GKT81NryG66f4GWu1RW1i1D1JRX6qVRTM3t9WRt2T1Il7FWahRnNCRqANjQqp/d1H66Xh/r6QLji9rW2NiknqidTq4kKNU8DRlsARaGejo33lfMaG0cAomL0BRpl1CJpTFwEYrQsJNjCLQBKNPrhbwV/9mhwWi+8vX55XW3lCjfZaJaw6rVbS69cbAwNPOzoewujRgtHy//v+zfTgbmWwxx7JlbGqjxKmO7XDy5fnOzsfpdNTljUJowGAHvd3vTBKCX+sOt2K1Pv333Z2PrKsyUzmcSbzGEaDAZUxKqSKq1Kw6nQgrPPza9nsn6lUQeiE0cA6Bb4GY71nwjCSO0qmnj2zjqtSmkpdWamOjf3d2fmoq2vKDRTn0TBM5Y0KsmKSiqtSjmO6v+dcu/ZSTD09OnEeDQNUfqz3nFOHsjbumqpnWiy+t6xJmnrCaEiUHm1Bz6P0dvFUNFyVIqS+fr1x8uR0KlWoH9w9UvE3U2C4oY26h/4k3zW1Uzu8cOEf36mnRyfG+sA6BbIWjYpKhrJ2Mled9uSVfFF6NuI8GliqEqNCaqLyU755JQ9H35cwGqdRumuqvfNTDfJKvig9G2E0ZqPuSWr75ad2aoeN80oejr4vYZSFUZqktlN+Siav5IvSsxFGGRltm1V9KK/k0RbuJYzyMuoe+k3MT1UrB4HySjJqYZSjUZJq1qo+4+NvOjoeNv7SSAalZx8Y5WtUSDViVZ/5+bVM5rHneiUPtdAvYZS7UcpP8VzVZ2WleurUX/JfGoWQCqMGGKWhP5cu8clPKckryZCFUWOMCqni+qnY7+8rFt+nUgXlU09fsjBqmNHY81Nq80q+KD0bYdQ8o+6hP8r8lI68koej70sYNdUoDf259NFT0bSuOr2/54yPv3HfB+eLSdNGGDXbqJCqNT+lNa8kwxpG28GopvzUykp1ePiZ1rySkUZ7rZI4N7D9V+H1o8qPUdX9fU3vg5OxpWofXufRauVgbHgtnzla8EN5/6mqkLNRcYxDWTuXLhUmqvX3uMlsiTKvJOOYl1ERwZnpL4M99mDP0aLJDP/nb1QErb/bDrr+lFhfSdNXmjIcfffhaNRxnJ3a4fitrV6rNJRlJ9UUo2KSKrn+VFx5JV+Uno1MjYoT6np579K5j7l0idXQb5BR99B/5/bW/p7/UB9jXsnD0fcla6Mioq9efBvtK/d3c5mkGmdUSBXTp3qkw8PPuA3uHqkGGBVhLUxU8xmbw9Dva3Ti3tHajgxnz+4m5TN2vdGBgadNV2HwoIn4pTFGHcepVg5uXPnUa8U89JtrtL8bRn/8koZfx7n+t7x+y7u3O2fPrMeYn4JRnEfrWfpsmZvd7u+OJz8FozDqI9J30/6ec+d2DPkpGIVRX5DHbow+PwWjMHosxwY/ePXi2+mBtWjyUzAKow0oNvlRNPkpGIXRJhAb/ziC/BSMwmhjhFI/1ZqfglEYlVIos9PM9Bcd+SkYhVEZfrL7iPxULq3y+ikYhVFZf/L7qc1PwSiMytsLtqeq/BSMwmgweUH3bj0/BaMwGlRd4P1bzE/BKIwGNhfuDaHzUzAKo+HIhXzX3Ox20Pv7YBRGQ2oL/bag+SkYhdHQ2Fp6o3x+CkZhtCVqLb5ZJj8FozDaIjMFby9MVBt8NQWjMKoAWetVVCsHN69v+t7fB6Mw2jowZTUsL+3W398HozCqTJiqiuZmt4eyP+/vg1EYVUVLZT0iPyUWoYBRGFVpS21dmxv7Vy9udP1ndXGh5qnZiHVKsAYE9ZreNSDoY+IqLC7U3r3d8Xw6jOo7uZq0lo6HBauXMAqjrED6NAZGYdSHBatND+4asG4e5qNkps3no3Sc7sLM9BffhL97acXYyyYaTaenOjoejo+/cUe79XISjTqOI65KiXFBv6a/A8YZTaUKAwNPX7/eaB2lp4aEGhVR4LbqtBuuQUYta9KyJovF9x5bql4m2qgIYut3TbltqSobYTSdnursfPTHH/8et3q/EqYwehTGFu+aUuXSXQ9zo11dRzrHxv5eWQn5ZCl5vjD6M1a+V6W43URZ5mw0lSpks3/Oz6/9jJ3OEox6ozs3u53P/LwqJUqX7s/iadSyJjs7H92//9YbNZ2vk2i06aO5g9415balqszNqJh6Xrnyomn0lHNNotE7t7duXPnUNNbyd02pcumuh4/Rrq4pfXklGdBJNPrgbiWXLuUz9pPi56Yxkrlrym1LVZmJUcuaTKen9OWVmsbfcZwkGhXf14/kyvmMPTa8Vn/xXn3gos9PxW40mrxSfajrtyTXqDjhiYfIX724sbmxXx8d95YGd02pOne664nRKOWVmsbEHR995aQbFSzEQ+QbPEmWOmB5aff87x8i+BI1LqOpVOHkyemXL9fpkGMvwGiZzl6DPUeP4p2b3W7aKyFW9aFPkSxEb1TklSYm/tv08CPeAUZ/GhUPkc9n7PO/f1he2m3cE7rzU1EajTGv1DjI4qcw+otRcZITk9Sb1zdl8lNXL27k0uof3RuNUZFXGh5+FsFXmjIcffeBUR+jQqqYpErmp/6fH1D7VLQIjKZShXR6KrKvNH39yWyE0WON0tAfS35Kq1HLmhQXI2u9XknGn8w+MNrIqHvov3pxY7281zimO7XDm9c3lQz9moyKvNKFC/9UKweNj4XPT2G0uVH30B9ZfkqHUYZ5JZnfBBiVNSqkDvbYQ1lbMj81kisP9tjijUH/VWvUsiZTqUK8X2nKcPTdB0aDGaVJ6tkz603zU47j3Lm9JVb1icuoyCtdu/ayaY7C1weHjTAa2KjQNpIr91qlm9c3m07sxKo+QSeprZ9HxdTz1Km/OOeVZH4HYDSkUSFVPj+1uFAbG16T/xK1RaOpVCGTecw/rwSj/hFQu07JSK7c322fHpC6fupJ8XODVafd84HQRimv5H/wBm7FebSl8yipEl9NXTr3UVV+KoRRE/NKMr8yMKrGqHvol8lPra58b3z9VFCjIq+kYwkGGUZa94FRlUaFVPGgM5n81Pzzr8flp+SN6l6CQas/mcphVL3RoPkpce/KUPaXTKqM0TbIK8GofwTU/s1EU9L6gshP3bjySTI/5V4prbFRulTe9LySfw/9uhXnUS3nUbfXoaydz9iFiebrebx7u0P5qeOMptNHd2lGuQTDr2BieAWj2o2KoV/kp169+Na0k2emv+Qzdq9Vqt/z5Mnpjo6HES/BUN+MiLfAaBRGxWk1aH6qnoLRX2nWH47kFhiNzqiQKr6aGr+1ZcS1m5KMtO4Go1EbFVIHe+z+bntm+ovW3m2PymE0HqPu/FT903naw5aqo4DR2IzSJLXXKsnkp1R1uXH1wGjMRmmSms/YE/cqxgGKoMEwysIo5adG+8rzz79G0PEGfQSMcjFKQ79YhGJ15btBjLQ2FUZ5GaWh/0RqVWvHG1Q5jHI0Otp3dN20QYy0NhVGYVQrMAWVwyiMKmCktQoYhVGtwBRUDqMwqoCR1ipgFEa1AlNQOYzCqAJGWquAURjVCkxB5TAKowoYaa0CRmFUKzAFlcMojCpgpLUKGIVRrcAUVA6jMKqAkdYqYBRGtQJTUDmMwqgCRlqrgFEY1QpMQeUwCqMKGGmtAkZhVCswBZXDKIwqYKS1ChiFUa3AFFQOozCqgJHWKmAURrUCU1A5jMKoAkZaq4BRGNUKTEHlMAqjChhprQJGYVQrMAWVwyiMKmCktQoYhVGtwBRUDqMwqoCR1ipgFEa1AlNQeRKNPrhbGez55cGHYkVFVv9i3TzSnUSjiwu1454ky4cpjCbaqOM4+3vOndtbuXTJ8yRZGCUZfApJPI9S9Dc39q9e3MilSyM5drNSnEepmxJtVERhcaFGT5LFeZRk8CnA6I++eFL8nM/YfIZ+nEfplwRGKRTOTu3w5vVNJkM/jFLHwCiF4kdheWn37Jn1fMaOd5IKo9QxMEqh+KUwN7sdb34KRqk/YJRC4S3s7zkP7lbiyk/BKPUHjFIo/Atx5adglPoDRikUjQrR56dglPoDRikUzQtR5qdglPoDRikUUoXI8lMwSv0BoxSKAIUI8lMwSv0BoxSKwIX551/15adglPoDRikUYQoiP9Vrqb9+CkapP2CUQhG+oCM/BaPUHzBKoWi1sLhQOz2wpupLVBil/oBRCoWawpPi5/5uBddPwSj1B4xSKJQVqpWD1q+fglHqDxilUCguLC/tnv/9Q+ihH0apP2CUQqGlEPr6KRil/oBRCoWuQrj8FIxSf8AohUJvIWh+CkapP2CUQhFFQeSn+rubX+QPo9QfMEqhiK7wpPh5sKdJfgpGqT9glEIRaaHp9VMwSv0BoxSKGAqrK9+Py0/BKPUHjFIoYiv45qdglPoDRikUMRc89/fBKPUHjFIo4i+481MwSv0BoxQKLgWRnzqRWuXSoLjbAaNx98Axn1+YqB7zk8RthtHEdblxBwyjxnVZ4hoMo4nrcuMOGEaN67LENRhGE9flxh0wjBrXZYlrMIwmrsuNO2AYNa7LEtdgGE1clxt3wDBqXJclrsH/AxRYaa84GGSLAAAAAElFTkSuQmCC;imageBorder=default;" vertex="1" parent="1">
          <mxGeometry x="100" y="476" width="80" height="80" as="geometry" />
        </mxCell>
        <mxCell id="E9rDun7O-10vDkbBBoyJ-9" value="&lt;h1 style=&quot;margin-top: 0px;&quot;&gt;Maquina Local&lt;/h1&gt;&lt;p&gt;Despliegue de terraform&amp;nbsp; y Ansible sobre WLS uBUNTU&lt;/p&gt;" style="text;html=1;whiteSpace=wrap;overflow=hidden;rounded=0;" vertex="1" parent="1">
          <mxGeometry x="180" y="650" width="180" height="120" as="geometry" />
        </mxCell>
        <mxCell id="E9rDun7O-10vDkbBBoyJ-11" value="" style="shape=image;verticalLabelPosition=bottom;labelBackgroundColor=default;verticalAlign=top;aspect=fixed;imageAspect=0;image=data:image/png,iVBORw0KGgoAAAANSUhEUgAAA+gAAAJYCAIAAAB+fFtyAAAgAElEQVR4AezdD0wU6f3H8dllvXVdwXWvtJQLNcQSUntUSQhNiZXGWmvjaakhxtqSkNoS71rvQkvpWc6rNUETE6qlXshP/Wk52AuxxsRe0JQYY4gxodafPTgOKNFIiESNEgkhhADLr8tw47p/ZmdmZ/88u29zuZudnZ35Pq9nOD87PPOMtMAfBBBAAAEEEEAAAQQQSHoBKekrpEAEEEAAAQQQQAABBBBYILhzEiCAAAIIIIAAAgggIIAAwV2ATqJEBBBAAAEEEEAAAQQI7pwDCCCAAAIIIIAAAggIIEBwF6CTKBEBBBBAAAEEEEAAAYI75wACCCCAAAIIIIAAAgIIENwF6CRKRAABBBBAAAEEEECA4M45gAACCCCAAAIIIICAAAIEdwE6iRIRQAABBBBAAAEEECC4cw4ggAACCCCAAAIIICCAAMFdgE6iRAQQQAABBBBAAAEECO6cAwgggAACCCCAAAIICCBAcBegkygRAQQQQAABBBBAAAGCO+cAAggggAACCCCAAAICCBDcBegkSkQAAQQQQAABBBBAgODOOYAAAggggAACCCCAgAACBHcBOokSEUAAAQQQQAABBBAguHMOIIAAAggggAACCCAggADBXYBOokQEEEAAAQQQQAABBAjunAMIIIAAAggggAACCAggQHAXoJMoEQEEEEAAAQQQQAABgjvnAAIIIIAAAggggAACAggQ3AXoJEpEAAEEEEAAAQQQQIDgzjmAAAIIIIAAAggggIAAAgR3ATqJEhFAAAEEEEAAAQQQILhzDiCAAAIIIIAAAgggIIAAwV2ATqJEBBBAAAEEEEAAAQQI7pwDCCCAAAIIIIAAAggIIEBwF6CTKBEBBBBAAAEEEEAAAYI75wACCCCAAAIIIIAAAgIIENwF6CRKRAABBBBAAAEEEECA4M45gAACCCCAAAIIIICAAAIEdwE6iRIRQAABBBBAAAEEECC4cw4ggAACCCCAAAIIICCAAMFdgE6iRAQQQAABBBBAAAEECO6cAwgggAACCCCAAAIICCBAcBegkygRAQQQQAABBBBAAAGCO+cAAggggAACCCCAAAICCBDcBegkSkQAAQQQQAABBBBAgODOOYAAAggggAACCCCAgAACBHcBOokSEUAAAQQQQAABBBAguHMOIIAAAggggAACCCAggADBXYBOokQEEEAAAQQQQAABBAjunAMIIIAAAggggAACCAggQHAXoJMoEQEEEEAAAQQQQAABgjvnAAIIIIAAAggggAACAggQ3AXoJEpEAAEEEEAAAQQQQIDgzjmAAAIIIIAAAggggIAAAgR3ATqJEhFAAAEEEEAAAQQQILhzDiCAAAIIIIAAAgggIIAAwV2ATqJEBBBAAAEEEEAAAQQI7pwDCCCAAAIIIIAAAggIIEBwF6CTKBEBBBBAAAEEEEAAAYI75wACCCCAAAIIIIAAAgIIENwF6CRKRAABBBBAAAEEEECA4M45gAACCCCAAAIIIICAAAIEdwE6iRIRQAABBBBAAAEEECC4cw4ggAACCCCAAAIIICCAAMFdgE6iRAQQQAABBBBAAAEECO6cAwgggAACCCCAAAIICCBAcBegkygRAQQQQAABBBBAAAGCO+cAAggggAACCCCAAAICCBDcBegkSkQAAQQQQAABBBBAgODOOYAAAggggAACCCCAgAACBHcBOokSEUAAAQQQQAABBBAguHMOIIAAAggggAACCCAggADBXYBOokQEEEAAAQQQQAABBAjunAMIIIAAAggggAACCAggQHAXoJMoEQEEEEAAAQQQQAABgjvnAAIIIIAAAggggAACAggQ3AXoJEpEAAEEEEAAAQQQQIDgzjmAAAIIIIAAAggggIAAAgR3ATqJEhFAAAEEEEAAAQQQILhzDiCAAAIIIIAAAgggIIAAwV2ATqJEBBBAAAEEEEAAAQQI7pwDCCCAAAIIIIAAAggIIEBwF6CTKBEBBBBAAAEEEEAAAYI75wACCCCAAAIIIIAAAgIIENwF6CRKRAABBBBAAAEEEECA4M45gAACCCCAAAIIIICAAAIEdwE6iRIRQAABBBBAAAEEECC4cw4ggAACCCCAAAIIICCAAMFdgE6iRAQQQAABBBBAAAEECO6cAwgggAACCCCAAAIICCBAcBegkygRAQQQQAABBBBAAAGCO+cAAggggAACCCCAAAICCBDcBegkSkQAAQQQQAABBBBAgODOOYAAAggggAACCCCAgAACBHcBOokSEUAAAQQQQAABBBAguHMOIIAAAggggAACCCAggADBXYBOokQEEEAAAQQQQAABBAjunAMIIIAAAggggAACCAggQHAXoJMoEQEEEEAAAQQQQAABgjvnAAIIIIAAAggggAACAggQ3AXoJEpEAAEEEEAAAQQQQIDgzjmAAAIIIIAAAggggIAAAgR3ATqJEhFAAAEEEEAAAQQQILhzDiCAAAIIIIAAAgggIIAAwV2ATqJEBBBAAAEEEEAAAQQI7pwDCCCAAAIIIIAAAggIIEBwF6CTKBEBBBBAAAEEEEAAAYI75wACCCCAAAIIIIAAAgIIENwF6CRKRAABBBBAAAEEEECA4M45gAACCCCAAAIIIICAAAIEdwE6iRIRQAABBBBAAAEEECC4cw4ggAACCCCAAAIIICCAAMFdgE6iRAQQQAABBBBAAAEECO6cAwgggAACCCCAAAIICCBAcBegkygRAQQQQAABBBBAAAGCO+cAAggggAACCCCAAAICCBDcBegkSkQAAQQQQAABBBBAgODOOYAAAggggAACCCCAgAACBHcBOokSEUAAAQQQQAABBBAguHMOIIAAAggggAACCCAggADBXYBOokQEEEAAAQQQQAABBAjunAMIIIAAAggggAACCAggQHAXoJMoEQEEEEAAAQQQQAABgjvnAAIIIIAAAggggAACAggQ3AXoJEpEAAEEEEAAAQQQQIDgzjmAAAIIIIAAAggggIAAAgR3ATqJEhFAAAEEEEAAAQQQILhzDiCAAAIIIIAAAgggIIAAwV2ATqJEBBBAAAEEEEAAAQQI7pwDCCCAAAIIIIAAAggIIEBwF6CTKBEBBBBAAAEEEEAAAYI75wACCCCAAAIIIIAAAgIIENwF6CRKRAABBBBAAAEEEECA4M45gAACCCCAAAIIIICAAAIEdwE6iRIRQAABBBBAAAEEECC4cw4ggAACCCCAAAIIICCAAMFdgE6iRAQQQAABBBBAAAEECO6cAwgggAACCCCAAAIICCBAcBegkygRAQQQQAABBBBAAAGCO+cAAggggAACCCCAAAICCBDcBegkSkQAAQQQQAABBBBAgODOOYAAAggggAACCCCAgAACBHcBOokSEUAAAQQQQAABBBAguHMOIIAAAggggAACCCAggADBXYBOokQEEEAAAQQQQAABBAjunAMIIIAAAggggAACCAggQHAXoJMoEQEEEEAAAQQQQAABgjvnAAIIIIAAAggggAACAggQ3AXoJEpEAAEEEEAAAQQQQIDgzjmAAAIIIIAAAggggIAAAgR3ATqJEhFAAAEEEEAAAQQQILhzDiCAAAIIIIAAAgggIIAAwV2ATqJEBBBAAAEEEEAAAQQI7pwDCCCAAAIIIIAAAggIIEBwF6CTKBEBBBBAAAEEEEAAAYI75wACCCCAAAIIIIAAAgIIENwF6CRKRAABBBBAAAEEEECA4M45gAACCCCAAAIIIICAAAIEdwE6iRIRQAABBBBAAAEEECC4cw4ggAACCCCAAAIIICCAAMFdgE6iRAQQQAABBBBAAAEECO6cAwgggAACCCCAAAIICCBAcBegkygRAQQQQAABBBBAAAGCO+cAAggggAACCCCAAAICCBDcBegkSkQAAQQQQAABBBBAgODOOYAAAggggAACCCCAgAACBHcBOokSEUAAAQQQQAABBBAguHMOIIAAAggggAACCCAggADBXYBOokQEEEAAAQQQQAABBAjunAMIIIAAAggggAACCAggQHAXoJMoEQEEEEAAAQQQQAABgjvnAAIIIIAAAggggAACAggQ3AXoJEpEAAEEEEAAAQQQQIDgzjmAAAIIIIAAAggggIAAAgR3ATqJEhFAAAEEEEAAAQQQILhzDiCAgPkC8/PzExMT9+/f7+npuXz5cktLy9GjR+vr62tqaqoX/1RVVVVXV+/bt6+2tvbIkSMtLS2XL1++ffv26Ojo9PS0+QWxRwQQQAABBMQXILiL34e0AIHkEJienr53797Vq1ePHz9eXV29cePGgoKC7Oxsp9Nps9kk1T82m83pdGZnZxcVFe3YsePgwYMXL14cHh6emZlJjsZRBQIIIIAAAokXILgnvg+oAAGhBSYnJ2/fvt3U1LRjx441a9bY7XbViK71TZvNtmbNml27dp0+fXpoaGh+fl5oJYpHAAEEEEAgegGCe/SG7AGBNBW4d+/eqVOntm7d6na7teZx/dtZrZY1a9bs37+/u7ubC/BpeqrRbAQQQACBRQGCOycCAgjoE/B6vb29vfX19QUFBRaL/iRu9BNut7u6uvrmzZtcfdfXYWyNAAIIIJAqAgT3VOlJ2oFAXAQePHjQ0NCwZs0ao/E72s/l5OS8++67o6OjcWkuB0EAAQQQQCCJBAjuSdQZlIJAMgtMT097PJ7169dHG73N+HxpaWlXVxeX3pP5hKE2BBBAAAHTBQjuppOyQwRSUGBkZGT//v1Op9OM1G3OPrKzs0+cOMHckSl4ttEkBBBAAIEwAgT3MDCsRgCBzwVu375dXl5uTtw2dS8Oh6Ourm5iYuLzSvkvAggggAACqSxAcE/l3qVtCEQv0NXVVVhYaGreNnNnNpvt7XfeIbtH39HsAQEEEEAg+QUI7snfR1SIQMIErl69msD7UDUGfDm7T05OJoyJAyOAAAIIIBAXAYJ7XJg5CAICCnR3d69du1Zjek7sZna7vbGxcXZ2VkBmSkYAAQQQQECrAMFdqxTbIZBWAgMDA8XFxYmN47qO7nK5Ojo60qqPaCwCCCCAQLoJENzTrcdpLwKRBcbHx3ft2qUrNyfDxgUFBb29vZGbxxYIIIAAAgiIKUBwF7PfqBqBmAnMz883NjbabLZkyOJ6a6isrORG1ZidGuwYAQQQQCDBAgT3BHcAh0cg2QRu3ryZk5OjNzEnyfZ2u/3s2bPJRko9CCCAAAIImCJAcDeFkZ0gkCICk5OTFRUVSZLCjZVRVFR0//79FOkPmoEAAggggICfAMHdD4NFBNJeoKOjw+FwGEvMSfIpi0U6dOjQ/Px82ncmAAgggAACqSZAcE+1HqU9CBgWGB8f37RpU5Lk72jKyM/PHxgYMOzABxFAAAEEEEhOAYJ7cvYLVSGQAIELFy7Y7fZoEnOSfNZikQ4fPuz1ehOAyCERQAABBBCImQDBPWa07BgBoQSmpqZ27tyZJMk7+jLWrVs3MjIiVA9QLAIIIIAAAhEECO4RgHgbgTQR6Onpcbvd0SfmJNmDzWZjepk0OXVpJgIIIJA+AgT39OlrWopAWAGv19vQ0JAkmdusMrZv3z41NRW2zbyBAAIIIICAaAIEd9F6jHoRiIHAs2fPSktLzUrMSbKf7Ozs27dvx0CLXSKAAAIIIJAYAYJ7Ytw5KgJJJdDd3Z2ZmZkkgdvEMo4ePZpUzhSDAAIIIIBANAIE92j0+CwCKSJw7Nix/87Eknp/tmzZMjk5mSKdRDMQQAABBNJegOCe9qcAAGkvMD09nUrzyfh//cjJyent7U37HgYAAQQQQCBFBAjuKdKRNAMBwwIjIyNr1671z7sps2y1WphbxvCJwQcRQAABBJJNgOCebD1CPQjEW+D69etOpzNlwnpAQ/bt2zc/Px9vU46HAAIIIIBADAQI7jFAZZcICCXQ0tKSkgPc5QRfUlIyPj4uVIdQLAIIIIAAAqEFCO6hXViLQPoIHDhwIOAqdSq9zM7OZph7+pzMtBQBBBBIbQGCe2r3L61DIILA9PT09u3bUympB7TFZrN1dHREUOBtBBBAAAEERBAguIvQS9SIQMwEnj59un79+oCwm2IvDx06FDM/dowAAggggED8BAju8bPmSAgkocDw8HBeXl6KJfWA5lRWVs7OziYhPiUhgAACCCCgS4DgrouLjRFINYGenh6XyxWQdFPsJfenptpZS3sQQACBdBUguKdrz9NuBBYFrl69arfbE5XUHQ5HQUFBeXn5zp07t2/fXlpamp2dbfoUN3l5effu3aPDEUAAAQQQEF2A4C56D1I/AlEJtLW1Wa2W+Af37Ozs6urqzs7O0dHRycnJubm5mZmZ8fHx3t7eEydOlJaW2mw2s6rKzMy8efNmVEx8GAEEEEAAgSQQILgnQSdQAgKJEzh16pSWfGy32x0Ohylh2mKRNm/efP369ZmZmXDtHhsba2xszMnJ0VJbxG1sNtvFixfDHYv1CCCAAAIIiCJAcBelp6gTgZgIHD16VCX4WixScXHx4cOHL126dO3atQsXLtTV1RUUFKh8RP0tm81WU1MzNjYWsTFer/fq1avr1q1T36HGd0+cOBHxiGyAAAIIIIBAkgsQ3JO8gygPgdgKHDx4MFz2dTqddXV1o6OjARUMDAzs27fPwMh4m8124MCBiYmJgB2qvOzu7i4sLAxXofb19fX1KkfhLQQQQAABBIQQILgL0U0UiUCsBOrq6kLGX4fD0dTUFG40y+Tk5KFDh/Rm9507dz59+lRvS65evZqdnR2ySO0rq6ur5+fn9R6a7RFAAAEEEEgqAYJ7UnUHxSAQb4H9+/cHx1+r1VJbWzs9Pa1SzdTUVG1trfZR7/n5+Xfv3lXZYbi35ufnjxw5ov1Awc2RJGnHjh3qzQl3dNYjgAACCCCQPAIE9+TpCypBIAECNTU1wUm3pKTk4cOHEat5/PhxeXl58MeD11itlmPHjnm93oj7DLnB2NhYaWlp8G61r9m4cePk5GTInbMSAQQQQAABUQQI7qL0FHUiEBOB4OBus9nOnDmj8WAff/xxZmZmxAC9bt26kZERjfsMudnZs2ejuei+fv36Z8+ehdwzKxFAAAEEEBBFgOAuSk9RJwIxEQgO7kVFRVpmfZGrmZqa2rlzp3pwt1ikQ4cOGb7cLh9obGysqKhI/UAq7xYUFATfZRsTUHaKAAIIIIBAzAQI7jGjZccIiCAQHNxra2t1hWyPx6N+l6rb7e7p6QmJMT093d3d3dzcfPr06bt376rcP+r1euvr61WiufpbeXl5w8PDIWtgJQIIIIAAAqIIENxF6SnqRCAmAgHB3W63X7p0SdeRRkdH1Wdb37RpU8gpIB89evTWW2+5XC45c+fl5TU1NancQtrV1eVwONQDerh3c3Jy+vr6dLWLjRFAAAEEEEg2AYJ7svUI9SAQV4Ha2lr/sJubmzswMBBQwcTExMcff+zxeEJetJ6bm6uurvbfScByyEv4z58/r6qqslhe2tbhcJw6dSrcdffR0VHDc7q73e47d+4EtIuXCCCAAAIIiCVAcBerv6gWAZMFAsaflJSUjI+P+x/j2bNn1dXVDofDarWsW7eus7PT/115+dSpUwERXMnjFot0+vTpgI94vd7m5uaQN5vm5eWFmzVyenp627Ztyp51LTidzlu3bgWUwUsEEEAAAQTEEiC4i9VfVIuAyQINDQ3+CXj79u3+D13yer3Hjh3zT9gFBQW9vb0BRagMYrHb7VevXg3YfnR0VOVO07q6upAX3b1eb8hZ5/3rD7fscDi6u7sDyuAlAggggAACYgkQ3MXqL6pFwGSBY8eO+YfdvXv3zs3NKcd4+PBhcMKuqanxD/cLCwt9fX3hHm6amZkZfKm7ra3N/8uAfwGSJK1fv/7JkydKDf4Lhw4dCthY48uQ3x/898wyAggggAACyS9AcE/+PqJCBGIo0Nzc7J99A4J7Z2dn8Iwxubm5/f39/jWNjIysWbPGfz/KssvlCphSZn5+ft++fcoGwQshs758uICvGcGfDbfGbreHHOTj3wqWEUAAAQQQSHIBgnuSdxDlIRBbgbNnz/oPTw8I7k1NTcFR2Gq1nD171r+ssbGxcLeNBgf3iYmJsrKy4N0qa2w2W1tbm//+leWQ9SgfVFkguCuGLCCAAAIIiCtAcBe376gcARMEOjo6/Eet7Ny5038YTF1dXcg0/NZbb/nP9T42NhZuRsjgy+daJoc5ceJEyLY1NjaGrCfiSoJ7SE9WIoAAAgiIJUBwF6u/qBYBkwU6Ozv9g3tZWZn/nOsBk0Uq+Tgg3w8MDOTn5yvv+i/YbLbW1tapqSml7uHh4by8PP9tgpebmpqU7f0Xwn2RCN5DwBqCuz8jywgggAACggoQ3AXtOMpGwByBGzduOJ1OJeauXbt2ZGRE2XW4m0G3bNkyPT09Nzf338edHjp0qKSkxGr1TclusUj2ZZJzueSwSxkZS5O0Z2dnb9269fjx43fv3p2ZmRkZGQmX8uUyLBYpYCiOXM/c3Nzu3buVUnUtENyVPmUBAQQQQEBcAYK7uH1H5QiYIHD79m23262EYKfTeePGDWW/Z8+elRO5soG8sGXLltu3bx84cCAnJ0eSJNdKqXzDsl/+yHH8Tef5g5lt72W1vZfV8pvM96tXVH1/+YaCjKwVvs9lZ2fv2bOntbU13IB4eefhZoB59uxZSUlJQCUaXxLclT5lAQEEEEBAXAGCu7h9R+UImCDQ398vh285AVsskv8wlVu3brlcruBwnJubK181/+pr1trdjkuNq/59bvWgxz0U9M9Au/v2mdV/O5JVu9vxen6G75L84p/gfSpr8vLyQj6iNeA7hrK9lgWCuwnnCrtAAAEEEEi0AME90T3A8RFIqMCDBw8CZnLctm2bMiR9fHw83Awwr2ZZfvkjx7UTrsF296DHPdDu/qwt9D8D7b5AP+hx32pZ/adfrfzW1232ZWphu6KiYnp6OlilqanJfwIctV0EvUdwD/ZkDQIIIICAcAIEd+G6jIIRMFPg8ePHAQNXXC7XzZs3lWM0Nzf7370qR+KSwoy297I+a3MPhs/rwTleTvD/PL36+JtO+ep7UMD2XY/v6OhQjq4sTExMbN68OXh7jWsI7ookCwgggAAC4goQ3MXtOypHwASB8fHx4IHj+/fvn52dlff+5MmTLVu2KPnYarVUfNt+/c+uIU/o6+vBeT1gjRzfbzS79v/Q8WrW0g2syv537NjhP62N0sLOzk7/m2iV7TUuENwVSRYQQAABBMQVILiL23dUjoAJApOTk+Xl5QHxNycn59atW8re+/r6ioqKJMk3UUz1D5b/87RvOHtAHNf7crDd3f+hu+MPWRXftivx3Wq17N+/v7+/338u+YWFhampqYqKioAidb0kuCu9yQICCCCAgLgCBHdx+47KETBBYHp6evv27cEhuKKiYnx8fGFhYWZmprW1NS8vz75M+vkby//vf1erDGfXHd897t6/ui81rnq70rGhIMO53FdIbm7unj17Ojo6Hj16JLfQ4/FEc7ldknwjcDo7O03wYhcIIIAAAggkToDgnjh7joxAEgjMzMzs2rUrOLjbbLaGhoZ79+7V1tY6nc6sFVLdnhX/PmdmaldS/qDHN1a+539Wnz+YWf2D5YV5VqvVYrPZiouLGxsbOzs75ev9wUVqX2O327u6upLAmxIQQAABBBAwLkBwN27HJxFIAQGv11tVVRUyATudTvm+1cI86we/Xtn/odrUMUoKN7wgj30faHff/MDV/M7KN8pekYfQRHmtXW6aw+Hwv+M2BTqOJiCAAAIIpKEAwT0NO50mI/CSQLjgLkmS1Wp5o+yVfzStin5Qu/ZALyd4eQjN/h86vvIla8jvFbpWEtxf6nJeIIAAAgiIKUBwF7PfqBoB8wTCBfdXsyy/+8mKf50x4VZU7andf0t5evjO46sqv2NXn/o9YognuJt3vrAnBBBAAIGECRDcE0bPgRFIEoGQwX1DQcb5g5mftcV2eIx/TA+3POhxf3Le/bufrJBvXY2Y0UNu4HA4uru7kwScMhBAAAEEEDAmQHA35sanEEgRgdnZ2YCbUzMyfDO1XzthfKb2cBHc8PqBdvenre79P3RYrYHzvoeM6cErmVUmRc5XmoEAAgiktwDBPb37n9anvcDk5KT/E0ktFmnPd+23Ezc8Rgn3yr2q8prBdnf3X1yv52cEh3Ita2w2W8gHsqZ9/wOAAAIIICCSAMFdpN6iVgRMF3j27FlxcbGSfQvzrNf/7Bps9z1fKZ43pCp53Xfcdt+h/3l69aXGVddOuJRp4wfb3T9/Y3Gmd6VczQsWi3Tq1CnT9dghAggggAAC8RQguMdTm2MhkHQCIyMj+fn5SgDe/0PHkMd9+8zq2t2OtveylNDsH6xjtzywGNmvnXD9/qcrSgoz5Mnj//PR0lNa//ORu/EXTovBwTLSwYMHk06fghBAAAEEENAjQHDXo8W2CKScwN27d7Ozs+XgbrVajr/p/M9HvkEpX/mS9Ysu38tYT98ufw2QB8bcaln9fvWKwryl+R9f+4K18RdO+fL/Z23uKIP7nj175ubmUq4DaRACCCCAQBoJENzTqLNpKgLBAl1dXXa7XQ7uFovU+AtfcP/vFJB7vmu3Wi1ZK6T3q1d82hrbuWXkeWM++PXK0q8ts1h8k8dvKMj448+c/2ha9cn5pcvt8hAaw0NlJEkqLS0dHx8PFmANAggggAACoggQ3EXpKepEICYCZ8+e9R98Uv2D5QPtvph++8zqn7+x3L5Mci6X6vas+OR8TLK7fKxLjasqvm13LH59KMyz/vFnzlstq4c8vsHuyrCcgXb3rZbVGwoM3pwqSVJOTk5/f39MENkpAggggAACcREguMeFmYMgkKwCDQ0NygB3SZIK86w3mn03pw60u/99bvXblQ77Msm+TPr5G8v/edrMJzHJY2NufuCq27PitS/4xsa8mmXZ/0PHtRMu+blLSmSXF6aJeXsAACAASURBVIY87uNvOqN5DJPNZrtw4UKy9gN1pabA8PBwZ2fnyZqampoy+Y//j5vf8tK7vg1rTnZ2dg4PD6emCK1CAIHoBAju0fnxaQREFpidnd29e7dfevANU/ntj1fIl7oH2t29f3X//qcrslb41r9R9opZk7sPedz/97+r//SrlfIVdPsy6Xslr3z0flb/hy9dZVey+6DH/Y+mVcrYd/+CdS3X1tZ6vV6Re2yp9uGTZboaLm9ccyUGTb9SY6AS5SNlJ82Pp0YqMrWO4eErJ305XWllFAtlZWU1J69cMV8p/Klg5OQy1S98abyDAAILCwR3zgIE0lfg2bNnJSUlAbEix21pey9ryOMbpjLQ7u7/0P2nX62UL4q/np9xuj4zXLxWcna4Bfkq+yfn3ecPZn6v5BX58vnr+RnH33T+64xvbEzIDw62u3v+Z/UbZa9YrZacnBz/gT0BlUd8mTrD3I2EKykW6cpISvbvJ/O/TBihMUfGl9dNSev+QC+WFyN8HBJ84gDT9//EtBwBHQIEdx1YbIpAign09fUpU8q8CAiS9Hp+xt+PrVKS9EC7+6P3s0oKfePLXSt9w2bkAS3+Y9BDZm5l5WC7e8jju+f1dH3mG2WvZK3wHe21L1jfrnTcaPY9ojXcvJODHl9q3/Ndu8Uibd68+cyZM06n079UXcuZmZk3btxIiU40FJiTIyW/3GVm12QkdkpRFhHjxP4ymOS7BB/L/G5E0JxvPinxk0kjEIi1AME91sLsH4HkFbhw4YLNZgvIBfLLDQUZfzuSpTyDadDjvtHsqvr+cufiE5AK86y//+mKaydcn7X5EnnIBC9Pyj7k8V2zv/5nV+MvnOUblskffzXLUvX95X8/tkq+OVXJ9wELQx73tROuN8pesVikkpKS3t7esbGxwsLCkAVrXFlfX58So2WMpCsp2oAadCYbq+KlrjI78hn5RmM8t8c3svvDldXEKr0b6VSzezHoTGMFAgh8LkBw/1yC/yKQfgL19fX+WSBgOf/L1uZ3Vn7aupTLB9vdn7a6W36T+a2v26xW32OQ8r9srfr+8pbfZF474fq//10tz/guXzv/tNV3pfzvx1Ydf9NZ+R17/pdfTM1e9f3lfzuyOJw9zNgY+aGtvX/1Hev1fN9l/vLy8t7e3oWFhZmZmYBB+QE1R3xZVFQ0NjaWAl1tJF6ZPljGSEoO7CJzM58RFoMVDF+J5cCYQKaQr2OS3uNImAI/hzQBgbgLENzjTs4BEUgOgcnJyc2bN4fMA5Ik2e12p9PpsEvVP1gaGCMn8iGPb1rGxl84v/V1mzyBY0aG5bUvWL/1dVvFt+1V319e/YPle75r/17JK6/nZ7yatfSYU4dd2lCQUbdnRefxVb4h8mEiuzwIvv9D96XGVXu+a3cu95Wxb9++kZERxay5uTmaYe52u72trU3Zm8ALhkKz8WvLoaQMlRB0xplZU7xCZxKE9s8dTQ/v8TIMdUaxDgEEIgoQ3CMSsQECqSnQ29sbcoC7HAiKi4tbW1vlW1e/+prvCab/97+rldlmhjzuf55eff5gZvUPlm8oyHCt9E0783mSWPqvfZmU47Z86+u2X/7Icf5g5n+Hqg96wkZ2+a3bZ1a3vZe157v2L7p8e1u/fn1ra+vU1JR/B9y+fdvtdgccS9fLbdu2TU5O+u9TzGVDsTnRKTlUT5lYkxET3Yc3kmxDtdu8dQZ/ZxD6vDfSPFMLCF0WaxFAQBYguHMmIJCmAi0tLcFpW8kSmzdvnpmZGRkZqa2tdbvdGRmWyu/Yr//ZN8m6PBJdvjo+sDjly9+PrWr5TeYff+b8/U9XyP8cf9N5/mDmP5pWyXFf/fbTT1t9l9hrdztKCjOWHsNUWNjY2PjgwYPgvpmYmNi0aZNSp4EFp9PZ2dkZvGfR1hgJWGYOljF0/FD9ZV7qM1KSztxu5BChGm32usQimnd00X4KqReBuAsQ3ONOzgERSAKB6enpiooKlfBQWVk5Ozu7sLAwNzfX1dVVtjgrdUlhxn8HsSjZXUnwgx7fLar/+cj3b/kfeVl+kFPALafKS/nO1M7jq6p/sFy+xO52u7ds2dLS0hIysitsAQ+NUmlFuLd27tyZAhfdDWVInTlVQQ9aMHT00B1iWuwzcMFd17FNbHNoiajWmnS7qpFG6lIMOpVYgQACOgQI7jqw2BSBlBHo6+vLyclRiQkHDhzwn31lZGSkqqrKZrMV5ln/O5olILsrWVz7gjzY5v3qFV/5ku++1YKCgkOHDvX09GjJ09euXYtmUkhJkhwOx8WLF4XvTQM51byZZQwdPMwZZ9K3CSMl6Ti0kd2HaXCMVpuSnwnuwv+PgQaktgDBPbX7l9YhEFqgqalJZZyMJEnHjx8P+OTz58/r6ursdvtXvmT94Ncr1WdyVEnw8kD5jj9klW9YZrFI2dnZ9fX1uh7w/uTJk+Li4iizT3l5+dOnTwPaKNhLIxHLrMEy5qZYHfE5fB8Z4dB+YHMbHOXZG/7j2hsUDtIIoynfGMIVxHoEEPAXILj7a7CMQFoIjI+Pb9y4Mfzf/ZLNZrtw4UKwxdTU1LFjxzIzM1/NsvzxZ85Pzoe92TRkcJeHxd9odv3yR45Xsyw2m23btm03btyYn58PPpbKGq/XW1tbq1K/lrdsNltzc7PKUUR4y0jGMmcyd0NHDt8vpgQ/A9Fa83EN7Dt8a2P7TrTR3UjXanYU4aeKGhFIbgGCe3L3D9UhEAOBy5cvOxwOlfTgcrl6enpCHnlmZubMmTM5OTn2ZdKe79r/0eQb8h7yAUz+2V2eNEaeR1Kemj0/P//EiRPj4+MhjxJx5dWrV9WboNI65a21a9f29/dHPFYyb2AkT5oRsoyEO8U91IIJRRmw0HpU05sbisC0dVpbFebENtLYKA8ZphJWI4BACAGCewgUViGQwgLT09MRn2FUWFg4OjoaDsHr9XZ1dZWWlkqS9NXXrL/98Yp/NK36tPXFnanKLaq+h6p63P8+53sS0+9+skKO7C6Xq6amRn6gUrhDRFz/+PHj9evXRx91qqurA6abjHjo5NrAQFo1YbCMkWwXobOivU68YKQmjQc1ghyhubF9O6ocbQQyqgMm108U1SCQ7AIE92TvIepDwFyB7u5ul8ulnhu2bds2PT2tftwHDx7U19fLd7jmuC3bvvnKb3+8ovmdlW3vZf3tSFbHH7LOH8w8/qZz/w8d5RuWyU9icrvde/fuvXbt2szMjPrOI75rymgZ+S5VsZ/HZCRlRT9YJhZJVmOIDntqGKhJ2yENEQf+gJWV1Zw8eeXKsO9PUBMW1165cvJkjWnPYtXWtKBKfCuMtJfgHpKSlQjEQoDgHgtV9olAkgrMzMxUV1cHhoqg13V1df5TyoRrzPz8/O3bt+vq6oqKipSBKxkZFoddcthfPJLJ5XKVlpY2NDT09PRE/D4Q7ljB600ZLSNJ0rp16wYGBoL3L8iaRMQsAxk56BwLWhFl9jPgoO2IBnb8om1lvueaBid19XNr+MrJ6AO88eRupMHaKNWbzbsIIKBJgOCuiYmNEEgNgWvXrkW83G6z2Twej672Pnr06Pr1683NzW+/887evXsrKip27dpVXV198ODBc+fO9fT0GB7LrlLGkydP5Ae7vohJRpeqqqq0TEOpUkwC3zKSoqPLWUaSnYauiaooAzVpO56BHctt9UX2aE6L4SvRpXfDyd1Ii7VZRsPBZxFAYEmA4M6pgEC6CExOTu7atStigsrOzr57965hlLm5uZnFP1qu2Rs+ysLCgtfrPXjwYMTmaNnAbrc3NzfrndwmmuJN/KyRnBXVYBlDB9TSDYaj5sLCgoGvL9oOZ2DHkhRtaP/89Bg2dPQla23t+/xQL/5rpH8J7i/8WEIgxgIE9xgDs3sEkkago6NDGdCikqPKysqeP3+eNFWrFXLjxo2Iv0BQaan/W7m5udevX1c7WNK+F+egZeRw/tIqy0ajpqFx2dqyppHkbLwZIc6xKLgN1mHkiNowQzSPVQggoFeA4K5XjO0REFJgbGxMngdGJTfJbwU8MzWZWzsxMVFeXh6xRRo3KCsrGxkZSeb2hqnNSLg0nrSMHE1rD5w0OLjEQNbUBhCzHYfpylCrDdQge2trYtAhjRzP4KGCjs0KBBCIKEBwj0jEBggILzA/P3/48GGbzRYxQNlsto6ODoEafPz4cYslYrM0bWCxSPv27RNxsLuRLG3wcqyRMSma9Bc3Mpr/DABoa7/+HRttgtrPnJEo7fPU1sbAIxs5WixaHVgXrxFAYFGA4M6JgEDqC3R3d8vzNkaMUHl5eWJNsdLb26uxaRHbLkmS3W5vamoSbrB7HKOWkUNpkV/aJm5RU+OB9Ad3jTvW9z8dg+rG4rSRgxk7kj4EtkYAgUUBgjsnAgIpLvD06dOtW7dqDE/bt283ccbGOMhOT09XVlZqbJ2WzbKzsz/++OM4VG7mIeKWtXQeqEz3xORGcq/OonxngdagqTu4a92x3t7XXcjiuW5Ek3nc9fYN2yMQXwGCe3y9ORoC8RWYn59vbGzUMkhGkiSLRWpqaopvgSYcra2tTWMDtQR3SZKKior6+/tNqCx+uzCS6wykOp0RuezksM5PaE7U/rT6G685XuvftQFV/7aEXdZfiY7vJy8dVW+X6fki9NKBeIEAAkYECO5G1PgMAqIIXL58OTs7W2NgdbvdPT09ojRNqXN0dHTdunUa26hxs+3btz958kQ5RPIvGMh1mtPri9brPIovxOqNgfqr0nsEPYO/dTbYd3bFKLkbaKX2Xyy86GGenPqSBS8QSEIBgnsSdgolIWCOQE9PT0FBgcaoKklSeXn5xMSEOceO417m5+dra2u1N1PLllarpba2VqBRQ0Zyne6MrDPGyhFW54f0B1+9B9CTZ+PCqu1nZamZZcqfGuXPyc7P/1wZVv5o22uIrZKozSGqYxUCaS9AcE/7UwCAFBUYGRnZuHGjlpCqbHPkyBFBMbq7u82a0F3RcDgczc3Nc3NzYpjoj6+6Lw7rTHSffy/QW5nOS9Z6d68nt+v+fcHS2RPlQ1MTe8bp7ObFJn/e14mtnKMjkBYCBPe06GYamW4CExMTVVVVSgbVsiDoOBm5ZycnJ7XfgKtFQ94mOzv70qVLgpw8+gOszgHlOgOdkuV0fi62Vfk6Vs83AwOq8rlTdvKKwUnpE32+6e0vX3uVzk508RwfgdQXILinfh/TwnQTmJ2dPXLkiN77NTdv3iziFOZK554+fVpvk+WEpf7vtWvXCjLuP9Z5S+f+/aKczk/qS4H6k7We3L4Q1bz1ZTUipne93UVwV/4nxAIC8RAguMdDmWMgEE+Bjo4OveNGrFaLiPPJ+Ks+ePBA14B+9bzu/+7GjRuFeKKqkcClI8TqTMj+e9Zbmf9n/fs4xLLOqvRfHNZbu/+Zs7S8mN/FufxupMV+X9NCdBKrEEDARAGCu4mY7AqBxAvcvn177dq1IdKD6qqcnJze3t7EVx9FBbG4RVUxq6qqEuC2Xf0hVsfFbZ07fzl76/yw9sEs+kOm7oip/xDKaROwUCZGgjfSYN2qUfyk81EE0lyA4J7mJwDNTymBsbGxzZs3B8QFLS8rKysFmkElXJ/F4hZVWc9mszU2Ns7OzoY7dHKs15uPdYz31pnmAoOc3spezv3hdfXuV98A96Xj6j9IpJ+5xQh/ZTg5r8Lr7OrFtgb2d/ge4x0EEIhSgOAeJSAfRyBZBKanpw8cOGCxRAoNQe/bbDaPx5MszYiijqmpqe3btwe1z5wVLpfr4sWLUVQXh48aiVzaIrLOPQflOJ2f1/qbAP2RWltzA/pKb/V6zriyspqak1eSKcQbaW1QhwcI8hIBBEwTILibRsmOEEiggNfrPXPmjMPh0JMZlrZdt27d6OhoAos38dBtbW12u90AgpaPFBYW3r1718RqTd+V/iCrMSLr23GIGKc3DYbYRbCW3p0an/1EX/u1nEwht/FdiT+Z6BCvX9W4a3CfsgYBBCIIENwjAPE2AkII3Lp1Ky8vL2QYiLiyrq7O6/UK0cyIRY6NjRUXF0dssuENtm/f/vTp04hlJGwDAwFTyzVonbsNtUu9cTDUPgJZdZalY2RQ4JGMTuhu+ESTpISNiNfbU742avqeFYTKCgQQMCBAcDeAxkcQSC6BR48eGRvaLkmSy+W6efNmcrUnimq8Xm9jY6OB8UIaE5bNZjt48ODMzEwUNcbyo0ZCV+SIrDMgh96hzp1ouEFVf2NDV6atQ/QfTeM5FXmz+N7UaqShBHdtJxFbIWCCAMHdBER2gUACBWZmZurq6qxW/WPbFwPD9u3bp6amEli/6Yfu7+9X+eVDdnb2unXrImel8Fu4XK4LFy6YXrZJOzSQuiKGLp37DLc/nck93G4UKJ1lmXBdWGcLwp9DRt+Jy8Tw+l254q6clCwgEHsBgnvsjTkCArEUuHDhQmZmprEkYLPZWltbY1ldAvY9Nze3f//+cCAVFRUDAwMVFRXRXJVft27dwMBAAtqm4ZAGwmWE69A6g1zYwK1zPxGHX+huadjKNLAubaK3DeFOwyjXxzTAG2mjCbTaO4EtEUhvAYJ7evc/rRdcYGBgIJrrx0VFRWNjY4IbhChfZV7I7Ozsrq6ux48fV1ZWRpPd9+zZk6QPmtWdZyNNkahzh+G/BuhNhOH35OtzvXuL1MwQ51HIVVdqyqKM3WZ9vKys5koMZpTUD8sV95BnCisRiI0AwT02ruwVgdgLTE5OVlVVGU4B/42thw8fTpnbUv29p6amdu3aFU6mqKjozp07jx49imbuSLvdfurUqWTUM5C7VK+Xmpbb9WdtteSuv5lqe/M/eyIvJ092943/qTlpbnzXL0twj3zOsAUCpgkQ3E2jZEcIxFng9OnTKlMfWiySyruSJKXA01JVwC9duqQyOWZxcfGdO3cePHhQXl4eLt9HXJ+Xl3f79m2VGhL0ls6k7WunSqbVuTeVPS0sLOjcmdoXCp27MjtbGkm3Ec8o4xuYee3dSNPUeipBPwYcFoFUFSC4p2rP0q4UF7h79+7atWtV/qYvLS1Vvx5fXV2dvLOjRN17z58/V59pp7i4uLe3t6+vr6ioSIVR/a2dO3c+f/486mJN3oHuTKuS3HWmuEgBTmdp4Xensy6zc/tijw2fTJpRM77T1KzwrpvWhNt+Tf4JYHcIpLIAwT2Ve5e2parAxMREZWWlSqZ0Op0ej2fv3r3htsnMzOzq6kpVH7ldra2t6r9z2LRp0+jo6LVr13Jzc8NBqa+32WwnTpxItgEzBpJXuISsc1fhdqOcaDr3F/ZXAXr3o/LVRKnN0MLwlaRK7xE7QEMj9dvG5GuRhkrZBIG0FCC4p2W302jBBdQHyUiSVF1d3dPTk5OTEy53btu2LUnvrTSva548eVJaWhpOQF6/d+/eiYmJM2fOOJ1O9S3DvbtmzZqke5yqgegVZoiLzivkYfbi16d6SwuzR511xTpZDifRqPeos7veLvL9ZER9UL9ThEUEEFAVILir8vAmAskn0NfXV1BQEC5HSpKUl5d3586dhoaGcNvY7fa2trbka5n5FbW0tNhstnAOkiTZbLajR49OT0/X1tYangs/+WaY0Z1rw1yR1rmfMCn7pX7VGQtDJ0KdO4lTsEyaq++h0V7qBpUXunEJ7iqavIWA6QIEd9NJ2SECMRSYmpqqrq5WSaJWq+Xo0aPDw8MqI+BLSkoeP34cwyqTZtdjY2PFxcUqXJIkyRNEPnnyRH1MvMpOHA5Hsn0R0pm4w0QvnXvRktvNuUFVZ2FhvpbE6DQd9l1/T/SUkdr6IqQAwT0kCysRSBYBgnuy9AR1IKBFoKOjQ31QR2lp6djY2OHDh8NNUm61WpqamrQcKzW2OXHihPpFd19oLSsbGxu7efOm4cHu69evHxkZSR4xA+ErOOrp3InW67w6U3dwXXonp4lvbn9xEixegU9Ygg/h9qI0tSWd3b74jVZr36sdl/cQQECTAMFdExMbIZAMAqOjoyUlJSqXfu12e0dHx/3791UutxcUFNy/fz8ZmhOfGsbGxtTRJEmyWi0HDx6cm5s7fvx4xJQf0t9ikeQ9xKdRkY+iMx37GhWY9HQGOM3ZTed+g+rS/+glzaVFdjW2xfCVkyfjfxU+sEM11q63f3znTsKFNbaNzRBIAQGCewp0Ik1IC4G5ubmGhgb1cdg7d+6cnJw8dOhQuMvtFovU0NCQbLOgxLr/Io50lwfM3Lhx4/nz59u2bQsZzSOuzMnJ6enpiXVbNO9ff3IPDF8696A9JupMhoF16b7gHrQDzYgx2HA4niFee5/4tVRn9yz+YCQVsV9bWEQgBQUI7inYqTQpJQVu3bqlMkuMJEkul+v69etDQ0Nr1qwJlzLz8vL6+vpS0kelUU+ePCnTMOhY/tpz48aN7OzscIDq6/fu3Ts1NaVSSRzfMhC/Xo55Mcvtup+gGpAKdRYW/KuEOPaC+qFiH+ID6NTLWXrXwJnDFXdNsmyEgCkCBHdTGNkJArEVmJqaUp+4XZKkffv2zczM1NbWhrvcLknSW2+9NTs7G9tak3LvbW1t6nO6S5LkcDg8Hs/8/Hx9fb2KoUp2z8zMvHz5cpIA6M9fL6U8nfH4pc9GFNC585e+Uehu10ufjlhaojaIUYjX1y+LjdcNzFCZRJ00HDc9BQju6dnvtFowgY6ODofDoRIZc3Nz7969e+fOHZWr8m63+9atW4K13KRyx8fHt2zZogIov1VWVvb06dP79++vW7cu4sYhN9i6dWuyPEtVZzp+OX7pTG9686HO2vyzt86PCngx2JfhzRsR72+n6adJZ9cv/hjo7X9NhbARAgiEEiC4h1JhHQLJJPD48eOIIz1qa2tnZmb2798fMk3KK/fu3Ts9PZ1MLYtrLRcvXlT/8iNP63769OmFhYXm5mZjd6km0xz5eiOu36ASneFNd24zvn/djdIdXON6VqoezJSJJWPdNwR31T7kTQRMFyC4m07KDhEwU8Dr9Uac0DAvL6+/v//27dsqg7MzMzO7urrMrEy0fU1MTGi58bSsrOzZs2danroa7jvSxo0bnz17lgQ8OtOx/yV3nfFYfzjWWZuSPnV+zu+7SBJ0iMESonwuq2Kn8fC6if1PHI3HYDMEEDAsQHA3TMcHEYiHwL179yIO26irq5udnVW/3L59+/akuW8yHm4hj6Hlors8pebCwsK5c+ciDosPmd3tdntra2vIAuK8Umf8fhHAdH5Qf27XfYPq54fQWZmAA2XCnCNG4vTS6fm5XZg9B642ciS9Xw4Cj8lrBBDQLEBw10zFhgjEXcDr9arM7Sj/tSxPFNPX16cyut3hcFy8eDHu5SfdAZ8/f67l8ag7duyYmpp6+vRpxBFKIYO7JEmbNm1KiovuemPu0gVqnR8zltp0HkROn3pDpbHSku7ElQvS23jl7NSX3I0cJqWck7T7KQuBJQGCO6cCAskr0N/frzK3o/z3cm1t7fz8fENDg/LXdPBCeXn5+Ph48rYzjpW1trZGvI7ucrlu3ry5sLBw6tQpwyPdOzo64tisMIfSn8F8CUznp4yGNn3JffEoOiuLzUCZ4eHh4StXrvieqVRTU1Mmf7vTl43DdFfk1frMPv8/gb4e0o384jc1kRvAFgggEK0AwT1aQT6PQIwE5ufn6+rqPv+7N/R/s7Oz79y58/DhQ5XhNDab7dy5czEqUrjdahy8Xl9f7/V6R0dHVWBDd8nna7dt2zY5OZloH/0hrOykzs/oS4V+IAaOoze3RhGnffF8uLOz8+V8/nnvBv3XsIIfiJZFnWhynfqKM3IIfUfQ0lC2QQCBMAIE9zAwrEYg0QJ9fX15eXlBCeGlFVVVVXNzc+fOnVO5MFxcXPzo0aNEtyaJjt/U1KT+AFpJktavX//48WOv13vw4MGXxDW/cDqdV69eTXiz9UZdSaqpqdHcSN+GxsOxzoRYc+XKyTJdpRmNkzoLW6zJ6LH0niFGatPXR0aOEK/W69ViewRSUIDgnoKdSpNSQEC+3K7+GCA5Gs7MzOzYsSNcnrFaLU1NTSkAYmIT7t27t3bt2nBi8nqHwyHH7p6eHrfbrb5xuHerq6tnZmZMrNzIrvQn93DNCb3eeG7Xf4Nqjb7cri+v+uEaia5xuw3WSIfq6iQjrSe4+50+LCIQWwGCe2x92TsCxgT6+/sjXm7fvHnz5OSk+iyQBQUF9+/fN1ZDqn5qfn6+trY2dAz1W1tXV+f1eqemprZv3+63WsdiTk5Ob29vghmNxDAdbYwusRkJodqL0xVXX+omQ3VFR/HS8dVeGKlNl4SRMyZObVdz4T0E0kWA4J4uPU07BRLwer0NDQ3ql9ttNltLS8vCwsKxY8fCbWmxSO+++67X6xWo7fEp9datWxGvo5eVlcnPQG1paYk4tCZkmrRYpCNHjsSnReGPYiTohWxOqJXRBrZYFhdNbYbqiuaA4fsv8B0jpRHcAxV5jYC4AgR3cfuOylNW4P79+wUFBaFy0ot1+fn5w8PDU1NTKvMbyreupixTFA3Tch09Ozv77t27CwsL/f39ubm5L+j1LJWUlDx58iSKSk34qJGkp7WNuhJhiLYYubqrsbaoYrSxuqI6ZAidUKsMVaarm4wcIR4tD6XBOgTSUIDgnoadTpOTXeDEiRMRL/Hu27dvbm7u7t27Kk9L3b179/T0dLK3NkH1tba2qtzRK0mSzWbzeDwLCwvT09OGR8s4HI6PP/44QU1cOqyRIKYxHOsKhCEVYldcdLUZ/LYT3UFDCr280pCXvlht5BD6jvByk3iFAAK6BAjuurjYGIGYC2iZr9But1+6dGlhYUFlFIfyBNCYVyzmAUZGRgoLC9UDan19vdy4Y8eOqW+p8m5NTc3c3FwikYwkMZUGvXjLjJgaq+Kirc1gcjd8Q6y2E8SYlr5YbeQY+o6gra1shQACIQUI7iFZWIlAwgQuXLgQ8QlB6I+khwAAIABJREFU69atGx0dnZubq6qqehGjXl4qKioaGxtLWDOS/sDz8/MHDhx42SzwVUVFhTwtzPXr151OZ+Db2l4XFhaOjIwk1MNoCI3QQHPSWmyKi7o2I/FV9or2K0P4U8VoTfoqMnKUqLnDN5p3EEDgZQGC+8sevEIgoQLT09OVlZUR8tLiVNvz8/NPnz4tLi4Ot7E8KUpCW5PsB7969ap6HC8pKXn27NnCwsLDhw8jXp4P1xF2u/3ChQuJtYhJODYrrMWiOBNqM5Jfl86BmivDMehvwwXpy+16H5y72GYTvGMgxi4RSEkBgntKdiuNElVAfW5HORbYbLaOjo6FhYU7d+6EmxolMzPz+vXroirEq+4nT56UlJSEC9ySJK1Zs0aeTHNmZmbnzp0qW6q/VVNTMz8/H69mhTiO4cyn1i6deTBEWfKqWBRnRm1R1WV2dh82/vVGb6g20m69xwh7MvAGAghEEiC4RxLifQTiKHD48OFwczsqESovL29oaGhhYaGjoyPc7ZWlpaXj4+NxLFzIQ0V8MKrb7ZYnlllYWHj33XeVLtC7UFRUlOCH1xqPfWHbakY2lk8bI0kxbFmLb5iUI6NTM6mIBd0PqnrZRncZRrpD90GE/B8GRSOQFAIE96ToBopAYGFh4enTp6WlpS//rRvi1bZt2+S5Yo4cORLi7cVVBw8eZPp2LSdVV1eXymiZzMzM7u5ueT/nzp2LONVPuO5wOp3Xrl3TUk/Mtokug4ZomHm5PcpgGqI202Jk1Gpl0V55H75yUufjYgM89FsQ3GP2U8iOETBDgOBuhiL7QMAMgc7OTofDEfD3bvDLQ4cOLSwszM/PV1dXB78rSVISxEQzOOKyjydPnqjcJ+BwOLq6uuRCurq6tPROyB6RJOno0aNxaVC4gxhJY+Ha4luvPw+Gq8y3PuqA/HKp5n2pMIWtzBff9Y56Hx6+crImuszuQzFAYaTN5p4OaqcK7yGQ9gIE97Q/BQBIDoH5+fm333nn5fwR4pXNZrt48aI8ufjWrVtDbCFJ69evT/hDf5IDNXIVXq9XZW4Zu91++fJleS+9vb0qU+aH7Aj/lTt37pQnqIlcU2y2MBLH/Bvw8rLZQc3U5G4grIY3N7OysrKakyevXBn2/Qk64uLaK1dOnqwpiz6vf95bRijMPVM+ryTG/zXS0KAuYAUCQggQ3IXoJopMfYFHjx4VFRVF/NtNeZzn+Ph4uBsr9+/fn9hbIcXqrYsXL4abf9P/ivv9+/fz8/MjdlC4DQoKCkZHRxMpY2YCNXIhV7XtZoZFk79UmFlauLMjRuuNSQjZYIK76s8Xb6aUAME9pbqTxogroHGcTFFRkXw1PdwEhcrzPsWliHPl9+7dW7NmTcjo5D/GXeM3q5D7kccv3bhxI85Ne/lwJiZ382OSeWnRWFp9merlV+bVFu7siMl6oxBCNtf8M/Llc4BXCCSPAME9efqCStJXwOv11tXVafnbW7kzdWRkJOQF4JycnP7+/vSl1N/y6enpHTt2hMTPzs7u7e2Vd6nyK46Qnw1YabFILS0t+qsz8RPmBTKjkVCtMaZVF4sIZ1pxAWdFLF8adhCxsab/CkjtVOU9BBIrQHBPrD9HR8AnMD4+XqZtYOu+fftksnDBvby8fHJyElZdAkePHg0ZofLz85WHnkYZ3CVJOnDggK6qTN/YrEQWi9xu2g2qhvOqOrdZdiHPM/NXRtNFgjVVxotRt6ufFLyLQEIECO4JYeegCLwk0NPTE+5RSgF/pzc0NMifDBfca2trX9o1LzQIhJsxpqysbGJiQt5B9MFd+W2Jhopis4k5g2WiCYVq7TKlulgVZ/7UNwE/2Wa+jA6B4K52lvIeAgkXILgnvAsoAIGFlpaWiM9dkv9ib2pqkr1GR0cLCgoC/ra32WxtbW2A6hV48OBByHFH1dXVym2+T58+VZk4MqAjQr5U7k/QW55p25sTyWJ1cdOU6mJV3GIfmFJhyHPDzJXREojRygCxaBtt2s8YO0Ig5gIE95gTcwAE1AXm5ubCzcge8JeTJElnzpyR9xZyAnK3233nzh31w/FusMD09PS2bdsCtC0WSfmatLCwMDo6WlhYGLCNrpe5ubkDAwPBR4/jGjMyWewikgnVxa64pV4yoUZdJ43ejU0ASPYmhiQxod1x/DnkUAhEI0Bwj0aPzyJggoCuS7nnzp2TDzk1NbV58+aAv8OKiooeP35sQk3pt4vgm4MzMzP954EZGhrKzc0NANf10ul0Ks9hTRRw9MNRohuGod7uqCNjLItTSh++YsKDkXSdORo3LjMnvUbdCxrLNXUzc5qu9DELCCSxAME9iTuH0tJD4M6dO9qf7KME95BPTq2oqEjsU37E7bFz584FBIni4mL/51jdunUrMzMzYBtdL20226VLlxJMFG1yj200jrK62Bbn33PDZjzVVNfZE2Fj38NZ/QuMYpngHgUeH0Ug9gIE99gbcwQEVAU6OjpsNluEv5c/f9t/SsHGxsbPVy/9t76+XvVQvBlWYGBgYP/+/ZWVlZs3by4sLHS5XHV1dcoA94WFBV3dFNAv8kuL5cVIp7B1xPqNKFNZrKNxdMk9vpddk+bKu4mh3Xf6RXmKhDz3Y74yvl0f659S9o+AmgDBXU2H9xCIg8Dhw4e1/7V27NgxpaTLly/7P/LTarWcPXtWeZcFvQJer3dubm5qaurhw4c9PT3KRJDyfo4cOaK9m8Jtefz4cb1Vmb19dLEs1vkoqupiXVyorkhwejc5sy+2MKo+CHfmx3p9Ivo+1PnAOgRiL0Bwj70xR0AgvMDc3NzevXu1/63mP9vj0NBQXl6e8lmHw3Ht2rXwh+Id4wJzc3NVVVUKteGFw4cPGy/CpE9Gc1E79vEoitQY698GhPcfjn98L/NFdrMGx7zcsii6wPAPRtQfjP2Z+TISrxBInADBPXH2HBmBhYXJyUmNj16S/2rbtWvX7OysLDc9Pb1z507lr7ycnJy+vj5QYyHg9Xrv3LlTW1u7Zs0aBdzAQjKMZYoil8UjGhsuLx7FqZ9bw8NXYj/0vazmpGmj2UM3x3APGPiBMO0jBPfQncnaVBQguKdir9ImcQRCTseu8rdZcXHxs2fPlPadOnXKarXI2xcWFo6NjSlvsaBdYGJiYmBg4Pr165cvX+7q6pLHyQQ/gNbr9Q4MDDQ0NISc9F2l15S3kiG4Gx/DHJ9obPQ3AkkU3XwJ/mSNtmchK+eGykJZWU3NySsxzuvKjwvBXaFgAYFkFCC4J2OvUFP6CPT19WmfUkaSpOzs7N7eXsVnYGBAGS2zcePG4KypbMlCSIHHjx83Nzdv3rw5JyfH6XTa7XaHw+FyufLz8zdv3lxXV3f58uXR0VGv1+v/8b6+vrffeScnJ0clbIV8KymCu39LWI65wPDw8JUrV07W1NTUlMl/Qp4avpVL7/s29QX1K8MxGgwT8zZzAAQQiJ0AwT12tuwZgcgCN27ccDqdYf8mD3rDZrO1trYq+52dna2pqZG3Yi5IhUXjwt27d7ds2aI+pY/dbl+3bt1bb7119erViYkJZc9zc3M3b96srKz0vz84qLsCVxDcFUAWEEAAAQQMCBDcDaDxEQRMEwiYGSYw6IV6XV1dPTc3p1Rw8+ZN+Zr9vn37Ai4MK9uwECxw79690tLSUMCh1/338UmbN28+e/as/3ikycnJc+fOaX+iajLcnBpMwRoEEEAAAVEECO6i9BR1pqZAW1ubMkg9dGAMWrt27dr79+8rHDMzM/JF97q6OmUlC+oCMzMzBw4cCKKNvMJms5WUlDQ3N/vH9/7+/t27d6tfuZd33dTUpF4Y7yKAAAIIIKAiQHBXweEtBGIu0NLSYlm6uTRyapS3sNls/o9hWlhY6O3t/e9sJ1zN1d5bvb29BkaoKz1ks9lKS0tbW1uVwTPPnz8/dOiQ+qgni0VSHnyrvVS2RAABBBBAQBEguCsULCCQAIHm5mYlDmpfKC8vHx8fV8r1er3Ni3+UNSyoC5w4cULv96Xg3rHb7Tt37rx586Y8QmlmZqa5uTkzMzN4S3mNzWb7+OOP1QvjXQQQQAABBFQECO4qOLyFQMwFjAV3u93uf4vqwsLCxMTEvXv3Yl5uShxgdnZ2z5494eK13vW5ublNTU3yfD6zs7PHjx8Pd7uqy+W6detWShDSCAQQQACBxAgQ3BPjzlERkAWMBXdJkkpKSh4+fAijAYGJiQldt6VGjPJ2u33//v3y/PpTU1PV1dUhP5KXl8eXKwP9xUcQQAABBBQBgrtCwQICCRA4e/assTEbVquloaFBeYpqAkoX85BTU1OXL1/WNXd+yBQesNJqtezbt08ev9TX1xfyAaslJSX+A5zE9KNqBBBAAIFEChDcE6nPsRHo6OjQMhtJQEyUX7rdbsZMaz+FZmZmrl69WlFR4XK5QnpGudJmsx05cmRubm5+fj7klDW7d+/mi5b2/mJLBBBAAIFgAYJ7sAlrEIifQFdXl8PhMBwZi4qK+vr64leusEcaGxurra2NUWRXui83N/fu3bsLCwshp+c/cuSIsH4UjgACCCCQFAIE96ToBopIW4E7d+5EmSa3bNkyMjKStoBaGt7f379t2zZjQ5KUUK5x4ejRo/IEnQGjcex2++XLl7VUyzYIIIAAAgiEEyC4h5NhPQLxEBgaGsrLy/MPhRkZlte+YC0pzNj4jWUlhRn5X7Y6l/u/H2J5165d3Kgarrfu3bu3adMmRS3/y9Y937VnrVBWmLywZ8+ehYWFgYGB3Nxc/13n5eUNDQ2FK5L1CCCAAAIIaBEguGtRYhsEYiIwOTlZX1+vzB6YkWHZ+I1lf/rVymsnXLfPrP7kvPtfZ1Z3/8XV9l7W25WO1/Mzwj1j1WKRtm/fPjw8HJMqRd7p+Ph4ZWWlHKAtFql8w7K/H1t1/c+u175g9U/VJi7v2rUr5BX3rVu3Tk1NiWxJ7QgggAACiRcguCe+D6ggPQWmp6cbGhqU1P5qluV3P1nxz9OrhzzuwXb3QLv7szbfvwfa3b41Hnf3X1y/+8kKlcS5cePGnp6e9MQM2er5+fljx47J9/5aLNIbZa/c/MA15HH3/M/q1/MzTAzr/ruqra1dWFjo7OxUelZ+lwHuIfuIlQgggAACugQI7rq42BgBcwTm5+dPnTql3Jb6RZel+Z2VclL/rM0X2YP/kUP8345kbfzGMv+k6L+8du3atra2mZkZc6oUfC937txRxquUfm3ZjWbXoMcH+2mr+42yV/zdTFzeuHHjgQMH/AfnSJKUmZnZ3d0tOCflI4AAAggkXoDgnvg+oII0FOjq6srJyZHz4qtZvtQuX2IPzusBa4YWL72/UfZKuFstnU7ngQMH7t+/n4aq/k2emZmpqamRhb/osnz0ftbQYmr/rM33G4zf/jhmg9xDfQlwuVxNTU1jY2P+FbKMAAIIIICAXgGCu14xtkcgWoF79+6VlJTIAc9hl96vXhGQztVfDnrct1pWV3zbHm7IuyRJ69evb2trS+dB1Xfu3JG/Glks0s/fWO5POuRxf/R+VuzuTw0V3SWbzVZSUtLR0cHvQ6L9+eHzCCCAQBoLENzTuPNpeiIEJicnq6qq5GxnsUhV31/+yfmlEe3+4VJ9ebDdl923fVNtvIfD4aiqqurt7U1EKxN8TK/X29DQICO/9gXr34+tkgfJyKoD7e5/nl5dUmjmMHeLRfrqa9Zvfd228RvL5H9Kv7bsq69ZXStfivGZmZn19fU8PzXB5weHRwABBIQVILgL23UULqCA1+ttbm5Wblv81tdtNz9wDS7eh6qe1IPfHfS4r51wbSiIkD7Xrl3b0tIyOTkpoJbxkp88eVJcXCxH5j3ftfd/GHjPwKDH/bufrAg33OilrK3txfdKXrl2wvXvc6uVf/51ZvXND1x/O5L1u5+s2FDwYkYgm81WU1NDdjfeu3wSAQQQSGMBgnsadz5Nj7vA9evXldslc9yWjj+8GHgdHM0jrpGHfOS4LerZ0m637927t7+/P+7NTdgBu7q6nE6nJEn2ZVLLbzKV0e0K6WC772tP/pdNmBTSarW8UfZK91+W7nxVDqHMCDS0OLTptz9e8WrWUk/ZbLZ3332XMTMJOz84MAIIICCsAMFd2K6jcNEEhoeHS0tL5ZBtXyb98WdOjTekKlkweGGg3f12pUPLleN169alzwDrw4cPy85ffc3a/RdXSOeBdvfvf7pC5T4B9a9D8rvO5b4B9D3/s1r91yZyiD9dn/mVLy19VXC5XB9//LFopzD1IoAAAggkWIDgnuAO4PBpIvD48eOKigo57Vks0p7v2g0MbQ8O7oPt7ut/dhXmabpynJmZ+e677z558iS1zaemprZu3SpTV3w7xDgZmXGg3Tehe/mGsHNrRgzu+V+2Hn/T2ftXrbcoDHncH/x6pTLqffPmzQyYSe1TkdYhgAACpgsQ3E0nZYcIBAoMDw9XVlYqF3e/9XWbb2SFoaHtIbK7x/1+9YqMjAgDZuQYarVaduzY0dfXF1hiCr1+8OBBfn6+JEkWi+/XGsHjZBTDQY/7UuOqr76m6WuPf453Lpcqv2PvPL5Kbyf2f+iu/sFy+Tckdrv94sWLKQRPUxBAAAEEYi5AcI85MQdIZ4Hx8fHW1tb169crsa8wz3qp8aVJTpQcaWxhYHGGGV1zpBQVFXV1dXm93pTsmuvXr8sD3J3LJf/p20PyDnrcbe9lafyVhTxofuM3lrX8JvOT877H2Ybcp8rKQY+78/gq5fG3u3fvZqR7Sp6ENAoBBBCIkQDBPUaw7DatBWZnZ4eGhk6dOrVp0yZlDhlJ8s0Y+NH7WQYCn0oWlJ8o9KdfrbTrGfSRm5t77ty52dnZ1OunlpYW+ZL2V75kvf7n0APc/T0H291/P7bqeyWvqAO+mmXZ9s1Xmt9ZefvMapWr+P57Drnc/6F7z3ft8he53NzcgYGB1OsCWoQAAgggECMBgnuMYNltOgp4vd6RkRGPx1NVVbVmzRr/e0atVsvGbyzzXWs3aYSMfygcaHf/68zq75WoTeuuXPJXFlwu1/Hjx6enp1Osq+rq6uQ2ln5t2b/OrA55Z6q/3mdtvmvn/zqz+k+/Wvm9klde+4LVudw3HY19mZS1QvrKl6zlG5bV7VnxtyNZn5z3PXVVyw4D9u//csjjbvlNpvwlwWaztba2ppg/zUEAAQQQiJ0AwT12tuw5jQSmpqauX7/+1ltvFRYW2mw2JRzLC/lftv72xytutaw2/Vq7kgiHPO7zBzP1Pg3U4XA0NDSk0gNWZ2ZmKisrZXaVO1MVN2VhoN0Xyj857/5H06q297JafpN5uj6z4w9Z1//sm519yGNkYIyyc/+FgXZ3919e3E9cU1MzPz+fRj8qNBUBBBBAIAoBgnsUeHwUgYWFmZmZrq6uiooKl8sVkNfty6TX8zNqdzv+0bRKnhDQP8CZvtz7V3fld5bGYARUovLSbrenUnafmJhQ5tz85Y8cBr4pDS4m+CGPL8f78noMfkPS/6G74ttLPVVSUsLcMvyPBAEEEEBAowDBXSMUmyEQQmBsbKy2tjYgstuXSYV51qrvL2/5TabvKnt7TMJfcO4f9Lj/diTriy5N08v4R/lUyu6jo6MFBQXylDKNv3D+5yPd948Gw5q+Zsjj/uPPnPJIquzs7Dt37oQ4t1iFAAIIIIBAkADBPYiEFQhoE+jv79+yZYt/As5xWyq+bW9+Z2X3X1zyPaNRjofWGxn7P3T//I2l2Qb9C4u4bLfbGxsbU2CGk76+vpycHHn6lw9+vTKau0j14mvffsjj7vhDljyuyWaztbW1aTvj2AoBBBBAIN0FCO7pfgbQfmMCQ0NDZWVlSiD+osvy8zeW//3Yqk9bTbh/UXsEDNhysN03RDv/y7onJpckKTMz88yZM6KPt+7u7lbmguz4Q1ZyBveBdvfND1zK/PG1tbXGTkI+hQACCCCQbgIE93TrcdprgsD4+PiuXbuU1F76tWUfvZ8lT04SkKTj/3Kw3f3bH69QHvakFKllIScnp6urywSgxO3i8uXL8vybr2ZZfA9I0j/Veny6rPev7m3fXJoFqLy8fHJyMnFmHBkBBBBAQBgBgrswXUWhSSLg9XqbmpqUqWPKNyy7/mdX8lzZlScteT0/Q0tSD96mpKTk3r17SUJtoIxz587JX1q+8iXrtROmPZ7W9DQ/5HHX7nbI/jk5Of39/QYay0cQQAABBNJNgOCebj1Oe6MVGB4elm9/lCTfTaidx1clT2qX8+WQx934C6f644SCI7uyZt++feJOEHnixAm5IYV51lstmiZxNz2Ua9nhkMd9uv7FbO4Mc4/2x5LPI4AAAukhQHBPj36mleYJNDU1yfOB2JdJx990Jltq/6zN94Sgnv9Z/a2vB04nr0Rz9QWHw+HxeMwDi+ueDh8+LLduQ0GGxqcvacnZpm8z0O6+/meXcjfCvn375ubm4irFwRBAAAEEBBQguAvYaZScOIGpqamtW7fK0bCkMOOfp5P0mu6Qx/3Br1c6l6tH9LDvlpSUPHz4MHHMxo9cW1srt6p8w7JPzifjXJDKd4BPW91vlC0Nc1+7du39+/eNN5tPIoAAAgikhwDBPT36mVaaJDA8PJyXlydHw7crjTzfR8ltMV0YaHf/+9xq5fbHsAk9zBs2m62pqckks/jtxuv17tu3T27Ttm++8mlrUgf3IY/7+JvOjAzfvPs2m62lpSV+UhwJAQQQQEBMAYK7mP1G1QkSuHnzpjzbYEaGpfmdJJ0mXP5KMORxt72X5VoZJptHWl1cXPzo0aMEMRs87Nzc3O7du+WWVX7H3v9hUgf3gXb3jWZXYd7S3J2lpaVjY2MGW87HEEAAAQTSQ4Dgnh79TCtNErh8+bI8n4xzudT2XpJOE65cy+/9q7vyO/ZIET30+3a7/cKFCyaxxWk3MzMz27dvl9tT9f3lcX76lcKufWGg3Te3jHzLhM1mq6+vT4FnYMWpszkMAgggkJYCBPe07HYabVTg0qVLcnDPWiH97UiyB/dBj/tS46oct28whoE/NTU1Yj2PaWpqqry8XG7p/h86kvC+4YBMP7h40V2Zu9PpdDY3N3OXqtGfTj6HAAIIpL4AwT31+5gWmiigXHHPWiEl7YM5A9Lh25UOY89jKikpGR8fN1Ev1rt6/vx5aWmpHNxrdwsQ3OWHdp2uz3w1a+nLldvtFu4XHbHuVvaPAAIIIKAIENwVChYQiCxw7do1+cGc9mXS+YOZyX9Nd6DdffMDV0mhkecx5eXlifUwpsePHxcVFcnB/fc/XZH8vaN8xXq/eoUyBVB+fv6tW7cin4tsgQACCCCQfgIE9/Trc1ochcDt27fdbrckSVar5U+/Wvmfj5L69kc5Fw553OcPvrimq33MjHBP9Lx///6aNWvk3knOKfaVpO6/MNDu/rTV/csfOeQZZiRJ2rRp0+joaBTnKR9FAAEEEEhNAYJ7avYrrYqRgBINJUkS65pu7e4XuVBjds/Pzx8ZGYmRZCx2e+vWLZfLJUmSKL8PUeL7QLv7X2dWV3x76U5ii0V66623pqenY6HEPhFAAAEExBUguIvbd1SeAIHx8fGSkhI5+Aoxb4kcDQfa3bfP6J7Wfdu2bVNTUwlQNnrItrY2+dbhL7osncdXDXoE+H2Ikt0H293XTrg2FCwNanI6nW1tbUYl+BwCCCCAQGoKENxTs19pVYwEZmZmdu3aJQf375W80vtXYaLhoMfdeXyVMmt4xIvuNpvt7NmzMWKM0W4PHjwot+v1/Iye/0nSh9oqST14QR7U9EXX0o2qRUVFPE41RqcKu0UAAQQEFSC4C9pxlJ0wgdraWiUd3moRKR0Oedz+E5ioZ/fdu3eLNaXM9PS0Mol7xbftSf7Y1ODUrqyp3b00C5DFIh08eFCsGTkT9mPJgRFAAIH0ECC4p0c/00rzBE6dOiVH3hz34niMdmEuusvR8Pc/XWFfphbanU5ndXW1cDdH3r9/Pz8/X26YWLcfKJH9szb3QLv7VstqZRagvLy8vr4+805e9oQAAgggILYAwV3s/qP6+AsoU7kL8fBU/1Ao58J/n1td9f3l8tM65ZhrW/yTmZlZUFCwZ8+eS5cuiTW0XT4HPv74Y3mmToddjJk6A7pGeTnkcf/pVyvlL1f/7abDhw97vd74n+ccEQEEEEAgCQUI7knYKZSU1AI9PT3y1CXyjJACTRYuR8PBxZndyze8uOq+ZcuWy5cv37x5c2RkZGZmJqn1wxfX0NAgfw/56mvW7r+4BkT7TYgS3Afa3f88vbr0a0sdVFpa+vjx4/Dt5h0EEEAAgTQSILinUWfTVFMEhoeHc3Nz5Yz4u5+I9JQfJRoOetx/P/biRtWcnJyrV6+agpOonUxOTm7evFnulDfKXhF3gLvcR0Me9+9/ukL+rYjL5bp27VqiYDkuAggggEBSCRDck6o7KEYAgYcPHxYUFMgZ8Zc/cgh3xX3puvvLN6quW7dO6LHUvb29OTk5kiRZLNIff+YUtFOUb1ZDHvffjmS5VvrOMpvNduLECQF+MCgRAQQQQCD2AgT32BtzhNQSePLkyfr16+XgXv2D5eJmxIF29/vVL25U3b59+5MnTwTtq7Nnz8ozuL+aZbnUKNgM7kpeVxYG2t3df3Hlf9kqn2b19fWC9gtlI4AAAgiYK0BwN9eTvaW+wKNHj9atWycnqv0/FPWKu3yj6ifn3cqNqlarpb6+XsQx7nNzc1VVVXKPlH5t2b/OiDRHpxLW/RcGFu9D+OprS8G9rq4u9X+uaCECCCCAgAYBgrsGJDZBwE/g/v37eXl5ckwUd9pBOSbKN6pu/MbSfZD/nVjG4/H4tVWMxbGxscLCQuWr1KCwt6Uq2X3I477UuOrVLN+TmKxWS1NTkxg9QZUIIIAAAjEWILjHGJjdp5xAV1eXw+GQJCkjw/LBr1eKO1RmKbsvZsSvfGnp4m5BQcGhpYewAAAeGklEQVTdu3cF6rT5+flz584pE0Gers8UvUc+a3MPtrtrdzuUm1OvX78uUI9QKgIIIIBA7AQI7rGzZc8pKOD1euvq6uSLu699wfqPplUpcH13sN19/E2nc7ncLGnnzp2iPDP18ePHhw4dys7OlksXfSJI+avUkMfd8Yes176w9FVqy5Ytz58/T8GfJZqEAAIIIKBfgOCu34xPpLGA/52p2775Su9fBXtsqjIYw39hoN3d+9cXg91tNtuxY8fm5+eTuZ9nZ2e7urrKy8utVt94EvlP5Xfs/R+K3SODi/PJvJ6fIbfI4XBcuHAhmTuC2hBAAAEE4ilAcI+nNscSXuDatWtOp1Meedz4C+GnHVTi+2C7+0aza0PBUl7Mzc29efNm0vbW0NDQ2++843a7P0/svv9mZFiOvylwjwx63J+2+p6ZqkwmY7FIb731lohPsU3aM4fCEEAAAdEFCO6i9yD1x1Xg8OHDcljMcVs6j6fCOBkluw8tzuyetWIpDJeUlHR2ds7OzsbVN9LBxsbGmpqalFtR/YP7F12LPeIR74r7QLt70OP+R9Oqqu8vV/wlSdq1a9fY2FgkEt5HAAEEEEgjAYJ7GnU2TY1SYHJycuvWrXJYLN+w7JPz4mVEJaaHXPi01V39g+XyPZGSJLlcrgMHDgwMDETpZsrHHz9+fPr06dLSUv+xMf7BfeM3lv3f/64O2a6kXTnQ7h7yuG9+4Pr9T1cokz/KD12qrq5++PChKXTsBAEEEEAgZQQI7inTlTQk5gIDAwP5+flyWHy7UuAZ3MMF2cF297UTrsK8pdsi5ZYWFhY2NTUlMESOjo6eOnWqtLRUfsSSf1j3X/7ljxyD4lxuVyL7H3/m3FCQ4f9tJCcn59ixYxMTEzE/oTkAAggggIBoAgR30XqMehMncPnyZXmAu32ZlAITQYaM74Me9x9/5szIeHHHpzygv7i4uLm5+cGDB3Hjn/7/9u4/tKrz4AP4vTfRGJOY5NZsqeIkOAnL6qIglonTYp31xWKdiPi6CvK6lm7rD9L5Oltn13fghEAa5lpkutmmJiO4EXBFSkWKiBSc7daldYkIshAmVYosSAhi495er7vNMrWpfR69ST/BP06Se7/3nM85V7735DnPGRh45513tm3bNmvWrJtX9kQiUTQuMVomguy+OjDm6C8rspV9KHVhYeGyZcvefPPNPL8y+LYdA16IAAECBIYJKO7DQHxL4IYCTU1N2TOjd01K/mFH+Sg6v3vdjn7dH3a1pt/aVTnva9duyTT0lHYqlayrq9u6devx48fjXTF5+fLl06dPt7S0rFq1qrq6eugK3GT5K19OHW6uyPOpOTOV/erfNH783Yn31PzbWfZkMjFnzpzdu3ePlok4b/gm8QsCBAgQiCmguMfUlT22BJ586qlsdxwb84Vft7j/dV9m1HXj94efdB9amquqqpYvX/7iiy92dnZevHgxyE7u6+vr7Oz89a9/vW7dupqamk89xT50fRKJxKLZ497dm78D3Ltb011XK/v//vfE2mmp3FUEiUQimUzU1dU1Njb29vYGkRRCgAABAmNYQHEfwzvXpgUW2LBhQ7Yv3lNTcGJPZVfrWLs4NVvlu1ozl0vmphIfVpFz3yaTierq6sWLF2/ZsuX3v//9e++99+GHH166dGkk6IODg/39/b29vcePH29paWloaFi4cGF1dfXQod65FxrJwvcenJCfp9uzM8a8+YuKTWsn1tx9ncq+Y8eOM2fOjATNYwgQIECAgOLuGCAwUoH169dnS+Tc2oK3x25x/+u+zIiOJ1cXj6QxZx9TWFhYVVU1Z86cFStWPPHEEzt27Ni9e/f+/fsPHDhw+PDhI0eOvPbaax0dHS0tLTt37ty6deuGDRsWL15cW1tbUVFxy2U9t3qpVD7O4J67/PTZh4efZU+lkvX19Y2NjSr7SN97HkeAAAECVwUUdwcCgZEKPProo9myWDstdfxXY/aMe3a0TPtPJw2dUzzXkke4kEwmPr4Da9GQr8LCws/f0a/76pMmJtp/OulUPk0p092Wfndv5QuPlw6bMSZb2Zubmw2MGem7zuMIECBAYIiA4j4EwyKBmwo8//zz2dHJo/dePzca1z7s59lLVD91tMx1a/Tt/+HUyXl0ZWrX1eHsHdvLH5w/vrjoEwyV/abvLb8kQIAAgREJKO4jYvIgAv/85z87Ojqy00EWFOTj2Ixh5ftzfvt+S/rB+eM/KZ55vDR7ZsEfd+fFH0C629In9lQ++/DEqZOHz4Xv8lP/hxAgQIDA5xdQ3D+/oYQvikBvb299fX22wc772ri3dlXm5wWRn7OyZ5/e3Za5i2oe1/VPVm3R7HGdr9z5C4W729IHG8uX3Tt+6NTs1dXVmzZtOnXq1BflTWI7CRAgQCCmgOIeU1f22BIYHBzMjZZJpZIb/mvCiT2VeTW0OkhlzxX37z04Oor7ym8VBdzwW4jKzi+060dlQ286W1RUtGLFiqNHj7qb0tj6b8DWECBA4E4KKO53Ut9rjzqBv/3tb3PmzMme7C0oSC67d3zH9vKTr2bmPh9js0N2taZX3zdkjPYnJ7jzbmnt/UV3EL+rNd35Svq5DRPvmvTJ7WanT5/+4osv9vX1jboj3AoTIECAQD4LKO75vHesWz4KvP7669OmTcu11+p0cu39Rbt+VHb0lxXvt2QafPZf9iLFWzh9mydP+cvL6UWzr3P/1NyG58/CHSzuXa3pv7ycmTqz5F9/nEilksuWLTt+/Hg+HrvWiQABAgRGuYDiPsp3oNW/7QJXrlw5cOBAbW3t0OZaNC7x1ampB+ePb1hT/NLTpR3by9/8RcWJPZWdr2TOxOfa/Km2zBTp+d/ps7PKDB34MXRj8235ThX3bGv/4XeKi/71Aae4uHjTpk3nzp277UelFyRAgACBL4SA4v6F2M02MrhAZ2fn+vXrKyoq/rPFFhQkK0oTNXenZs8s+Pbc8WvvL3pydfH//U/JS0+X/va5SQcby4+9VPH2nsqTr2ZKfLbTZ9t8npxrz87j/ruffa553BOJzDzuZWVlVVVV06dPnzVr1rx58xZd/Zo/f359ff2MGTOqqqpKSko+/+Tuy+4d/37L7b449eOhRO+3pBvWfNLaKyoqmpubBwYGgh9sAgkQIECAQFZAcXckELhFgYGBgcOHD2/cuHHGjBmFhYX/2eCH/aSgIFkyIfGliuRXp6bmfW3cg/PHP/ZQ8fZHSl5+puyNpvK391RmG3N3HgyXP9WWfvbhidlJ64dtxXW/TaWSZWVlNTU1CxYsWLdu3ZYtW3bt2tXR0XH06NGTJ0/29PR88MEHFy5cuHj1q6+v7/z58z09PSdPnjxy5Eh7e3tjY+MPfvCDFStWzJ07d9q0aWVlZSPxzK3JHZkOsqs1vf2RktwImaqqqpaWlo8++ugWDyZPI0CAAAECIxBQ3EeA5CEEbizw0UcfnTlzpr29vaGhYfHixTU1NZ+pdyaTieKixNTJqbm1BWvvL9r+SEnH9vLsrOR36oLXrtb023sqv/n1m30UKSoqqqqqmjVr1qpVq5555pl9+/YdO3asp6enr6/vlidRGRgYuHDhwunTp48dO7Z///7m5ubNmzdv2LBh+fLl2ZP0tbW1M2fOrLn6NXPmzOrq6mx3v/33w+puS+/6UdmXKq5djVpRUdHS0nLlypUbHyZ+Q4AAAQIEAggo7gEQRRDICly8ePHMmTPHjh3bt2/f9u3bH3300eXLl8+bN2/kw0KSyURFaWJubcFjDxW//EzZ8V9Vdrelu9tu6ziQU23pl54uzd71M5lMlJSUpNPpKVOm1NXVLV68eOPGjTt27Ojo6Pjzn/987ty5S5cuRd37g4ODAwMDFy9ePH/+fG9vb09Pz5mrX729ve3t7cXFxYlEIpVKbn+k5LbNy3mqLb3vJ5O+8uVrt1gqLi5uampyrj3qYSCcAAECBLICirsjgUBEgUuXLl24cKG3t7ezs/Pw4cPt7e1NTU0NDQ1r1qyZP3/+jBkzKioqbjQspGRCYvbMgk1rJx5szMw4eXvqe1dr+vivKhd849rllnV1da+//vo777xz+vTpDz74oL+/P3/OK58/fz43NeeCb4x7e8/tuHlqd1v6t89N+urUa629sLBw06ZNxrVHfAuJJkCAAIEhAor7EAyLBG6XwOXLl/v6+np6eo4fP97e3v7888+vWrWqrq6urKwsN3Q7tzB1cmr9AxOyE8ZHre9dremTr2YmN8ze+7OwsHDnzp23i+Qzv86VK1dy98MqGpd44fHS2Cfdu1vTLz9TVnP3tdaeSiU3btx44cKFz7zqnkCAAAECBG5JQHG/JTZPIhBa4NKlS2fPnj1y5EhjY+Py5cunTJmSK+7Zhep05l6tHdvLs7PFB7/lUDZw+yMlkyZee+UlS5acP38+9IaGzOvq6poxY0Z2dWfPLDj6y4ru1ijDirI4LzxeOnXytdaeTCbWrVuX5z4hrWURIECAQB4IKO55sBOsAoF/FxgYGHjvvfeam5sXLVpUUlIytMF/qSJzv6d9P5n0p99UZmeFDzKJZHdb5kZCz22YWFF67dWmT59+7Nixf1+vvPvuypUrP//5z7NjjVKp5PcenBBjXsjutvSfflP54+9+gpNKJdetW2e+9rw7IKwQAQIExrqA4j7W97DtG80C//jHP1577bU1a9YMG0IzaWJi0exx2x8pOdx87Xatt3ymubs1M538G03la+8vyl6Qmkgkqqqq2tvb82c4+0324dmzZxcsWJD9tDFpYmbAzC1TXPcj0Km29MfIq+8ryt1lqbCw8LHHHnOu/SY7xa8IECBAIJKA4h4JViyBYAIDAwMHDx5cuXLlsPqeSiVr7k6tvq/ohcdL32gqf3dvZgqazGn4T5sJvqs185hTbZlbCL3RVL5p7cTcuO1EIlFdXb1v375bntUx2GaPOOjQoUNVVVXZ7l6dTu7eXBbkSoDutnTnK+mdT5XeU1OQ+6NHWVnZtm3b+vr6Rrx2HkiAAAECBIIJKO7BKAURiCrQ399/6NCh9evX5+Yvz7XJgoLk1MmpRbPH/fA7xS89XfqHHeVv7ap8d+/Vm7NeLejZ+7NmJ4bvfCUzb8wfdpQ3fr9k9X1FUyenht5oqa6u7sCBA6PiXHtOe3BwsLm5OTs1ZCKRmRR/51Olf92XvuXLALK9/+PLCVbfV5S7xVIikZg+ffrevXtjz4CZ2y4LBAgQIEBgmIDiPgzEtwTyWuDSpUsnTpzYunVrfX19UVFRrrvnFgoKkndNStZOSy34xriV3yra8F8Tnlxd3LAm8++xh4rX3l/07bnj76kpuGtSMpW6dv+g7HNLSkrWr19/8uTJvN7+G6xcf3//li1bchNrVpQmGtYUH/9V5jKAkdf3rtbMXyFOvpo+2Fj+2EPFuetQs1PFL1my5K233rrB6/sxAQIECBC4HQKK++1Q9hoEggucPXu2o6Nj48aNdXV1uZPNufr+mRbKysqWL1/e0dHR398ffD1vW2BfX9/mzZtzH2YKCpLf/HrhS0+XntiTqe83avCZUUNX+3p3a/qPuytffqZs/QMThlb27Nihbdu2GdR+23alFyJAgACBGwko7jeS8XMCo0BgcHCwt7f34MGDW7duXbp06fTp04fNQnOTBl9WVlZfX//kU08dOnTo4sWLo2BrP20VBwYGmpqacuPdE4lEcVHim18vfPbhib/72aS3dlX+5eXMZJHZm9F2tWaG+J/YU/lGU/nuzWU//E7x3NqCoQNjEonMXWNXrVp19OjRUTTi/9OQ/J4AAQIERrGA4j6Kd55VJzBUoL+//8yZM4cPH961a9fmzZvXrl27ZMmSefPmzZo1q7a29uPB63PmzFm4cOHKlSsbGhp27dp19OjRsTeh4eDg4KFDhxYuXDhsIFBFaaJ2Wurbc8evvq9o/QMT1j8wYe39RcvuHT97ZsHUyancjDG5zznFxcVLly7dv3//2PhIM/Q4sUyAAAECo1dAcR+9+86aE7iZwODgYH9//4ULF86dO/f3v//97NmzH3744cWLFy9fvnyzp42J3507d66pqWnWrFm5Ue+5Rv6pC1OmTFm7du2BAwdMHTMmjgUbQYAAgTEloLiPqd1pYwgQyAn09PTs3r17xYoV06ZNy419v25xLy4urqmpWbFiRXNzc2dnp3ljcoYWCBAgQCCvBBT3vNodVoYAgcAC/f39nZ2de/fufeKJJ5YuXVpfX19TUzNt2rS6urr58+evXr1627Zt+/fv7+rqGhgYCPza4ggQIECAQFABxT0opzACBAgQIECAAAECcQQU9ziuUgkQIECAAAECBAgEFVDcg3IKI0CAAAECBAgQIBBHQHGP4yqVAAECBAgQIECAQFABxT0opzACBAgQIECAAAECcQQU9ziuUgkQIECAAAECBAgEFVDcg3IKI0CAAAECBAgQIBBHQHGP4yqVAAECBAgQIECAQFABxT0opzACBAgQIECAAAECcQQU9ziuUgkQIECAAAECBAgEFVDcg3IKI0CAAAECBAgQIBBHQHGP4yqVAAECBAgQIECAQFABxT0opzACBAgQIECAAAECcQQU9ziuUgkQIECAAAECBAgEFVDcg3IKI0CAAAECBAgQIBBHQHGP4yqVAAECBAgQIECAQFABxT0opzACBAgQIECAAAECcQQU9ziuUgkQIECAAAECBAgEFVDcg3IKI0CAAAECBAgQIBBHQHGP4yqVAAECBAgQIECAQFABxT0opzACBAgQIECAAAECcQQU9ziuUgkQIECAAAECBAgEFVDcg3IKI0CAAAECBAgQIBBHQHGP4yqVAAECBAgQIECAQFABxT0opzACBAgQIECAAAECcQQU9ziuUgkQIECAAAECBAgEFVDcg3IKI0CAAAECBAgQIBBHQHGP4yqVAAECBAgQIECAQFABxT0opzACBAgQIECAAAECcQQU9ziuUgkQIECAAAECBAgEFVDcg3IKI0CAAAECBAgQIBBHQHGP4yqVAAECBAgQIECAQFABxT0opzACBAgQIECAAAECcQQU9ziuUgkQIECAAAECBAgEFVDcg3IKI0CAAAECBAgQIBBHQHGP4yqVAAECBAgQIECAQFABxT0opzACBAgQIECAAAECcQQU9ziuUgkQIECAAAECBAgEFVDcg3IKI0CAAAECBAgQIBBHQHGP4yqVAAECBAgQIECAQFABxT0opzACBAgQIECAAAECcQQU9ziuUgkQIECAAAECBAgEFVDcg3IKI0CAAAECBAgQIBBHQHGP4yqVAAECBAgQIECAQFABxT0opzACBAgQIECAAAECcQQU9ziuUgkQIECAAAECBAgEFVDcg3IKI0CAAAECBAgQIBBHQHGP4yqVAAECBAgQIECAQFABxT0opzACBAgQIECAAAECcQQU9ziuUgkQIECAAAECBAgEFVDcg3IKI0CAAAECBAgQIBBHQHGP4yqVAAECBAgQIECAQFABxT0opzACBAgQIECAAAECcQQU9ziuUgkQIECAAAECBAgEFVDcg3IKI0CAAAECBAgQIBBHQHGP4yqVAAECBAgQIECAQFABxT0opzACBAgQIECAAAECcQQU9ziuUgkQIECAAAECBAgEFVDcg3IKI0CAAAECBAgQIBBHQHGP4yqVAAECBAgQIECAQFABxT0opzACBAgQIECAAAECcQQU9ziuUgkQIECAAAECBAgEFVDcg3IKI0CAAAECBAgQIBBHQHGP4yqVAAECBAgQIECAQFABxT0opzACBAgQIECAAAECcQQU9ziuUgkQIECAAAECBAgEFVDcg3IKI0CAAAECBAgQIBBHQHGP4yqVAAECBAgQIECAQFABxT0opzACBAgQIECAAAECcQQU9ziuUgkQIECAAAECBAgEFVDcg3IKI0CAAAECBAgQIBBHQHGP4yqVAAECBAgQIECAQFABxT0opzACBAgQIECAAAECcQQU9ziuUgkQIECAAAECBAgEFVDcg3IKI0CAAAECBAgQIBBHQHGP4yqVAAECBAgQIECAQFABxT0opzACBAgQIECAAAECcQQU9ziuUgkQIECAAAECBAgEFVDcg3IKI0CAAAECBAgQIBBHQHGP4yqVAAECBAgQIECAQFABxT0opzACBAgQIECAAAECcQQU9ziuUgkQIECAAAECBAgEFVDcg3IKI0CAAAECBAgQIBBHQHGP4yqVAAECBAgQIECAQFABxT0opzACBAgQIECAAAECcQQU9ziuUgkQIECAAAECBAgEFVDcg3IKI0CAAAECBAgQIBBHQHGP4yqVAAECBAgQIECAQFABxT0opzACBAgQIECAAAECcQQU9ziuUgkQIECAAAECBAgEFVDcg3IKI0CAAAECBAgQIBBHQHGP4yqVAAECBAgQIECAQFABxT0opzACBAgQIECAAAECcQQU9ziuUgkQIECAAAECBAgEFVDcg3IKI0CAAAECBAgQIBBHQHGP4yqVAAECBAgQIECAQFABxT0opzACBAgQIECAAAECcQQU9ziuUgkQIECAAAECBAgEFVDcg3IKI0CAAAECBAgQIBBHQHGP4yqVAAECBAgQIECAQFABxT0opzACBAgQIECAAAECcQQU9ziuUgkQIECAAAECBAgEFVDcg3IKI0CAAAECBAgQIBBHQHGP4yqVAAECBAgQIECAQFABxT0opzACBAgQIECAAAECcQQU9ziuUgkQIECAAAECBAgEFVDcg3IKI0CAAAECBAgQIBBHQHGP4yqVAAECBAgQIECAQFABxT0opzACBAgQIECAAAECcQQU9ziuUgkQIECAAAECBAgEFVDcg3IKI0CAAAECBAgQIBBHQHGP4yqVAAECBAgQIECAQFABxT0opzACBAgQIECAAAECcQQU9ziuUgkQIECAAAECBAgEFVDcg3IKI0CAAAECBAgQIBBHQHGP4yqVAAECBAgQIECAQFABxT0opzACBAgQIECAAAECcQQU9ziuUgkQIECAAAECBAgEFVDcg3IKI0CAAAECBAgQIBBHQHGP4yqVAAECBAgQIECAQFABxT0opzACBAgQIECAAAECcQQU9ziuUgkQIECAAAECBAgEFVDcg3IKI0CAAAECBAgQIBBHQHGP4yqVAAECBAgQIECAQFABxT0opzACBAgQIECAAAECcQQU9ziuUgkQIECAAAECBAgEFVDcg3IKI0CAAAECBAgQIBBHQHGP4yqVAAECBAgQIECAQFABxT0opzACBAgQIECAAAECcQQU9ziuUgkQIECAAAECBAgEFVDcg3IKI0CAAAECBAgQIBBHQHGP4yqVAAECBAgQIECAQFABxT0opzACBAgQIECAAAECcQQU9ziuUgkQIECAAAECBAgEFVDcg3IKI0CAAAECBAgQIBBHQHGP4yqVAAECBAgQIECAQFABxT0opzACBAgQIECAAAECcQQU9ziuUgkQIECAAAECBAgEFVDcg3IKI0CAAAECBAgQIBBHQHGP4yqVAAECBAgQIECAQFABxT0opzACBAgQIECAAAECcQQU9ziuUgkQIECAAAECBAgEFVDcg3IKI0CAAAECBAgQIBBHQHGP4yqVAAECBAgQIECAQFABxT0opzACBAgQIECAAAECcQQU9ziuUgkQIECAAAECBAgEFVDcg3IKI0CAAAECBAgQIBBHQHGP4yqVAAECBAgQIECAQFABxT0opzACBAgQIECAAAECcQQU9ziuUgkQIECAAAECBAgEFVDcg3IKI0CAAAECBAgQIBBHQHGP4yqVAAECBAgQIECAQFABxT0opzACBAgQIECAAAECcQQU9ziuUgkQIECAAAECBAgEFVDcg3IKI0CAAAECBAgQIBBHQHGP4yqVAAECBAgQIECAQFABxT0opzACBAgQIECAAAECcQQU9ziuUgkQIECAAAECBAgEFVDcg3IKI0CAAAECBAgQIBBHQHGP4yqVAAECBAgQIECAQFABxT0opzACBAgQIECAAAECcQQU9ziuUgkQIECAAAECBAgEFVDcg3IKI0CAAAECBAgQIBBHQHGP4yqVAAECBAgQIECAQFABxT0opzACBAgQIECAAAECcQQU9ziuUgkQIECAAAECBAgEFVDcg3IKI0CAAAECBAgQIBBHQHGP4yqVAAECBAgQIECAQFABxT0opzACBAgQIECAAAECcQQU9ziuUgkQIECAAAECBAgEFVDcg3IKI0CAAAECBAgQIBBHQHGP4yqVAAECBAgQIECAQFABxT0opzACBAgQIECAAAECcQQU9ziuUgkQIECAAAECBAgEFfh/VSQlcBDwCkYAAAAASUVORK5CYII=;imageBorder=default;" vertex="1" parent="1">
          <mxGeometry x="310" y="570" width="100" height="60" as="geometry" />
        </mxCell>
        <mxCell id="E9rDun7O-10vDkbBBoyJ-12" value="Ansible" style="shape=rect;fillColor=#EE5396;aspect=fixed;resizable=0;labelPosition=center;verticalLabelPosition=bottom;align=center;verticalAlign=top;strokeColor=none;fontSize=14;" vertex="1" parent="1">
          <mxGeometry x="326" y="476" width="48" height="48" as="geometry" />
        </mxCell>
        <mxCell id="E9rDun7O-10vDkbBBoyJ-13" value="" style="fillColor=#ffffff;strokeColor=none;dashed=0;outlineConnect=0;html=1;labelPosition=center;verticalLabelPosition=bottom;verticalAlign=top;part=1;movable=0;resizable=0;rotatable=0;shape=mxgraph.ibm_cloud.logo--ansible-community" vertex="1" parent="E9rDun7O-10vDkbBBoyJ-12">
          <mxGeometry width="24" height="24" relative="1" as="geometry">
            <mxPoint x="12" y="12" as="offset" />
          </mxGeometry>
        </mxCell>
        <mxCell id="E9rDun7O-10vDkbBBoyJ-4" value="" style="sketch=0;pointerEvents=1;shadow=0;dashed=0;html=1;strokeColor=default;fillColor=#505050;labelPosition=center;verticalLabelPosition=bottom;verticalAlign=top;outlineConnect=0;align=center;shape=mxgraph.office.devices.workstation_pc;gradientColor=default;" vertex="1" parent="1">
          <mxGeometry x="60" y="585" width="90" height="100" as="geometry" />
        </mxCell>
        <mxCell id="E9rDun7O-10vDkbBBoyJ-14" value="" style="shape=image;verticalLabelPosition=bottom;labelBackgroundColor=default;verticalAlign=top;aspect=fixed;imageAspect=0;image=data:image/png,iVBORw0KGgoAAAANSUhEUgAAAJAAAACpCAYAAADEM7TdAAAAAXNSR0IArs4c6QAAAARnQU1BAACxjwv8YQUAAAAJcEhZcwAADsMAAA7DAcdvqGQAAG6/SURBVHhe7P158GTHdd+Jfk5m3ntr+W29AugFaDR2AiBIkOACUlwkkbR2WTNjy7bs0Rsv4ecX88byPxOOeC/Gfm8sjyNshRUTIY0syZYtWU+WZJkyRVniIos7KZKAAALEjgbQAHrv31pVd8nM8/7Ie+tXv1//ugE00AQg6/w6u6puVd26N/ObJ885eRbp/dTXlD+nP6fLJLP9wBuPpL1M0z4XALRtAKKCUbBtM6qgigJRhGgsEUHFwGxrzycYRAzanV9k6+dk83ele3vmqowqtm0CRCzaXm/6a69eNbWZu6O9j6ht667zgk+9MekNDyDBYSRHJAMcEUNQ8KoEgWjAekPeGPpeGYSK3I8RP6bxDbWx1PkctRiCtWiWI64AcahaRB1WMjLJCSpEMWAyjMsxLkdsBsYRxYIIzkQyiWQSyLQhDw1FqOn5il5TIgFq6eElB7FYUXICWazJQoX1EyRUGPUYEtB9VGqv1AFqHN4UqLw5ACRv+CVMW86gEDUSNKIaMcbgnMNljobU4RkRpwEJHg2eECIxgiL0zQZiFMSgaokRQoTQcQoxiG1/sx07ablRx3W8Gsax414OjAPJwOQgDsQgzTLz1SmINRIDiBBtj8oNqc0cUIBfwekEawzWWay1iAgxRrwPhBAwxr4peNAbHkCxZfliEohCUEKMgCFzDuccsYgEFO+F6A0Eg4kGp+BUMRrZkAACxiiFg9xErHqIFdrURF9RTsbEGIkxEkIAQEQwxmDEYNWT+xFqM4LrEbI+MZ8juCHRFWBzBk4YiKfxkdIrXtOSJCIQI8RI3u+BCHVVEuoKIZAbIbMGQ0AUGsmJ2zvjDUhveAApCgactRgMIUR8HYkKRoTMZliW8eqpKAj0wfZxpsCJYGPA+Jqm1yfWY+JkGR2dxoxOI+NTxI3T+I3zUK7SWzvegqcD0FTKSmKQJnkmik3cpz9E+vPY/hDTGyBZQb5wALN4PXWxi7J/FVrsApeTUTOIG/TjmBXmKSkgeNCIiFI4IRNFiBADDdn019/I9IYHEO2KYY1B1KAhEn1EtQWVyQj1iKARjMM4i7OC0RrKVfzGOcJklfz8c9TrK0zWzqIbZ6FahmYd49cRP4bQEH1ImOnWDgXVVlxX2vP3UBQlIgaMlVbWTiAzdoDke9HhPthzPXHpWuJwPzJYougPyYo+pVukMQXGdCK2gkY0Kkj6PfPGHpUpveEBJNYmUT+kDhaNiEJmDM5ZrHWMwoDoI8avY+tzmMkJWD+OX3mO6vxxmvE5ls4dJ9Y14ybgo4B1kPXA5uAyyPuw7y1gDFgL1mJM0jFUFVXFCGSiaKiJ9YRQb6DlOlQbUI/BV1CNoRyTm0i/cNi8T1MsMRoeIu65GXYdpr/nMPn8LlzeR7Ie3mQ00VKrIeDAWDKtEX3jL2JvAgDlSc31DRoCRiKZASuCECBGmpARJ+vo6vPo+ScJZ58grD2Hjs5CtQahATLIhtBfROb3ocP9MLcP+ruhmAM3hIW9CUDGYpzFmk6FJ5kFREBs4lb1hFiNoFyHetQCqIbRKqyfQDZOUqwfx41OEWpPaTJ07moY7IPFA9j5fQyW9lLsugazeDWhv5vaLVCZHkFyXCgRTXLYG5ne8ADC9FA1xNBg1OOs4kxEfclkvEYzHmPPPIhdeY64+iJx+QRx4xw0HnoLML8fM9xD3HsDDBdhuItsbjfS3wW9RTSbg2wAxqJ+HRJWpnYkWkEaIBqL2l5acmJAYsREj4kRowFRJdQjmvEKTFZh/TSsn8Ssv4hZf5G4dpI4XoYmQNaHuf2Y3Ycxe6/H7rsRs+cIzF+NFvMJjPHPAXRJ0tbMZiUZ2HwELwaMwRFx2qDkRCyiHmvAGkWbDcpzx6lOPg4rL8Lxz8HGSQgKrge9fbB4GLPn5jQwc1fTXHMYkxWJq2BQTUoRCkYsYgzRpqUqxkAMSWPaIhPBJkeCZIBs/980GjZEDckOZDLQgFQruHNPwKmHiGePUaw8S1w/SzmeQACKJdhzHVx9K+bQWxjuP0KTLYIrwGZEkoovGrBEHAmsjbYCokmmCEVmxH5SD1/hZfB1BVAkw4ihT4WNFSNvmMgQ8oKckkFYBXFEtUioQRtitUZ58mmaY1/BHf8yc2snGeU5TW8vzB+Gq2+HQ3fCNbci89egtp+A5dfhVSrGQivjXoIU4CUGrVg9hn/+QfzxB+HM4xTVGXxVETSHfUcZHroZf+37MXuPIvNXUWdzeB/Bl/Sp6FFh1bPWOMTlGJehpgWaJoFfRBAUE+rtP/+a0usKIGMLjIKpVnCxRLM+Y7dAFSzgKWyAqEk7mpwnnHqE+MyXkOe+jq6fBtuH3m44fAfZ1UcZ7DuC7DlEU+xhQo+IwxUFRZ4zHq23GtXl02sFIM0WEqgnp8hWnkZOPkTz3H3oCw+R18u4CObQHdjDd2OvvZu471aa3m6COAQhiqVRQaoR1kBmBdNur8SWs8Z2ulzprYbXFUCoYGLAxZLcKmR9xlIwrpM6O8wNdrLM2vOPwVNfhxe+SbH+GFldsWF7cN2H4bbvhQM3k8/twvQGqC1oAsSmAt+Qm0BuYRzsq+Q/ryGAXB/yIWIz1Fewfho59wTuhftonv4SnHqSXrOOyXKyA7firn83/uA7qffcRtnbh0aBugYTAE+PhgKPJaACQS21WiJmqkleKXp9ARQCEgMmL4i2IIjFWqHQEXbjFGH1RdYf/zrh+QfprR2D9TP4vE+89l0M3vEXqQ+8k1oWYDiXBq1qwPs0ygbQCttMiH6CFotb5JfLodcKQL36HCYGKreIt3NgeuCgCBv4s08TTh6Db/4mLD9OTyfIYJH60LsIN34EDt6FKxawcUJVXA2xQbSkpyUZERGDF0eDJYi54ubI1xVAjogRGJshXgZgLfN2zPz6kzRPf4mVx/+E5uTjyGQFbI7bfwO9Wz9MfeT9VHPXJSHVxFZtohvi6Xa5xAYNDcQmWY5fJb1WACIGJFkhiYllgCjOKE5r1Ffo8w8STjxEeP4BOP9s+vVdh8mvfTv9w3eR7zvE2fnbEVFMqLCxTpqjCkEMQRwg9LTa/uuvKb2+ABJFjDA2Q4IpcGFMfv5RwtNfpHryy3DuaQgR2Xcj5ob3E659L+y6HnrzZC7g6jXq0TKSDRHXSxulxqBYophW5mmFA193w3vZ9FoBSE0/SSdaY0OFjSUGTS4g1hHFkfsx9Xid5sxzcPw+5Lkvka88TTZcoj74TuL176N/9L1IMQBX4E1OE4UmtFZzkl5WXGEAWffev/2Pth/8TlFQwUdw2tAvz5Cfup/Jw5+iefJrsH4OhruRI+9Ebvww8cgH4Jq3JeOfNthqmV4cUWQGcX0UIYRADIEYk5tE0mXTJuxLDerLoZa/vQx6CZSFAL6EmNw6nDG4rICsRyMOHwyNOmJvFywcwMzvocgs0oyoNlbwG6vEtfNkmWKbDaw1YHsE20veBTFgacjx23/5NafXF0AYfFTy6hzu5APER34ffepzhNEZ2Hsd5ob3Ijd9Lxy4EynmUK3Bj4FIzAqC69GYnFIzgjhUbHKDMCYNYoygIRnkXt7IX5JeMwD5Egi4rMDkfbwpaMQStQVXrIAcNOJMoDcYwtIBqvmDRDLYOEHvzENMJiOkKTGugN4C0fWJClZrelpS0ODl1S/dl6IrBqBk9ReCWKI4xBicKCZGBEFtho8RXXuR4vmvkD3+e4RjX2XSBDh8N/ntH8MceRd+941QzJPhMX5E9DUYC/kcURyx9klfTTuZyfXCkOSBSDuYacvy1TZ46SVs05R3CdKIMQ6bJUNhUNAmoL7BqicjECQDGkTrZEwc7EIXrkb7i6CB6Mfo2WfxVUmtgnE5WeaSW4gotG4kTmit5BFtTQAqFhFav0ltPTEvj64cgEySW0NrjxDACNhuEFTRtRPo05/HPPoHuOP3I85SHX4/vP2vEG74LkJ/D2AQlCiWaAvEZcnm6kvEV639tbV6aEBjIMaYhlGYCtSdk+il2ssZ+/RbevGmvOSJrNh0VyGAbzDBY4iYdq9NJSPiwQpqMgJCJFBYxfX7+OFV6PxRzMZxdLIGa2fRaoXCRPLeAM3maeyAWh25NEj0CXQYgslQ4zACTj1GI0EuX9W/cgACDIE8Vth6TB0i3g0x2QDXjGH5GeTZL+Of/Dz+/CnKwV7kpg/h7vgL6DV3oPkQ/KZT16ulV3+GRC+Lw7wEzXK0i1HU0HlSJ3kuRIiKFUueFzBYwC4dIDYbyLnH4ewxgvdU/X00w6swvTmMKA2WSLIJKSa5xogkjhSVoLRbIZdHVw5AAlY94ktiqAlSYNulSM49SfXkF/GPfop4+lFYOAQ3fy/c9cPoNXfh83nQpObyGg7aa0Gv1bW85PXEgDWCs266d5fG2pEXQ4rBIrLrMP3cEFZeQNZP4pdPEX1DPlxMG8m9RSrpEYxrl6nk7u8kcdFahYBgzUtezUXpigIIlHFw1GaOrD9gTibkZx+jfPyPqR77PHr+WWRxP9z2EbjzB4n77kiCZFOmHnZ9QF8Tt4bL76Kt9J0CkGjAiiWzFuccBoOqENUQNMmVmfX4wV7M/pupRhWsHidffpxscoZsfg/jYg+2mEv+TmIhBlxscCTuVqshYnCvwnvtigHICCCO2u6GwVXk1jM4dR/+W/+Z9Uc/D6un4Oobyd72g+jR98OumyEKNGssSHI4bzSDGJPfz6uklxqwl0vfOQBpu3S3CoAIGgUfIjEKPihanibsvpFqcAR2H4DxGezZp7DrLzJaPYvNMnpLV+GsQ40jhoAJVdrNNxYvOVEsTi6/f68YgJJWlOGz+eRht/wo+vAnKR/7Y/xoGXZfB2/5XvSW70HnDoEUECfMyxgXK7wavO040Ku3Z7zUgL1c+k4BKCKEGAkxJOVAI0pMu+0IWEuwhjhuoOhDljGcmycolCtn0NEp7OrzFEvXIMYQ3BCvBmm1PDGGKGlps69igl4xAKV5Y7BaY1efRh//LJNH/xi/fhb2HcXd9mHMDe8jLhxKLDY2QIMzhtorVTBkWYERRf8bXMICJil1GjESMURUA0pI5orMpQBEP4ZqmbzIkMFumv4eVBysvUgxOolXg3F9/Nw+oh0ASiZJ44uS7sa8inu6fPH7JUgRJAbmJicYvvA1msc/j668CPP7KY6+h/ym78LsOYI1itUS6nWoa8ZmQJXvQaUg1pPkZ/zfJBmwJgUJtIECVkKaaLHGECBU5K5mYCdIs0HthpgDd1Lc/H7sobcy0Qz/3DeoTz2BjtcAUJPi2URSRO2rdTi7LA6kCE0wWCIS6oRgm6Vd4NYJJbeKK88hy88yeugP4cX70KwHt36McPP34ncfQaxLMk4b1oskh/I2hgYh2XO62IWLNXY4dkF7yUm2uYd0cXo5JjdNA7P997ddywXHtrUoESQiRhGBKEpUIRqZsbQHMgERR4iWqAYxFpP30cE+YrFA/uxXoNlA8x5xsAcphhQEjC+pAzTqcK+CjVz2V6NYNEYkNklLEsG38eUqYLTBr7zI+NjXaV74U4Jv4Lq74ch7YM9R1Dqib4hRCGoQlyOZRbRBYoWYiNp2Z72Ndb9YE22Fzku0TReri7SX85k2oOdSfy8HHLK9M3cgIx4jyQzrNdIoBGMQ61KQJRErBq8ZtRaoZEj0aFPh7QC95k7czR/G7tpNs/wM/pFPwfNfx1XnCQgNaYsjexUaGJcLIBHS5p6QLKfG4bUdaFFsbGhGK4xOHqN84gv0x6fhqluxt/0F2HcTOJO2Jl56yr/pSJPgcun2Mj6TrPWXbtuBmPj0zOvBEnr7DxMHB+HMM2TH/pjemUfwUZnkS5isoG9enXx5eQACCisYA9K6HwQVRIRMAqZaYXLqCXjmm7ByDJtblu76XsLBdyWjoQrG11gu7JTt7dW6ob4etMNtbG26w7FtbTugdmy0vs+tuo9stdprb4lw2w/BoXdibKT//Fdwz34J3ThNMD2C2OQR+SrosgAEILROUTZlrogImVH6cQzLz8Oz98GJbyDD3cgtH6F3w7uhtwjqIFpCTLHi25eA7X+8rL5M0RSXan/WKeEmgWczDKmgWrwZbvkQbu9RzLgkHvsyvHA/TM5QNZ6xj1tP9Arp8gCkSvRN2lUXSyBll8i1xk3OEk5+G45/k144gx66B733b7Fq95IzSfFSrg+mwLd7XX/m6EKEb20X8JudWxeoc/HWqReJtoNIUWgi2cG7KN7yEZqFPUzOHCc++ceYF++DMCFkw83rvgy6LAApEHxMxi6S4Gw0wGSZcPqJ5Ia58hwsXAVH72V9911M3Dw6XsbYCskswWQE7PY+u6C9XA7zUu07RnrBLVxWS4rBpVtHs0DaAqIYoFwj2CH11e+iOfJdaH+ReOJBzNOfp5icoNcvNk90GXRZAOooRMWH5JZqYkN5/gRrz30bOf0Yed9R3/aDuGtugMkYeos05PRFySbn0dqDeXUX/986bco/24+n96woVitiOaLq70Ov/wAcfBsSPfHEt9CT38KWy9u//orosgGkkoLYYiQlZ9KAXzuLnj0O6yfIe0PiDR+hVxQMszH4CPPXUJZj4trpFK9usu2n/XNqaTsH3altp+1aGK3fOc0YyXrIVbdgrrkdUwyJ6yeoX3iEavmF7V95RXSZABK8Cv36PAtZIJicev08PPcVOP0AunQt49t+DBYPU7s9+GCgGYOfoKYgFvNptzWOkLCRdt8DoAVoDxrL1J03KoQUAmVCxIRApkLhCqzrQcygMRAclowMSxaULARyIBeDw6CkCNeolkiG4tCgqK+xvqKg2WEh2dqEWdtSnLYucdTUhRZSpKgURHKi5FiX07PQ0zGqNUE9IVao1jgJWPForAmxQYFghgT6GLX0EeYk0vcVppwgPpLb5L4aVdMy315hZ2kSDIjFW8egn6E01MUu8uvfCVfflsxaL3yL5pmv431DzAfUTY0rz+BiTSnzlHaBQiuKONky+rN0WQBSFI2KdVlKuVJtwKnH4NRjZGGC7L8ZDr8LazOCKfBRMNpgfIlai7re1BiWEl9K8lv2DZlAf5BTFIINdQJanhGdEE1ATY2YMRJXoD4L/gyE85i4jNNVnGyALWlMQ42nNop3KaNGRqCQSIEnU09mILcZYhxNvHD27kRpeDYFHd0mIHeJMo2ASACfFIem3EgDhcUQQSsIE6QZIc0aptnA+Qm51hR4TLNGFkbkxmNNAFGic8Sij7c9JjHFy6u2+qrqlsCBTouNBiIRok+OY3P7sFfdBnNXw+gcnHqUuPw8+IZocqxts5IYC2KIwafvXoQuaytDFGJssL15qqCw8gzxsc/AqQdxw11wwweQ694DNi1RHbPV2ReQfFRMBljQSCGBvgmp02JN9CWhBRp+nJzNJRDF432Dqm/9ZJNnbyAQ20ZsINTp5p2B8Tq5BHomkkuD0QaNkYAluAK1Rbuhe3Gagmf22HQp6ThVigKR2GD9CONHGG3InCFKGzEaBTS5r5rW6zCqIarFB8F7RZsVrGmSX7m1lFgqsW0GVwX1SOsYBmm7o7uO7rkAaKCpKzBCYYWoARGLH6/ByvNYP4H+LuziVehwb0ouagQvktx3fUVUMx3L7XRZHAiAUFNl8ykO6+S3kBe/SebHmH03EA/chR/sm3ZpUl23gkfpAFSAteSZSbHwYUw1WaesagIOFyKmmkBVQdVgG0VqgdqC74HOQ5wHP4AqQyuDq8HVEWqPaRp6dQ1YGh/xTUX0FSbWiDZE9W0sub1Ay9neZjnNdPki7dltAkiBkJJQBY8AWZalbGoaoKmgbpJMGIUYwTeR4GNiIAEoG3A5jcmYRMMkGryaxGH8GJoVjF9Ov7/dRKCKTo+ntDOElHw0DyWenGbvLXDNXdBfIlt7DvPCNzArx8FkTLIlGrX04oSelgRb0Nje5sBto8viQADEBt/fRVaeo3nwP1G8+HWywTzc+GGaIx+AbBcSxtOPz8p8WwRAAWfBSST6miYqDQWN9JOsohlFdGQRhiLszS2HBwXXLQ44stjjunnH9XMF180XHBrm7MstgwjGg4QMoYfQx2d91GY0UfHBowrWOazN8CFAOUHsSy9jWzlOR5vPcwkpHksMwRREyfHREkJNFkYMdMyeXs2BIRyeF66bFw7PC0cWM67fXXBwwbFvqLi8RwiRpqxT5KppAe4rcl/RIxCmA9tt8rbcqL1GIYU2RbVkEnF4KjMkZLsgerLVY2TnnkRCg+y6lrD7RjSbR+sxvTjGilKbHiqWi2UWuOzIVIkNMlgkHPsK1Wd/huzMo+Q3voNwz/9EefgDEDNMWIVLgUcj1ijOprW2aRoQi+QDNDqoAhhlMVf25JFDc8pNexxvuWaBmw/Ms2/ocAQKm6MmZ7UMPHt2g4deOM/DJzZ4+nzgxBhWm7RhS54hFrSZQFNijOCcbdPrRmze37y2HUm3eUe2tnLtHqEnNZkGRprjY558u2lYzCuODBJw7rymz9Grlti7e5E9C/MMegXOOryPrK5PWN1Y56vPrPL48+c5fnaD5QrG9BgFx7iOYCxFf0AIkyl0BUBm9LB2E1pVwebkcYLEhkm+l8gAypPMP/FJ4p/+FrFaI9zyfcR3/g383juxfoOFcB5FWLOLKIYilt2Zt9DlAUgEscLAr3H+S7+GPvy7SYZ5518ivPV/wA+uAV+lcJIZmoKnfcwk4rRmEkJazlyRWPxoBM6yZ2GRm/aU3H39HO+68ybeerTHXgPO15hqnbncYJ1J8oQamiYyISf2eoyAYyvwlQee4+sPPsJ9p+c5u1FTNbSJmyw0DfiKohAG/T6rzaWD8ISImYn27O5ndlIMTCQjMGkiZRMw6tk/NLzzul189O4jvO/2qzgwD4WA2xLmtLkARkkZ9z1w/Dx8/k+f4VP3P81Dp2tOs4tVFmASEXs2CeS0+2DtVXYyUNIbHT3nIJQ0IeKzOaKHTCb0zz/B5IHfJT71OcLeW+jf8+P4mz6G5D2GzXlCXbFmlxDjLhoifdkA8i5n4cUvsfzZn0PPPA7Xvgt5z/+EHroHQkURx9S6uXZuBw9ALhGrTQomtFlayybnmWtWeduBJd53+1F+7N17ue0aS4wNqOKMIJIRsfh2Tz94JXNCymXvU5aw2KSONQ7F8Fv3jfjUnzzK57/9Ai9WPXT+Kmw+SJyoWScTpXIL02vbiYSI4LcAZid7jFYT8nqVm5YsH73nBn70g2/lpv3QS6IjMZuOOUZBYsp/7QOEmLK+LpqaUI5xRQ7FgOUAX3sm8Kuf/lP+66MnWfEDbCvBdtbnWSs0gIoh2D59SkSEipwYA3mcUEig9EL19J/AV38eVBm+5buRe/46za6jFM06YbJOlS2Cy3FhZwBdlgykSHIce/pz2GOfw9dj+nf+BZobvgeyXdCsMRfXqGSQPr9DJwPEGEAMtj9M6QBXztArAj/0ziP87e9+Cz9211UcWipAM2zskZFjKBC1mAasOgqBHkIWwDYgwQAZogUSCzRmGHG8Za/jrTceZveevZyfRE6cWUcnHs1zCmsJTYO6S1vGk/p+8f07BeIkolmfD731CH/no2/hJ999NUeHa/TCCBcaMuvILWQ05KEiixOcqcmlpkdNP1P6TlnLcnyvR+YytFyh8COO7st5xy1Xc2SXZfTiQ5xohq1k0spAknhOUhc1qeG2j6k3sK6gsQNoJuy2EyQ0rLs9QIY5eR86OkuWZchVt9EMrkoBmqHCFf3klB92VuV3BJDIAOcMQauUyMA6xOSoWNRBIwGtleE3fx49c4xm/z3469/PcGkPQRsUS+3mUA95L0djQEOJ1RS66ySm2CSNBDWEaGD1DHvdef7Rj9zJ33zvAd5yzRz5nMGaxOpTakNJLSWOTrakpAWnR5sqEGA2W8rhDKW17Oobbt+fcevenI3Vczz+wpnEDvI+RE+RGWJTkRtFfcoib41gxCTndnEU+RzV6lnmXEPtqxTpGQ1OlWzjPLf0VvjJd+zif/zwbbz76BzDTHFZBrYAb1NaYUmlFZIHZpaaZIkLmwyMIUPI29sQm2GzAmsdC4Xl5v3zfOjOI6ycfp5nz2xQ5UuEpiT3Jc4Yop3DZQOs1hBqpN01kFhjJCbPUclSahjjMVpinv0axIb66ruJ/V1oNkdDj2GzQRari8bY7wggyDEmEmOFooi45IYhgrGKak1cW6b49m9RjlaJh94Nh99GNlxqN1cdxrnWyAWxSalVXJsMMmjENw3RJ+utDWMOzit/+wfezfe+ZT837BnQL2ySoUlmnDSr2suTlm9veX2JBkw8FAb6maHXy5lb2E0dDS+cW6aJaV+vCQ0xKtbZ6RcVSauupMcYApkJVNWE3twCjdeUo3D1DDfsyvmL77uNH7n3Vm4+VDCXA9HjXEJzcjk1M9ffToZZpEu66G4OpI929TmSgbKXWRaHfQbzu1gpI0889yLGOLKszTdkLCG2ZgZtORKtmi+dbNQmRiegk2X8c/ch0ROWjlDsP0q0A4wYcpqkOlwkv9KOANJoE4DUA4qqhZh+0DmFZoQ/8RDuiU8lofSmDyOH7oR8Hk/yac5NcjcIPqXzN9YhxqZEAqrJDoJg1HO4N+HH33cD/8P7DnNowVFkafCsKm6bk9Tlkm1tNhiDyxz7dvXZNT/HaH2d46fO07h+Sr/rciKt66h1hJiKu1gjWAEJCRC1T6l6I+CaDa4pKr7vnTfyQ/fexs0HHIVL2zAaSzKTIkt9BDXJk/PV3pKIsLA4YN/u3ayurXHi/IhJsDiXQajwjYesvxmUuYOQTcvUqceEs88RR6fB5AyvexvRDshNykngjZtOxO3UimFbqUtQ0M2QqEpo8yJbDUnoPPkAodpoU9QegcEeGlO07BgkVNhWZjA2Oct3hUeSxpWBUfYO4Ltv289fftdhrstqFvN0s94ngdjIzvaHV0rO1ARf0yj0LFyVB95/Xc5fvOdabj84n2Kjsjyl21PwpCVG2gG3RHKJ9DJoQoB8SFNHbPQMwwYfvuNavv+dR7nlKugZkBARrbAuhc9EY8BZYqs0vloSYMF43nekz9/+2Nu56aohoWkQVfJYI6FO7jKdot9qeUzd9FoyDpm/Cq66HYLAqUewG6dwcURGTWNzapPPfmML7QigxPo6ANk2pFbTlkJsCJNVzMkHE3dZPARLh9Csn9Z0l9Z4bUqkrYnlXMtaI5trikQG1vPWQ/P82Pvfwu37LAO/jLQuliKAJu71mlCbyQMB0YDz61zVK/nAbfv4gXffwt4i5VbsDGaachmApNhxQ0wyBA3ee8AiYsjKNd52eInve9dNvP26HosOMvU46pRB1bQqV5vw8tVynlnK44SFuMJ33Tzko++4iYO7B9CMWxlTUZ8MplMDwdReNbMBKxb6u5CrbgbJceMzxPPPkIUNBI+XFIB4MdoRQEba9ZJWem0NVEYjNBPqtXPouWMp+G3fDTDY1X4+GblApptwqm00pU/LoRVN5vh6g+sWDN/zlqu558YexBJ6Wdq7Ckmj79b914JiSMKsgRTp6gATuWYh43vefg33Xr+Aa0aEchWDx4gSQkMMAY2x1UpqqmqS0NXUuGbMLhnz/ffczNuvW2QxA0OTUqdYi21dfePUf3BzLF8LkiyDZsLQV3z/PdfygbccZGhqQtNuQvuUI1q74WxfdJwI1bQH54Zki9dAvogDmtNPYuu1tNOPtntuO9NFADT1b0ssvC2IJkRCPUHXzqMbq0TpIVcdTfmaQ4PTZKuZck1VNIa0HocaaQ2HUq0zR8m7ju7ie2/biwuk0GYtwDpsKNtibW1SgNeAatdDJWXvQmLilmT4GDjYh7/03iPsHSi6cZ48VmSE5LMUAtEHNKTJ0ISm5YoBf/5F7j68xPtvPcD+AUgo2/tPhk3FENoEBq2DBdL4NkX+qydVm8o0aOC2vfDRO6/hxv1zTMqKqJK8AWYQuwVE7TAFTWmB82IIuw/TYKjPPoNOVqmxGBpcvHiy8p0BZFrLpiQAGeMw1mJQfFXC+mr6dcnJl64BsbgwIQtlQr2maI2t9h/FqYd6gyKWHNm/wHtv2setuyPVqGZsHWshJcoUm9wPGmMIrxHPj66X3CxaS3IZc9ZkjlItA7/OvUf63H3TdQyoMH6CxLSTn5igEkJM3dWmnMm0YdFUfN977uDQnKGndbvspoJ3qSpi8j+aFkOIrUnitbklRt7R5IvgMoa+5t6j89xz27XkvQERSyHNDPfZBqL2UNTknmxFya++gZAvEtdP48erVJJhNZBdZBuDiwKok9hbEBkjWEmzSH0D5Sh9UHrY/iJoigWzWoNvICpiXLI9tKUpsRY04KsxfRu59bqrufXgEs5WzM3njADt2zZ+zxObmokH/xqx+waomzblb/DELMcnJsTiXMYu2eDet9/GUt9imgptKgQhzzKMtUQ0eWCS1PxmvMHbbz3CvW87xJzzKdS4DXHqOlBJObJCoDVZpADMVysIdRPT5MIoQFQLYcShOeH26w9w8ODBpHrX1ZQDpe9scqMt5woeiYH+3oNg55BqA19toJjWdvcKOVAjJRMgeIspa7LoIc+pxJCNTsKzX6OxFm7/XvxwPziLzxfYsEspr53RJDRKzkAE24xBchqdIxR72DsoeO81lluu7oFdwKHsFViAlG7NzmP6c8xnYLxnMplQ1xfeRNMkgTaEQFmW1HWdtMeWYoxMJhPG4zED7+nZjCb0aWJBESO7SL+pJkeHV/EDh5W37C4wZkAV51M63tjgTIXpC/Qs/SwFA5gs8sG7rmafHVP0BJ/3CThC9NRtfQonSk5Dz5JsQc6Cs2kYt7CCRCEEvE+byk3TXLBlEmOkqipGozSBs/GEoYXGGMp8FxXCPYccHzkSYOM4TT6P0RqjTQrDIiCiqChqUjL2Qhr6pmLU30+992bQhqJapzz5DFQ1KgOUi1vodwSQkhbIdKObwFUNRN86aomBvF1y2qDU2S/EmOQFryFtWWhaj6169iz0uWqhoGiDMlAleE9dVYQQ0rFWDnPOUhTpBsbjMXVdE0Lg9OnTPPTQQzz22GM8/fTTPProozzzzDNsbGxMOxug1+vR7/eTUGssLsuSMa/l7UIy1FlrWBgIB6/ejbMppJjYyj7eExpP8AH1AaJnkFkOX72fInMYSZk0RCGzNm0JtNzbGkNd16yurm6pwzoajTh+/DiPPvoojzzyCA8++CD3338/jz/+OCsrK9PPhZCK8Hbeh3me0+/3qeuaLJtZDjUtj3N9x57FPnM9l8apfXNTHWldctMvoLRusamz05gC6ifg6zbeY0eYABfZTBVpqGKOiE01GIzD25w4Pos8/UeUX/p3UJ5H3v0/kr31R2iyeQxtvj01QMCGCaFWnE2CdDA9EEfenOOHbpnj733vzbznpr1ARETw3uO9T85XLqmNXaelaxLW19d58MEH+cxnPsNjjz3G6dOnKcvN9XlhYYGjR4/y3ve+lw9+8IMcPnwYgNFoxHA4nBoku6K6IjLzW8qoifzyZx7jZ//wMc6EXUQgl5oYKxoFjKFQpdGM6+Y8//rv/wDv3B9x1lBHyACxrfU9Rqy1qCp1XU+rTJdlyTe+8Q2+8pWv8K1vfYvjx49TVVVSOFTZvXs3N9xwA7feeisf/OAHufHGG+n1tm5K13VNkecINWp6eBLTt0RWSuV3vv4M//x37+fYekGetZ6EJnG+qbW703BVkZA8O/OwwcZ/+T/onfxTyhu+G+79n+nvOYQj0FxEG97REm1Ek0UZg0VbU7pAtUo89TDh+T8FsWQ3vgf23kywOZYwTX6UKgl62pwLiKYiuaDk9QofuHU/H7p1H3uGFiVVRRaR5I/banzdrJM2dOX48eN8/OMf55d/+Zf5oz/6Ix599FGOHz/OuXPnOHfuHCdOnOCFF17g2LFjfPvb3+bZZ59lfn6ea6+9dnr+WTDOPofEXTPjWfYFn/7G44xihmoS/EUjIZL6IyqGyG1XD/mJD13PrkxSRSEkGU4lEmLEez8FpzFmupR+/OMf51d/9Vf5zGc+w8MPP8xzzz3HmTNnOHPmDCdPnuTEiRMcO3aMJ598kscff5ylpSUOHDjQcrV03aqazq0NIslskuxXHmsyTq57/vTYGV5YbbCuBVAbep7krxYM3fliW+XTKPXJRzHLTxF6u+HAXeTzexGTfC53oh15U+f3mxajltlpyq4exmspUXbWI+svoiZr7Rvd3ktqIgn1dmo8U1CP1hOWhjlL/QxIXIC2kzvwdIPbVZp56qmn+O3f/m3+zb/5N3zxi1/k5MmT1HVN0zRbWHyMkY2NDR555BE+/vGP84u/+It86Utfwjk3A5TNc2/5LRGseA5etRsTm5S2Rn2y4miaFpCWqpzINYt95my67xA3xwSf3D22c5+qqvjZn/1Zfv7nf57Pfe5zHDt2bLqsddfeTZyVlRUef/xxPvOZz/Av/+W/5JOf/ORU7um4psaYltnpCKWIkMxElno5u4c9Mg3Tpbq9+enyJXR+SJJUfhS1GcztI1oHkzWkXIbg2wVwZ7roO8nTfxOtosnBOoxXIVRgBmSDBbTLpKpdLsOZm3Km3c3WxDE1Erwnd47MbZrZtwu+qik/oDGGF198kU984hP8+q//Oo8++uiW8kXz8/OEEGiahizLyLKWazjHZDLhs5/9LL/wC7/Afffdh/d+C2i689OCKkWJwPygjehsJ4EA0l6/WEM0Fktg98BiW43RI0TT9qbodLnqQOG95/d+7/f4jd/4DR544AE2NjZgG4g7+aijbjJ87nOf41d+5Vf48pe/PAVbVVWt7Bjb3m6HqZ28hRUGucNNwZ/A03KEmeftciuCqBJNhizsI5gc6jVstYqqJ15k+eJSAOqowzcak4perWNCBa6H7c+1AEp5h03HfVqUJ4OkgsY0WJoMVyp2+j2dEXhpNatucCeTCV/84hf53d/9Xb797W8TY5wuCyGEKccCsNZOwdS9Xl5e5g/+4A/4xV/8RU6dOjWVe+hAs40roRa3KV+3SzcEIlEUNRCNQKxxWrXqbUz5IlrwYBMn7e7LGMO3v/1tfv7nf56VlZUpaKVdmjvOa4whtktfx8E6AH7zm9/kt37rt3jsscemHFc1Ukda3YqOp4AmwdpKSl7RgWVrcMAMiEjyUEplbpDhHtQkC7er19Hg0zbURehlAKjtbNVkma0nGFUwWcqElZK0JKh1O96qLUtttwBiTJoKKbSlwabNSlJHdwM4OxNjjJw6dYovfOELPPLIIwD4VqWXVl5aWVmZfn4ymdA0DabVejqWP5lM+PjHP87DDz/MaDSaDuwUNFMACagjRBAytK1HGlG8hrQvhxJFCLHGl2s4E1MPtuar1JtpOerOOxqN+LVf+zWeffbZLap5B5YEhgTmWVB1ZIyhLEu++tWv8slPfpIQAv1+Hx8CAZPqjUDiEq3bh0LafkmCWzseLWlCULe2iKSMZ6qaUvTkc2kT2ZeYUBKDb+XXnekiAGp3btoZOqV2j8wAGEM0vXaXRxOQxGxNGhUDMXg8mrSzbgthuixvzsaOus7z3vPUU0/x1FNPsb6+Pv1MbOWFjjowdY+zXKl7XF1d5Zvf/CYrKytbBncWROmyDRKBdvdZSX7JsSvYomlpI0aaukZFk/PydKIBMU2C7nrOnTvHJz7xCWi55pbf3AYkaZezpmmo63o6obz3nDhxggcffJDxeEzTNBR5Ma2BljZ+08Y3ImmYouJjt8ClVQBN6XQSF2qPt0ACiLTxXybltzQxbWZv27/fQjsDKII1DisGS1L1IiAuh16fYCFzDedZwjVjMl/RSB9Phm2D85QMUcWGEi2UplbysIqpLQM/JtcSZlh4x67zPJ8+fu1rX+Opp56aXpZtk253ndx1eNod3xwMa5PtqDsvwO/8zu9QluUWkHUD6lzyd1EJLFARfR/xK2hT4g04K/SDpHiuZp1h7DGQvdSmD0R6sWEYSPYSl081pqqqePzxx3nmmWdYW1ubcqDtHLCj7RNDVadmjaqqOHnyJE8//TTWJq7vpKCnnqHxqEhboAUyLXHq8ZIRtUlVqPEoHqVBxadGsjIXsUzF77DJDUcbIilTrJV2A/witDOAvsM0y4Fmn29sbFBVm87cnZW2A1iv15t+3pjOXUJomobJZEIIgTzPcc6xvr4+Xe5kZrmY/T1aztQ+2XL8ZdMMZwuthTwdTsDJsmwKgEuRahLG67qmag2sYca08Uah1x1AswDoXneC5MbGBnVd45wjz3PyPMVuG2NomoayLNFWfoitcXD7zO62OzqVWdsBvhiALiCdAdUroA4wnVDfcaWLcZ+daBZs3X2XZblFRnq96XW/km5AZ2m2k7WVA5p2f6iTgbrPdDae7jyz55p93XGnWaG1O6Y6o+JCm5agY0Ld+WbsKZeiGVCKyHQbpigKjDFTLvJyqGntXLTXb1vt7s8BNEOzHGA7kHbv3s3i4uJUltkJJLPHt3OV7nlRFBw+fJg8v9A1cwvgOujMAqflQNuv7aVIWoPf3NwctGB4pQPfAU1muPLCwsIrvpYrSa/sjq4QdVyg4w4dZ7jhhhvYs2cPsbX/9Hq9LdsDtJ3czc6OzYsIWZaR5/n0vHfffTeDwWALwLrf3kIzDGcLkC6DnHMsLS2xf//+HZfXV0IiwtzcHPv3739Fy+CVpjcEgDrqOqbTku68804OHTo0BVgHrlnqAMMOS1bHlbIs47u+67uYm5vbsmzNfn67B8KUG83Syxyz7rzWWvbt28eHP/xh+v3+hWB9Ceo+b4zhwIED3HHHHezatQu2aWyvJ70hAdR13NGjR3nXu97F9ddfj2kFZ2Y0LtpOnpWJpJVtYqvSD4dD3vWud3HPPfdMOVBHHXhEkgU3gWhz6eoe07bOlCW9bDLGsGfPHn78x3+c/fv3b9mTeynqgN6ZJO68806+53u+Z2rmeKPQZQNoin9tX6litN17menrzoRgOlN697Ud+mCWmwAsLi7yfd/3fXz/938/Bw4cmAKjA0n3upuNs8BSVXq9Hrfffjt/5+/8HQ4fPjxd/raTtnauYBwNLjlbiWvvMvnDpOsyaec9Jou0tl6HdPfVJnzSbf5IH/jAB/jIRz7C3NwccgnNr3vPtEsyrfZ13XXX8cEPfpC77757yoWNsdO+vIBmJ0F3gS17le79mQmSWjt5ZuaIXmScZumyAKSd52Bb3sDEkCyXGpGoSBSk7V2jaRxc22x7E9om6epIWttOB4CObr/9dn7sx36M7/7u72bPnj1476cgmgVENygd58myjFtuuYW/+lf/Kj/wAz9AURQ7Dtx0KQMa65iEHHUBMQVKDQLG2HTR0SJe8SFQGaExpJ3q2CEpEkh+TZ1x03tPnuf81E/9FPfccw979+7d8Vo68HeyXDcBrrnmGn70R3+UH/mRH2E4TDmd0/2zORt3oCnH7EARW5CkxIrJ7bjboooxbVLGWRBp2v/rMHgRuiwAfSdJRHj729/O3/ybf5Mf/MEfZPfu3eR5TlEU00GSGattr9djbm5uynl+4id+4oKlowPN7GvRSKE1eSzJYonzJbaZQDOBuiQ2kxRZQtosnuHBqdPb0xvSTnwHghACGxsbHDhwgH/6T/8pP/qjP8qhQ4cYDodbFIKsdfzqluJer8edd97J3/27f5e/9tf+Gtddd92UO9U7uPe+XvSmAJC1lrvuuot/8k/+CT/3cz/Hbbfdxng8Zn5+nrm5Ofr9PoPBgBgjCwsL/MRP/AS/9Eu/xN/4G38D2mWAWW6zQ0NjiiyJJVmssLHGatqmNBJJycu6Uk7J98lsY/2ppuDmOY0x9Pt9lpaWWF9f5+jRo/yDf/AP+Pt//+/zsY99jCNHjky5kfceEWFxcZGjR4/yV//qX+Wnf/qn+cmf/EmOHDlCjJHxeMzq6iq9Xm9qH3q9aUeXVqs1tR0S1ZJr2vOFSDz/JJOv/QrmyU8TD7wDfuhfkpuIVU9JH6cVJjQEyRGBGDyDZo31niGfLJLpaZqVhn/8V97CT37kehb7RRdud1HqOkpVqapq6hP93HPP8cQTT0wNdGVZsnv3bq6//np2796NiNDr9cjznKb1F+qo4z5bOJFGMkpePA8f+39/nBNjxWeGqhjSI2C8MtEemV9hqYn86Huv53/7ex9iUdaR2iG2T3A1IXqMJt+k2Dr1D4dDqqoiz3NijNR1zfLyMi+88AKnTp2aGgxVlV27dnHgwAH27NnD4uIiRVFM5bxORtRWw/Oawr8RaHCYNp/Ag0+e4l/852/xm/efI+sXiU90spds7tqLEUQNEiNiYJzN407dj376/0sYr5O//+8gb/lhdLCvTWR1Ib3hOdCsbNDv91lYWGBxcZE77riD7//+7+cDH/gA73vf+/jYxz7Gvffey+HDh5mbm2N+fn5qOOzsQbOtG5TuuQKNFDRkVOQ0mlG3jj5VECovaKD1Ugyt9yVETecJMabd73aguo1T7z3j8Zgsywjtznqe5+zfv5877riDD3/4w3zkIx/hYx/7GB/96Ee59957uemmm9i3bx95nk8t17OCdbd0vxHoDQ8gadX0rtM6ITPLMubm5lhaWmJpaYnhcDjdK+tknrqup/5DtBynA80skNIjBHK8OIIafNQUgdHUaF0Sq3HKZkZAtGvJtUNjJITUOo7WbfwOBgNUlbIsCSHgnNsyIQaDAYPBgOFwyHA4nHIu2snTXZ9pzRij0aj1vJzppNeR3vAA6rQu0xoGu914WnDNai4dt9JWeHXOkWXZNF5sOxfa2lI0rIkBp55CGwoqLBXzUrJoSnpSYdrUuaIhFcFtOVBs1Xs/wzGqqpoun9lMtInO2LpkZvulu/7u9WQy2XLvxpgpV7q0bvSdozc8gGY7uGvdcWaC8bpB6QAx+322yTvbP6OtEG2aCdZX5LFiIA2LzrO3iFzVVw4Old29VoBuneg6ATrJ0nG6nHUcZHbp7EBwMZqdDLPaWcexunN0u/op1Pr1p1cBoBTCAtrqHm1EBmk2d1sB2h2bcbhPXZ6evxR1nIUZjYwZEGy2SIzJZyYtJSnjewp5yimDJ0aDCYboG6pYUZlAY21yHR6PyZefYXj2Pn70mif4ywe/wU8c/BJ/69o/4m9d91l+8tpP8X879El+/NAX+dFDX+eu7H7sc/eTr67QCylfI7FHiBmVryjjGMkdPTek8AXWlzRxzMTalDJlhiNup44L5a0vUweujtKxtvu61lGnFU6ftzU9pv2d2uYESLJcF4mzeb4UUvgS5qaLxIWRCqhoFxfWnlUn5/Ev/Cly/ml0/mq45aNtTfOAxyYBM4bkGimgMQXmN5lgmgzLBrGMfOjOfbz9hiV6mbtk1GNH27kPLYC696w10EbDhqCEoClpJykxhACVT8mXYihpYkWjkgyD1Zi4/Bjh7FfpnfkC8dTnuWNwH+9eup8P7HuED+95nPctPs47B4/xzvknePdVJ7hn6VmOFs9SjJ7BVKuEUKZaMaZAsHgaQuaJ1pBrjokAAXWRSXs9dpv34ey9zR6ffX/2c8YYNJK0IwFtEzgYlFPnRnz1sVM8fGKCdZKiSlRaD+Wteq+opF0CgcYU2I0T8PTnUV/jrn0Hsu9WNBtsAmwbvfTovRlomgQiyRBGus4iAV9hUQcEXWPVnKKkpphY5l88Q+/RP4RHf4bJ0/+Y0yd/kUn5Sfr9b7Mwv04vt6hfoBkfJExuJatvY1H3sSuHefc41dpv8+JTP81zD/0jVp74edzJ36e/8SRFEHJZQI2yLqeY6AqEPnlYYClukLfVb7Zz0Tcj/dkAEEzVZxFJ9g0DIhFVjxIQHzAmYk2GTDx64kF4+hfInvnfGb7wu8yfepGwvIaMRti6QvyEWK/TNKs0cQ11I7Br6OQkthrRr5S5EhbGY3rnHiQ89xusffunGT3xr+D0g2SrFaYeUlGyKicowxgqMGMhay6Uw96s9GcDQNpteBqMSSw7cZ5AjJ4QasbZSfL6aubP7SF74dPUz/+vTM78S2T9GJn2mOvNs5sb6VUHkPUF4pohlpEYJ0R3Dp8dJ2TPY90EvCGs78WuHWFucoQ9fg8LoxXc2Sdpnv3/0Tz+b4nHvkZ+xlP4g4Q8Y1meZcOfgXoBDUm1588AF/qzAaB2D6kTTKHTihpCrGl8jbcH8atPoU/9PNnjP0t+8j5cU9D0jlL2dzHO1inMmIwyZYc1fXI7T24WISzSlHOU40Uqvw/sPHYg0FslyDkIJYWfZz4sMrdWYp79OP7JX0aP/RHDFcd8vIHgLBt2g9KB36YZ7tTeLPRnAkDJBpMGJAEpENUTgsf7Gh8mxDPHqU78Ev7k/0n//DMsTK7DhqOs6Ygz4SzLdU7dbKAEnDM4myNaEEMBcYCVBYz08bEk2AnaWyH2lom9ddSNiQK+zrF1n141Qc/8Hs1zv4g5/sf0V2AQr8YUQ5qBx7tN78TtwPlzAL0OlKzAgRjiVnU+NvhQUTcV5pmfwbzwBWQUENeHooS4im5UmLEjjxlBC1Qzgjp8gCY0hFiCjDDZiKI/ZtAvEUomo5r1NShLIVCAVTQbETKHugLTRDj7Wcqnf5nw7Kcp1if0Qw/VDZTJFqC8WcHDnxUA6UykRozJoKcxEELiQiE0zD33aYqV54jGsdFXJtk5hFMsxpo9vs98GBBtTTAlXisiDZoKtRJpaPyEupwQRiB1DxuXcLqE0SWEIaqWoJGxCCO7C2cK3KSiOvVxRs//e8z5J8lLRSZN2iKZAc52utjxNyJdFoAEpganaZisbnNIUk0pYWaPxSTwpu91ZqpXTl0Hd4ApjEc1UBsI0RKrlNtIo2LOPEv/kX9MHJ9DYoPRiAaDD46AQ61JNcSipqWvu17ae4yCRgPRotESg015jxCcNRhDy/EUgiC+wWkJvSHjbICOPQvP/T76/O9QTl4ghgEak4X6UrSdK+30+ZQ8ZcbVc2ZgNosDz4xP50CmTN+PRIK07ikxeZRGUsYyRZAomEu4JV4WgLoLSB3dXeTMhdJdbJcvqH3dfnfTHfHiF3Yx2t6pqWMFpSGIpqyoXqBRpBnD2fvoPfPbCVwYjI/YxiChh5c+tXHUEvE0aDAQLKK29agUNErrcWjbgihClEjUGqQGrdHQoDEl9XahwfkxwQRqN4/TebK1DZqTX2Cy8m1iUNCUhmZ7207b39v+GaUF0NS6n452hl8zA5juC1tcjruJ2Lkkx+5caWiiJs/SS0Q2XyaAXifa3oFT8hmYZPMRjTjxMJkgGy8Sxl8ha+YTINjkjtCNQNubXcfOvJ5Oho5mJsEsF06f794TgodYVfR9KhtZWijXThCe/xN0fCrZpnYAz0Xv7w1MbyoA7USqSh3anCAxJQwwGpHROix/i7j+VZyfT8vnluV0ZnZOt4k2Wf0mcDpAta07xxaf4s1zEi3qDbGs6fsNLJENt0TYOAvHvwQrTxF92mWfNT28WUH0pgHQbAdvn7m1RmLIMOpRLYkBTLVMOPsl7PoZJCT/mU1s6BacpOfdi03MJEBsAky6z22/hva4qrZ7ew4TIv2gSIxU2TxZgPzsQ3Dm2+hkud2328y+Ons/byZ6UwBoFjzbSVWJxqM+h+iJWtE0EcqT6Oo36ZUQxW/jGLOyQHs8JlB159wE1GbrwLO1zZxDAQwits0QluqLGWMoHORNDaceJqyfmbqwvpnBw5sBQDt17PZO1y7dYhB8EGo/IdTHMeMTFEDtfBrsKTeZCW2Zal2boJgqCC04toNoE9Cb73fHY+u+YixUQFChFzYwLuV/smcfRdZPbVm+ti9jbyZ6wwOoo+2g2ULiEDNBvSU0A2pdoaqfIw8ZhRT4tuLSNMJUoX2VnnbUgWHm+fYmrRtUapsyUcfRYgiEUOFVGSFgHYP6HJWHys2RLT+PGZ/bUf55M9KbAkCX6uD0nsO4URJe/RyeDarmDJnOYazirWu5xfRbM8DpHN9mTCqxXY464Xh764DYnaV9qighenyoCREmZIh1FDVMGpiYOVy5hqlTrsZLToo3CV02gJL80HmsJdtDam1NBk01UUs7BzHQo6JKBbkZZA0u8/iLhIrMUufns93parbzfVjGxyHR5ojZwFU1tvTU42Vi2aOIPSwRKyklpeDTo3bFV1Jx2i4xZaoP1laci8lxPrVNzS159LX2LJWUpjXaVMhWlKw2zNdKbMZMlgy1Az+ecG5sGdWbidRVt2aL7YTrlwWsCyZFazm3nuA8waWcjkZT2YbZPN7JU7ELR9ctnovaslk1KTPtJeyIrwJA3f9KYu9bpmh7MRpT3j5VrASCWlQNru3kS+Uf3k6z3nkddZ0sWiOx19Y1q8AHmlFgY80zWm2o1iaIJOHWiEWwyUi4rRmRVJnIGMzUNWQWvBEfKkKoUjG62LQ2ndall4ixIMalcuO1oSwDq01OWUK5MeLcesnYb/pNb6dXzJVaQG9OY6ZTGUmh5xe0Tq2cAnD2m+l1O0suCR5eDYBeDiW/nLajIu3PWWIQNKQ6Wq8FWWMRTRUVBYhBqCaR0QZMNkpWV1aZjD1VGalqpWnAe0OMDjRDKBDJtwIKtj62PaldtRuJW1psH4NApYZxY9loMtZHjpWznskGTEaejXFD41OWkVdLaS51QEs+USlptYXYPl5hem1GcAeSrsS7anoRO3SbNmNul5Dg1ZNVQaJPBX5FAEeIRQJKEJq6Znl5zPLymNWVio31hsk4UpfgG0MMlhgcIQoh0rb0PEZpn0vKYuoKxOaoyYg4fLTUQagbpWyUURVYnTQsl8pq6RiNczZWoJ5AXUOp0NYjevU0M3pJlACJgnoBb5A3NYBIAEqsMK2xpj0efHK9mFmNXh0FJTYNMTSoKMb2cNliC+JUkmpSKqNRZGPk2djwrK83rK2ltrrasL7eUHuhbra2qpF03AtVYymrnHGVMZ7kbIwM6xvC2jqsrCvLq5GVNWV5Q1keBzYaRxkK6ipHYkGQDBlkkF28/tYrIZn+lyanIQn+GpIsd4lSp68ZXTEAIdJmp9dWVkrFzoRADBNU61cgAb0EKcQQ8bGh0UC0Oa7YhZp5mpjhY0QkQ8Sh0dI0UFaB8bhmbX3C6uoGK6sjVtcqVtZrVtbr6fPV9YrVtdSWV2vOLQfOLyvnlyPLK8ryqrK8AisrwuoqrK/DeAIjDxMRonUoDtEeNX3M0tXYYrD9Di6LEh/b1ouaKiVJaFJx4StMVwxAaUYIRk0SgNRjTIOYihg3UE1lpV8LMuIwzhBMoNQGbzNMf4kgA0a1MglNWpbUpCrFpJqmqUxDeozRsNpyo9XVhtU1z9qaZ3U1sLqW2tpaw/pGZGNDGU9gUjmqxuFjTtQekSHEHKMGMRnBRIJtEIn4COOQYxavww4Wt9/CZVMnmyUuFIAadILoBGEzx/aVoisGIBAMJqn7Atqqz0JFjCOU9XSzrwEZa7G5Ayd4Uch79Ob3INkcjRpUwPtI9LH192k1MutwriDPezjXA3qIpIYUQAGSA22TfFouUlNFk1SM2Dls7nC5JbMFTnqIFRoqGkYEGVP5QBl7FHuuJxssbb+Fy6LEgUxSrIhAAK1Bx8AIkYsXy32t6IoBKK3P6fTJQBdBPJiGSEWkbitRvHqyzqVSls6izmB7fXrzS+TDeWxR4Ho9XJ4jziHWgpFkNQmB2tdUdU3jG4zkCBlChiFHJMeQp+OSJ25lPFE8UWqC1ngtaeKE2k+o/AQfGiQKIQaqMKIONU2M1NHTSEaxeA2uSKl/X1vSBCB8OzFL5DWaoJeiywaQalqWNm0KyZqbVF5DI5Gxm9ALixRxHswiZSzwvRJpvow7+0XM+jJ4CAT81GZ3HHgRFJo281pnYJu1j8wGEla2z7iu6DfKXjWINKzvuQ5z1w+x7hxzZ0q0Dog4MI5GYRKVBoPiCF4pxym3T1RPiJ0rbAqT9j4SfCQGiMFNtbYYOw3OEoIl+pTPuomBJs5hs2tR5lJaP9swt+8a+gfvoli4eppJpAtZ3n5v2w2nO5FVWLcjxBfYSgjax8dHYPIJdDJGzcL2r+xIpk1F2OWxTImzZp5fgi4bQIk295Omv6MkIx2kHHtqk2VXfLvrmVGVYybrT0L1XLu8WWJrzBV6EBchgjEki+gljGrSJhqIrQ3IaJIGYrFAtuco2dJhqgi5cynsukn14A2a0rL4kIyI1pF889L9bJb5bvdg273YZDOV9tGgapIc0tqKfAt6pwEz2WBgLGWEDe2x98itzO05gM1SUqzZePfuXl4OcDpKg+vThVnB6AZMnqHceI6yeXnmgukvvfRHd6RXCaCLkwCCtFWbPSobgJDFRdZHfVbXnsY3DwIVMl3BVxFZAj8EBdNufrxUh8amwkhK7hTVoJKBHVIsHGTu4Nsoh9cSgqK+wURPRsRpgNAQYiCKa2ufdYZd3bTJdgbcWfCQHqczpwMU0GAJGPqxZFivYJoxa94Q997I7hveTrGwG9oqj7SgmaXtry9F6sHhqAVqa5DqGOb8w4xW11lpkqnkStMVAxAqSARvA4gSzRir4Pw8q6N5NiYnic3XoH46lY4EAiOiZNNVsTXIw0Vm5/R5rDGtE3hK7JChUmCGVzF37TsIV7+LjVrwsRV6RaYZZVWFKI6gtt07TTVEteM4bZt1ZuweE3eSLXuu0WREMbgwYUBgstFQ9fez57YP0LvmFkLWR7fdy/Z7236fF6UAlh6hgEY8jB+ElYeZrAfO12GWv1wxumIAEgUTlWAbrDUEabBBMbHgfLmLsW/Q+gGa0dehUVziT2nHI1XDBG2F2h1m6ewxIylbBWJQsYgYogrBzpFffTv59ffSDK+mcgvUFIQ2La8VsCYtQc3U97/diyLJczMeG52es7mkKe0y1y51KqluF9B4xUeoTI/FI+/k6js+gM5fRY1Dt93DTgB6OSQKBoOhIfrn8Gv3EcbH2agcy6UFu3Ne7NeSriyAvIKtsCYn4NKMl8iZZoE1Pwflc4TVz0P5LC6AZS7lZnbtlQXTFiO9sJOnvyOSCvtaA8YiRrBGEfV4MbB4Fb3r38bcDe+hWTrKShyy3lgCSY0XErdJ3KtrCQxTrjOVf5Kc08lDm23zmMaAxsiIHudkN8W17+T6d3yEhatvRPIh2lUV3KHN3ufLIgGoKBjjRl/Gr3+LcT1m2edsTOYx7ooN75Su2C+YCC4AdgKa0TBIldVdyalmwJnRPsKoxKx/AyZfA++x9AGPSgVtzdi4g3C3vdOTQOqSbccImQRy6zEmULsMu/cAu+78CNm172QyPMTYzlNTELEpJ1ZULCm7WdS0rE2XpLbpDCei/WwCV+JmHdDwZTIcLhxitP9udt/9Ixx4y72oZGTW4lzikNsBs729LDIQ8FC9QH/l02j1FGdCxsmqoPILOPem3gsTnAJSEoODOESMIeRjTtWGE+d34VcL8vI5WP8clI9hIwlkSUwllWGN20+9hUTaWqHGIS7HCDhpGOSBIo/UsabOM8yhtzF/870sHX0HbukgpWaUtUdjwEpyfldabYpuKdsERgJUu1ypthyq1TZnmomezBr6B9/C3nt+jPk7/gK+fxUSA5nW0+K9O9ErAg9JDWsYwLmvwOk/wfIip2PO82u7UAxGe9u/8ZrTqwRQG1t6QX+0wq8KaJOiNjUViY2uZq1RzqwOqcZzECaE8f3E8UNpBMhRclAQWyfjY0fSse2tpBEEgzU2yUMSKDIoCsFrRRM9o2w3C4dv55pb38H8VUdoTMG4CsS2THbwTVqGpspVVwsjifLdUpW4U1tQvuVMidLFZQ56gzkWDt7Kkfd8P7LvRk6vVvSyVI/UN3UyOVyC41zwevqYnnVgRkZEcvzql2H5FNbA+WA5vbEbNROIrwWALhjcLXTZAEqRmxZRg2mNWlaVtNMUCCilyxlmi4TsRXA1UQa4td3srUc85I/yqfBBos2w5Z9iXvxfYC1wAsF7A6MNlJKKFDVaU1HrGE+J2JDWd5N8izLnkschkcwVYOYofZ+mKZh3Q/ZnOVnMiG4/2aEPsud9f4+9H/wp5KYfYsVezWQ0oudH+MagjcFES4bBkRzLIo5aM8rgmODA5fSKnF6uOClBS8RF3CBj/v1/l/1/6+Msvucv4eOIvDrOrqEh2jnoLdGfG9LrFdPMrZ0xUdoEobGr4iwloJgorcNcmXYqGhhHWGMEbsLcC/8Hrv5PsOSYrO/l6WcPcN9kNz4vGExS9ns67taO3RZlYao07ODI1nLhS9FlA+ilSVB1xKBE9SlHIA1RhCZazqzB+ZHiJSNULRup/ym7RmBdDcOIYQFHr3WUMsRg0CjTfIBiwLitFX6YLgUGSB4BRgTTrBPKdXz0uPm97L/5ndxw7w9z8L3/Hdz4PZyZuzHleAwV1CNCuQHlBq4Z0dMJc6ZhgZLF0TrFaJ1qreT0cuSZjQVOFHfgb/nv2f2Rf8jSXT+IKQbYrEhJ4VGMSd6Bs7LP7LVuJxEhiwM0BHxcSyXT6Se50EzIiQziHKw9y3jjcy1LWmelGnJqfT/VWJEs4uUVlEO4JFAu/uYVA1DaSk3bBKBgGryUxAwq6XFyxfH8+Zz1apGKIdh1WPn3zJ35BC6uURmPNuB8koskOiQmd4wYDIpgUtBDm87uQkG0m9nGGJaGMD8QrDNUZIyLvYSr3kr/9u9n6d1/naV3/3UG191Nds0d+F1HGRX7WWaB01WPUxPHqbHhfFVQyiJjux8/fyOLN3yIG77rJ7jto/93Dr//Jxm85Ucwe2+dcpUuf3V3DV3bfp3bGySBymCJ4qglxyeXa6wdk7FC1jRw6sv48kvJrxs4vrbIM+cOoqVFqSnzK78XdllZWs35p2F4NXrLX8CZlHjb46YJuKNYTDvogRKcT66fXpNXn3FUtbLbldyx7zwHdz2PQfHVCiasQP8AVW8fWZyfcpoU226TkEInciTppNOEILHm7nELmCgxLi0/wWQ05Hg7QIsl3PxV5HsOM9h/mOzQHdirb8Xtvxm3/xayA7dRHLyd3qHbyQ++FXvwbobXv5tdt7yHPbe8hz1H72LhmhsYLO4j7w2xFoxJtSy6qj3dYwee2ee0WuR2EEnwiDiizfEWgoBrI0ZojsPG59EXfodonwKJWA+ffeptfOapt7Jc92lsJFjF0dqCOu4302azozjAmwIZnyI88wU01NjD92D33gr5oI2iuJCuGAeiG1M1ZCZPS0qoQSKS9Yh2iadWruVPTx/C9SJUKRCP8dfhzG9gzz4JsUpGxVbQdQJWkvtCCBEfPKHVarrBmAJmhvtYawk2x4tNVuIso9crKLKMzDpcVpAP99Ac/RDxhu8mu+WjDO78ARbu/mF23/MX2feu/4797/7v2fe+v8zSd/0EC+/9MQZ3fYT86N3InoNIkWOlpIjLFJTTDPnOuS3g2c6Buuudve7N90Zgms6hAWlNI9QVrP8J4ewvEMdfYKBQOzg52cfDZw7y4miQzCHRAikb7JWkKwcgImoaxBis5FjNWy0rYq0lK/qcGO/jGycPsTJZTAJiBmUYwbnPkJ36A6R6EFhp3RMUEbAmWV+TXUYJpEIptIMwO1CzA2eLeaLkhKAYDfRMYGA9fVMxNBUDF4luCL1F7NxeiqWrGew5xHDvYQZ7D9Pfey2DvQeZ278Pt7CEL/rURY84GCBzQ+gVeAtqU43Wi4FnlvNsB013HACbgSkRKjKgiEA1gY2vwfJ/oV77CmIaJAjBwQNnj/DI8gHW1YExZKYH4bVxl7kUvUIA7czGdiKVQHQlGJBYYGMB5ElT0wZnlI2Y89CZA3z9udvxLnWSZA2Mz2NHvwsbn4LyaQjryUlKUlmitEx0y4BtOfLMcrUNREkOyXA2o5fl9JylsEomnsxEitzQ7xn6ccxAJwylZmgDQxvpWygs5AYKagb+HH1do2cbMieYvECLIaE3T+gvQTG4ADzdNWwH0U7Amb52A6KAUJNFj6lWYfx5wvJ/oFr7PFmd/N1ohmxMFvnKC9dybG0PKcVRQ09yiJslrq4UvUIAvQKSiNo6baR6iwkFhSlwCuor1I8xorywtpdPPXk9a3lBNulRZEAGhKfQs5+gXn0AXy9DGANt0V0BZwVnHJYkpE5/dtvATGd801CIYa4oGBQ51jkky9GiR5P3qU1Gj4aCQCYBJ4qzhsw5XF7g8h6Zy+mJYaHXY9fCInP9AUbBVzXiA31r6c+o5h14tl9Td52XohR2OY/x81CPoPwC1dqvMt74PaRaw2GIDkKMnDt9iPtOXc2pSR/jlOgqrEZ6ciUc17bSqwCQgl4Y2911SzJ0JTNu8Glfy5oMIwYNnugrnETW6pyvvrjEmfEtUAewA3TQmnXXH8CvfZlm8hg0Z5O7ZvcjnYq8JTyxM/QZxNjW+9CgxjCX5wzzDCcQguKDEkyGFkNiPqTJ+xSDBfLBPFl/HtubR4o5KOaRYgHpzaPFIiFbomJA7S0Wx1xRsKeXs2ACRbmGqVN5qZ2WrSmAxEz9sdOtdBEr0lomQ/IojO3qPTqGX/04fuMPoBmlQXNDwDLB8cRzB3l6dYmRhiQoGYPGSM/1Nztr2kOzLSlHoq25NMUS7rDQXBzslw8gSf63PlSE6FHiNJJTVVFvkGqABke0NY2raGykcQ7vBoR8nroYM87WeW75Nr7+lbuoRtdCNqGOsN7eTL72a+jp/w+sfgHKDVBohPR7WmF8hUm6HXQ5DLHgHJpl1HlOnRfUBkqNeGOweU5/MGTY6zG0ljkrLFqDlYAzqcCLyzKyPCfPLLkJFNQUxpP1CvLckVvFiscQiUaIeZ8wWILe3AUy0CxHEhG8dXhrUDEIAaNj8D6BxXuIa7h6iPXQlA9Qn/pp3Iv/nuHGiKExjHKIvRHOB54Z384vf/NtPH1uCebPUmcBWx5EdIDJxhjJMJJhxWGwWAxOJRVAjoqNERMDxM0ynglEBtrk7VcGQJdJaQam50GGWLeAiz3+9RM38ae9ACNFLMyFARR9XLaLfn2Mycq/oDn/czB6nqwBiYYmDgiuAM1BDM5FimKNzJ3AyHGcrtIPMO9JeQ93WEZmX3eDPdtmZZjtbTuX2c5tZmn2NwcKA7NK7s5iTIHGRYLkxGIDMguyK3Gp0deo1/5XwviTyTMhg0ifvuYYE6l6Q7700B5Or3lUGsTsou+GiBnThIb6ysvQVx5AW/pxG5CFPpZdjLTHV5ol/tWjd3HWO/IKpFcRTAbNOjJeJ197jrjyfxGW/yGsfxPjk0ZWaUETK9B1MBOQHMM+XDiEaxZwTYP4MUZSoqdZ0My2WQBcCjw7HetaV9tr9pzbfycBqYIwD7pIMMuU+UabYXYuqd5SU44/wdr5/wU58Tn6kwh9IVjQMCKnhhq+cu4W/vCBw5wLS4jLcH4OFx3YCV4i5SswRF8uXVEAJfAkg5XItrS+Ak4tgYy1vmLmlN97+L384TPvBl9APxD8iDBJPr8WyMYb+PO/TVj9f8LGf8CMIv0aMgowfRSDUqS4cC/gBY0TAk8hJtmKtnOK2cduf6pbgmaXou2tA8z2Y9tBs/21iEAoIGjyFGCA0MdZyCqIyy/SrP4M1dr/hiw/wKACsjmQPr6ELAB+nrMe/tND1/PgylXUxbVYWSSWDb4qk2xjwb/URtZrQFcOQB14ZCvnmXYkILFGGaF5zbA0rG8s8Otf/26e3rgFmpzcBKQH0Zpk2lcoAsjKI/iT/wJW/jGy/q2knAWHaJ+IUAtUJhnY1M3hsiNYs8kddgLRds4yC5LtnGb7Z7e/tx0w28FUS2AsSjQ9LAVFsGSjBkafpFn5f1E+928YLD/CQtmq6sUGdRiRN0BcZMUv8kfP7+cPv3UD54oBtSwhYQEJNTE0hJiy1poUW35F6coBiE0QJSB17HvzTTUTxKxga6HeyFmII+47eYB///gHOHXuZrBpstZ5JGSA9MAvYMoaWX8Yzn8cVn4aRp+A8nmok0nfCGg2JuRraGYQ5hHZrPy3E4i2H3u5badzzh7bflxEwFlsJhTiyf0KsnEfrP4szbmfQc5/jv7acbK1Iegi6iylAesUGRiwe/j62SV+86s/zLNnrycMDZO6RoMhy0CMEKJFNZLNOO9fKbqiABKSwLxVnuzAlGzzooopixSboZ6yaPjNh97B55+9kxPru5Jmb8G6AZgibRzGHKuLUL2Arn6ceO5nYeXfwcbnoTyDCyUFnoyASJMM4DPGxtnB3GmAZQche/vx6d1sO7b987Of7SiXCYVfQUZPwep/hpV/RnXunxOWv4wrJzgzl5Zhm1HpPCa27s0u5+FRyX955K187tH3gVnCZQVRz2NkA2MzMDlqIkaUXN7kAKID0ezrmZdGe0iYJ4iDgbAxyIkWnl4e8ltP3MD9z19HnNi07ocKZZXGTPAmRXqgE3wJZu1rcO7X0LM/B6u/BqNvIHWFiwvYYBGtUmKHHQb3UgN9MZq1e23xn2lp+zkvOHf5bDJLnPstOP2v0bOfIl9dpagNxnnojaBYpcnWUYHc96HKOX1+yKcfv4Y/evI2NtwAOyjJ/BzD/hpZsUIIGT5mmMyTW4Np/cmvJL3qX0hhy5ubtWnB6sSe1tFTW5cOSZ9IHn0CMUfooUUgc47Q71NPhmT5Op8/uYfff/xOnjlzF1ouEuqARMgMiKvZsCuUEsm4ChoLk2P4tT9gfO5XKE//KvHcp2HtERifQfxqa5FLqeOSr3WKoEWkDcvc9BLsuCSSEkrRJpVCFCvJBGhIdSQkJsd/jclXKRJS2mFJHgQSJUUbV+dh/Chx4ytw6vfgxL+mWf63+NE3kNIicT9i54kuUrpIVYDPKnIzAd9ntLrE544d4pMPv4+nVgfML0zoZSX4nDwXrIuEYAia7kdMG9qyORgtXQj49H4yDLe33w5o+uylptZluHM8gDn/NDLcT7zpo7iU64JoclxbsCOokHLHx/bCZi66cxMVATyidSrcGw22ttg2nrYh44Hla3H02dMbMZ+v0csbiPMYlEkvYh1kkz6YCoxgY05WrxHHD+NHX8RM7kfi6WT0dINkLAsRDTYVUCFFdCIREcXSyUnSWrDTAEQDagRjNN2vCEZcSpXXjlDymxaiqUEanNo2RH0M1TOw+kfoyn+gXv53uDO/A6PHsWxAYZDCg9mAWBEFbJ4TgaxRbIDVchd/+MLN/NtH38bnT15HbHZztYeJs0Rp8H5A1AHGmhSzqCm4MUhyqNu+CmwhAZEIIRBsTlafIzz7eaKvkUPvwO2/FckHbeDShfSqOdCrJhGElEEjzfwEvc4C+p+fvJr/+NRhTpaDNJOzdcIwsGh34ZahZERdN4QqQmhAxhg7QTnFqP5jNlZ+ifGpnyY+/0k4+TlYuR9THsOFFVz0OA8uOIh5Cq9O+cFb6EsbhpMhkhGkYGwzxs5ROkOTgc8jIa+J+RjN1ig0kG8IrJ2Clf9KWP4ZJmf+H2ws/0PWV3+devUBSqlgADiDqfbDeA+NQN0DwwA7qinqDOuEQM4XT+3hPzxyI39y7GZctZ/Ffs353ouoxLbPUt+lf69sOX619Oo40M0fxc5wINsm1wxI+s5FnJA66vZgkLYijKY9tPTtJLOs1COOnZln3e/jwLXL7B+sYSfK+kpJf/cRTLmM7UVMT8FGMJuzQiOEMCI0JwnVpwjl7xDHn0bKhzHV81Cvg1fwOSZkiKvaLLMRk/wg2x2r1g6lkEVDpganYGOF9WtYfw4bTmHDKfT0t9AXPolf+7f4yS8Qyt9HqufIqwm9oPQMlAVU9ChqA7oCboSafaizuDCCZWDBU2/M8dnH7+LfP/Be/suxm5jU8/QWlLzXsDpWnOvNqOppj21mDQJoU/5dgoQkH0Yl2B6uOod/JnEgc/iduP23QXZxDiS9n/raBaNstaa2Q6Jacg2YNh4znn+Cydf+LfaJTyP7b8f/wD8nx2MJNHZIrh4TGio1bT3z9KNbBc1NR23RiISQjtEmJ9RUdVDajO9MVomuYX7R8MEDp/mf7/lD7t31IGRCvaLkcw6y1mYfXTL5a/qdhMoUpWq0AgUfoZGcYAukKJBeD9vLMG43yl9p/ZYNIhkqrlX/MxCLCTlUQ9AR6FkIJ0CfBX2WGF8kcg6tzqO1YroAW2lFiUgyboYhk6KHtyv0vcclJgJk1CHD6RiTwbiB//TInfz6A9/NN0/czhiHGa4jfQh1n7Ca0ZubSRMoJhlSOwC1nmjJe/zipAIiAeMDdbZIsfoYk//6v9NMNrDv/bv0bv+LMNib4s92oNcZQIpoWz9UNaVn0zaaUFOeDBuEUEeiluwarnPvNef4qe/6Ju/Z/Vkw6ePj2mIZkBvTOrBru9k7gZhSx7hZ15jZydRdmkDp9raun22cGSktHh2AKLHxbPq8l+RnGgIp70uTrj+vUz6qAHiXAhfFp/HsxlIFtWnPj5h2NvDp+Mg5xnnDx7/2QT7+1I189fw1jP0eFqVHHoRJzKizDOuaaeoVkeSBoO2PTEH0HQDQ6ysDSZo5SeORFCAopk3vmjiBmgWMmcNGpRw7Hji5i3/2B3fwO09+jFVj08dtINp11K2CWwFZg1imwdV0ylEN40bwwbXZxpKDG2rTYDfQK8/Sm5ymmJygGB8nnzxNNnmcbPIo2eQR7OQZqnqNplon+JSmDzMGN4ZiAr0a6MFkF9rkePUE8QRyogzSRmkfEEWaOYgLBJsCLlgAPz/kkdXD/Mc/+W5+5cEf4v7TtxGsww3G1KYi1rDkYaiRSVp7NuWdVuHafPzOyEKvL4DaTrgARLRruQheG2Ih5MM5TIRz52q+dnov/+yb7+HnvvZjPLFygBowebIzktEmCQppH8AW2NyS5YLLFIxHpQatWv+isCkyqE15ljWDmLetgOBI/qpgrAfbEG2NtyXeVATrW09AiKZEjUclR0zeCk810Y4J0RLKRWiW0tSPFSHAmsLzXvji6Zv43Yc/xn/4+od4+Pw+xs0cRbOAa+aoQk7tIqZfY22EScpr3fXj9n3GKw+dRK8zgOjYULINda0DE0IYrOFdSaj6KEOagWWl6PHgCwf5+P338HNfew9Pv3g91fo8oWl7zgHWokZQE8EEcmfIreBcG9xhEyYaB00m+MxC5hKXcKbN1x3xxtOYhtrUBGqykDY0Mw+ZN1if1HWtUwyARhC3jtiNVBIzMZxWJIsY8YRiFfJ1MBUuzHPm/G185oEP86/+6G5+6/7reGjjALk5i41jfDmPrfaQy5BJkXMqzxkZS6F1ayppu6p90v19p+iyASSdcbB73tkJWw+3qWxxAV1o+d0UQ9o/Ma3w6rDGINrgQ8C7PswtovTJpc+z6wP+46Nv51f+5MN88qH38u0TtzGullICJ+MJWhK0SRdW5lAV0GRITDmCxArRGRpnqa2hDoEmpjjYYGqi9UQXiC4SbUwXWrnUfAbaQ8wAa+dxDJHY34yt71pbmsIoGOORbIQtlDqHs36Rr5y8md984N386lc/zB8+divPjjJKF3G5B6spw4gImRUwjipmNAj93KNiU2t15ekIaPvfdIwu3bZEqL6MaNRZumw13gz2EVo13kYlmiyp8TEQ1CDSJb+7BAlTiVba/5JVqAOYwTQOo4JkIcVP+wwXLWI93lgqhjx88ioeX97LuXpAo5GMdQqp6Jk2TZ4W0HTaWUgCdjt7TFRsFFwQpEoDncKkkyiWQrZTTJZ2GTpMRLKYrikLYAMqgaAeYxRjLJCllMLSmhY6DRvDRrnAY6ev5TOP38FvPHAH//nx63hktIumWCDLLTaMU8xaViBOUdOgEtJqCDiUYByYDEjaV7qbTRC9XFJaC3SMBFNgy7OtGt+8LDX+sjnQa0UyZcGzN56ebyoTiTNNLdhTlSa1qlfxrY1FfvXBu/ln//Vj/F9f/iCfO3aYUyNJlZjrHuPhmGp+gh96Yp5EEALJMc1LAknfY3sBSdmuptxDIgiOYCzLWWQtV0ZOKYnUtSeUDTQNuQasWDCD1gTWJGaYOSoWWd64hhdPHeb3H3o3v/DZD/HLv/82Pnf/taz7OeZ3K0VRgm/IpxOo647Ne2175hUD5UrRa8OBVAlTQ+ImB3pJQ+IFz1MHbXZSmvXp92ff6zo1PTb5Gcg9jSxwfuMQj75wMw8cu4Vnz11FdLB79zqmLHExOZ8JfURNSrUiQBYhjykC1LQaepvbSpzD5HOQzWHFkpcVA0luOo7WdtlqemQWMounIVYNrk47JRU53z5zHZ946O382lfu5bcfeCffOHWY0zJPM5xHs7nkCt1sUJhAL58nSArfZroV0T3OtC7q8NWQAK3YsWlI/MLL5kCvP4A6HLSYmHbPzJvdWRIXmjnafkFHu+mHHnO9DaR/ljW7xqnGcP/yfh4+fjNff/xuDue7qcN+vLXEbBVMSsJtAtAsQtyPcYIlT07nQbBBMI1AFaEMUEasd4jmLXwcAUMtGZUpqKVHMAaxgpd5zo6u5r4nb+a3v3QX/+4rd/Ifn76Wb2zs4VzoUQ09dk+F6zWoN2RkzA1zxGWsjyxqSUEKO4AnaazTNfHV0ZsdQAksXUclkEyfz+Tq6TpORJPxC0naPsL+4DERVpsBlZ/H2AHD3CEGXqyER1Ysv/n52/jsE0d44Nw1vFjtZoMCBHrOkucWbKAsK7QtHY5tZS4bUROIpsFkDcwBuU9qmIsYq7ioSNWg45LT5wZ84+mb+eT99/BLf/Jd/OtH3sZ/WdvPk5JR2gynGbL4NOo2CGt70fGQwowo+mMwA8p6kUoN1mpbrCYt1x2QEDvtnzcCgC7bEm33voX6B5MlOouB2g3J8UioqaNF2vpZl6JWqknPu6uISSSkXb7iTO4aYdNinbY70oesuLQZEmtoKsTXGCJqLX7Qw/cKtF6FJuAaz1yzxl6WOdhf4Ya9I45c5bl294R373kI55Q89/QKT555nPMYSftjogpemdQ5Z8ohL072cHy0j2Mru3n2/IBTq45TZ3dzfmM367nhfG5SwT3vwOfM02OXyRm7U0yiIM1+JAyTXcmMkpzvcmxRIL5q8/vNgqezK6ce0peYoC+HVFJ/mrBpiS7/+J/gy9HLskS/zgAibeS1QKAFUuqX9DooKfp9C4Bmtj0UqmwFvDCsBuTREkxD6Uo8StH06FV9VobrSZ4KBvER8RVWK3I7Ic9q+i6w19UY8VjryWyDkwZDiv0SVWpjWM9yVC1RC2LsU/t5qnpAWebUtWOcCU0hUNq0PWEDg74nF0ssC5pxQVbMYXs1kVXqxhBjymfo+mPUVDSla7nrtJcukIUUXrJ/Xw69uQEkSQmlBY7OVD+eAgghXgCeVj0iPc99siZHIwRJZTWJAXwJYQNiSTHIQNsSBd4QY/o9JSDiUSTlGyQFTEr0mJgC7SwW02alD8FiHFirqEmVCiOkytFYjKuTDaouUF9grGBzj3GKV6H2BqM2lZ4yAi4grsRIjQmOzO8i1yUmZpVI03KeTS7UVXlMGumrj9t5tQC6iBivm85gW9hkyhSGQlAl8xCtICa5YzTtSikYojHJeHaJJlHRrrUcSEklEjrfnLRNmOZhZx9KiRUcxmSIzXGmh5UcrEFNumYjFmtzJO8R+z2UAtUsRa0ag9iuWk+OtX2c65E5SZlUbY51PUw2QPIh5AO0GCJFn7woyLIc6/L0+5KiPYxRxCVHFhtsMmjnAXFKwLRVgwSXRyRrUONBDEZsqqumkmpuKHhTpX43Sc6j9YxM5TWTzQnxWxITX6yljb6Lt7QKSKotFiok+uQMF1NxmYgSL7FUXgRAcRNA00ZrPEk8I0QlC0psNQUTU6qVqGmg1aT1+qVax1WmVtDW/Djzq1NTmUjybxERxBjEGIyx1C7S2LRx6lpDoBgPThA7wJndNKFPE3tpY9M41FqitQRj8eJS3mgNKUxaJCXstBaxBrUQbSC4iO8FmjxSO8U7g7oMbJE248gI0qOxQ7wtiJlFHelasYhabMxw0iOzGZmJyQxQ9zHNEoYB0Xgq1pMBcqqWthN5BkCJ+1wImK3g2Sx+fLGGanK91ZSAUdRjNdVe7Rz9LmUQvgiAXg7p5gjPyi+tYNwJx98Z2tw7m32e7Cipddsnm+aBzeebavFr1TavQaZLUPIu2LzONxhJ4kS0osT09UvQZQEodUHiULN7YtOlr0X2d4qS/0vyh1Fp4TsdRJMWv2n57sS5OtBsAuulQfRyPyMtKNPnu0dmwNqy00u17zC1Vz2zF7Z5HVv9ubbSZQEoUQsWYprrU62oFXS/oxwoDUi6361cZnNQUlpgTYXd27IItt14bY+9RNMdjm1vCcSpZkfyp9583r1Hq45fqqX/vhPUmkhaoCeTSdt1bOaevBhdNoAkaruGxlRQt9OUuiXsEqh9zakbtI4LTbnRZuuAIjPPU4b7zTbLjXZqxrx09KpIV+88tSknfB25y6Uozfdk1RfpylYlBG0C6uJjefkAIhnyWqUn/chUMIsvaYV+Lanjdyptdvlu8GbemwJhWwTqZpsB1kVbl1P4Uq11iJsum1tbOr4DqLa37xilcUrX1Jk2Oub90tdx2QBKa2VENSRJvtPaWkH6OykDzTL/JLQm3Xdz0LrwnG3NtAPePr8QVNsaXDjQ25pIy4GSZp7qs0r7PdO2tDhcsn2nKd1fkoHSGG5exaWG8rIBtDm3NylpYTu/dyUpTZTN7k/XMPO6G9h2Rm3OrNnjcsGyt1O7kOPs0DoO1MawTpu27Y1EOv1vBrmdFrb5sYvRjnczkiWCV+Z0zEBSXHkQixksYvffQhjcQJys4I//V2w9oRrsxud9bIjk1SrD6jRzk+WWQ71U25S7d2p0JpBLtAtMViqtbaNrXW3TVj4icZ5NQTclP7cv0YxxbemESzXBicGJSfakZJ9ubchtE9Nml714s2JbI+Ol2/bvzTYjFselm9oBk+JqgptDTj/G5NufxocJw31Xk88tEHuLxHywHSJT2nE33psh4isGUmEFanV4ycmMYJoRzdp55NwjSCyxNkfzISEb0rghlR1S2wHe5NMStpf62zbyFzSjaS/+UnQpIe9lkyoQLri+LX+tnDc1eu7QLpgBO7QkZ7zE3w7f295e6g9NIVLbr3G2OQN9qbDLT9A8/UX8Cw+ieZ/8ursxh95BM38YlQyrKUPudroIgApsmODwqBhqzQgmI7NCLh5tNpCTD6OTdWTjHNKMUZsTi0U0myeYAm+EQppWc7n8Zo0k67O5VGvX8AuOv5LWgmgHuWaz0bqpbBNY3rBN0jI0s4pub0WzzMK5b9I8+xXK5x8gRIVr3gpHPwD7bvv/V3cuPVEEQQD+qh8zuyxrNGQ1EmNEDOLFk/Ggd/+rv0NPnEj0wBEUIwHRLMjuzqO7PMyI6zrLiHhYvuMcKj2V6u7q6qpqcH1Eq2yEJhovU0vbQ7ITUs0R5xmTUpqUJQ9L2THhYIfR1muK41307Au+dwu5u0k52CD0BnV3esWYq7/Z+cuvms/5bL0SSizbLie1Lhe6PtgWtSSn+6T7bxgNDxkXgbiygWy+wq29xN64V/lxWs69uG00oCgJmo/xEhCXMMETcDhn6DHBjL+S7+9w9vE97G3BcJdEJiTdFDrLBNulkISSZFb0v/HHCBu4sgFVuUjtNCtyUWmNpmRD9PQz9FZg8Biz9pzk/jPMzQeIXUaDolqg0w//TdFoQCECMeCsINZRqKWI1enGS8QRUIXxtwP4sA17b/HH2yxlhwTgu+kDHhtGs6IvTasC/hMCmPNCvTn8TaXJgtHyR5S2Q1hehdWn8PAFcucR3W4fbz2oIwueSMRIsw/UbEBFqBpGOgcixKiUIVT7I7U/4BJwHh0PkaMd0qN3+NNP5CGQ0a+y0vPDWdELi4jg5OItV4nE67QCyXTIohmb9vGDdcrbT8hW1sF2SOIZXc1BPaOYooC71ApUFnjfQbyvvPiQ1/VeShFtnUWSY7sdkqSDiSUxG6HZpJqh9bHYtQx+kahCkHb2828oer0MiCqQeRHmZ/qNdxRiyEPVJMKZKuhQ1N0E52nmB1+1+dq2FmcfAAAAAElFTkSuQmCC;" vertex="1" parent="1">
          <mxGeometry x="220" y="476" width="36.26" height="42.55" as="geometry" />
        </mxCell>
        <mxCell id="E9rDun7O-10vDkbBBoyJ-15" value="" style="rounded=1;whiteSpace=wrap;html=1;" vertex="1" parent="1">
          <mxGeometry x="210" y="20" width="540" height="360" as="geometry" />
        </mxCell>
        <mxCell id="E9rDun7O-10vDkbBBoyJ-17" value="" style="points=[];aspect=fixed;html=1;align=center;shadow=0;dashed=0;fillColor=#FF6A00;strokeColor=none;shape=mxgraph.alibaba_cloud.acr_cloud_container_registry;" vertex="1" parent="1">
          <mxGeometry x="256.26" y="194" width="51.7" height="60" as="geometry" />
        </mxCell>
        <mxCell id="E9rDun7O-10vDkbBBoyJ-19" value="&lt;b&gt;ACR&lt;/b&gt;&lt;div&gt;&lt;b&gt;Rol:&lt;/b&gt; Repositorio de Imagenes&lt;/div&gt;" style="text;html=1;align=center;verticalAlign=middle;whiteSpace=wrap;rounded=0;" vertex="1" parent="1">
          <mxGeometry x="244.73" y="270" width="90" height="30" as="geometry" />
        </mxCell>
        <mxCell id="E9rDun7O-10vDkbBBoyJ-40" style="edgeStyle=orthogonalEdgeStyle;rounded=0;orthogonalLoop=1;jettySize=auto;html=1;" edge="1" parent="1" source="E9rDun7O-10vDkbBBoyJ-20" target="E9rDun7O-10vDkbBBoyJ-26">
          <mxGeometry relative="1" as="geometry" />
        </mxCell>
        <mxCell id="E9rDun7O-10vDkbBBoyJ-20" value="" style="image;sketch=0;aspect=fixed;html=1;points=[];align=center;fontSize=12;image=img/lib/mscae/VM_Linux_Non_Azure.svg;" vertex="1" parent="1">
          <mxGeometry x="620" y="186" width="82.61" height="76" as="geometry" />
        </mxCell>
        <mxCell id="E9rDun7O-10vDkbBBoyJ-26" value="" style="shape=image;verticalLabelPosition=bottom;labelBackgroundColor=default;verticalAlign=top;aspect=fixed;imageAspect=0;image=data:image/png,iVBORw0KGgoAAAANSUhEUgAAAKYAAACbCAYAAADobOAEAAAAAXNSR0IArs4c6QAAAARnQU1BAACxjwv8YQUAAAAJcEhZcwAADsMAAA7DAcdvqGQAADkFSURBVHhe7b15jCRZft/3eS+OvDOrKuuu6uru6mv6nJ57ZknuruiVuSZFk6ZEi5QE/2H7D8OCAcKA/YdBWAIkG6BsQ6Bgw7AoGZYlSyJFmjJvLpfUcrk7O9fOzO5Mz3RPX3UfmZWZlXdGRsR7/iMiq7Kyjq4+q7q7PkCjsyIzIt6L932/F+/6/USpVNIcccQhQzSbzSNhHnHokL0HjjjiMHAkzCMOJUfCPOJQciTMIw4lR8I84lByJMwjDiVHwjziUHIkzCMOJUfCPOJQciTMIw4lz4Aw1S6fnzZ08C/8jy0TxTrMW+df+OW232478anl6RXmxvPvZEEB4ikuHBH8C/9DdI538tI5sOXLnj97vnuKeXqFSa/+5GbB+AKv5dOuuXhNH+13/673vF66zdABiXzLLbuUqp8d4d2Lp351kdbgNVwadcjnitRrdYr5Gktza6wXGwz3j3Huwmkyg4L+0RjpYav3Ej30Pg79mOpv9312EJuGZsWnVnYoV6qsF6oIZTKQ7Sc7kiKe0ZhRo/esZ4YDFGZvE7U37YZCeRrHcahWm5TX66wsliiulckvF6kUfQrLFVoNh0arTXm9hnINTk1e4JXzrxNNayKDHsfPpxmdSmLGFPGkgRkRW3W37WloEPtL41buITw0KHBbmrbr0nbbVNdbFPMVVpZKlApVSqstSmtN1gtVauU640PHOTN9jr5sjNSwZmQ6Tf+wRSJpE0kZiF3rj94lDYeXAxRm552w64Hp4LDW4DR9CmtlSqV16vUm5XybylqL3Oo6xbUK1XKTtXyFYqFMoVik7YDfAq3AsCTSkKQTGV6YfJHzE6+iNbhGg+xIgrETCeykS/a4QTIL6UGL1EAUacodhNlJ4v0WbteFtEAr8F2fWtmlVCpTb9RpVByKuSbrxRqlQo21lQrFfIW1YoVSsUyz7tFseHgtH+VqLp55iUvTLxOzopgJTXYyQXTAY+pYhvQxGBhNkMyYGJHupOrHaPUfHwcoTA1KUC5XqNdaOA2PasGhVGhQLtVoVB0W5vOsrqxSb7hUyw6ltQbFXI1mvY1hSqyIhRYarTykaW5cuWPgUrE+zo2/yPnJlxEq+N5zFUIKhOmQHjew0y36x0wmz/QxMB4l0W8QiRpY0S6Rbghz44+d0eC1Na2WQ6vVou24NGse64UG9XWHtdUShXyT1ZUc5XKZet2jVKhRKTWplBwalRYYYMctlPYwuvKk24IXjr/IpeOvkjD70Rp85VF3a4wOp4iPuAyMxxieipAZlSQGTBIZi2jCBNFbqXTwvrpHVg6aAxQmuE2Pb33j+1z/ZI5Ksc3y3QoztwvMz66ghbPxu1g0ibQMMAiaK63ROlCgQGASFKBp2ijfw9VtlNKkYn2BxQyFqZRG+RqtwvOBmlPH1Q7Z0RhT5+MMnpBkR2Jkxkwy2RimDaYtEPLewiyvV7l7Lc/CXJ58vkCt1KKYbzF7t0BhucrsnSUU7Q2RR2PxwEpLgZQCHWQKIYKOjmWZeL6HRu8gTI3vBddRKhhmKjfKpNMmQyctsicNRk/GGTkWJ9ZnEUtJTIvgfkfC3Jv1tQp/75f+H/74tz8mEothRS0IBSCM8P+epyeFQAqJRGJbUQxpkU0NAJBOZqnWSiwXF6m16qQTm8LEN/G9zXHOjjhVoHMAHNeh5dboy0bITJpc/dIw6VHIjEiiKZNozMS05a4F+r0//5h/8g//mOufzNOqKrymxLAFVtxAChNhgtY6EB6bRjioXgKJwDBMbCuGVAaZdIp8ZYWW66Da7CpMusTZuWxLNZB2m6HxGONnEhy/EqF/xCDWb2/kY/d30oPngISpAMn6WoX/4Zd+g3/3J59gJ4LeckeI2vMRQmBICyEknu/hK0UqlmSob4ThgXFGB0ewrSQpKwZANJ5gfnmGDz7/HsvFJVLJ8B1zB2F28H2N0oFQla9RKjhmWrDeKJIcFGSPuRyb7uOF14cYmY5j2hLDCqxcd+H+xZ98yD/65T9kdraAGd/6viqEQAhQro9hmyilUB4YmMSsOP2ZLEP9IyTjGYazY5jKwjNcvv/ZX7CQm6PteJw/ubswO3i+xu9qFdpem4ZXIZ6WjJ+LMzgmOHt1kNHTMWIpA8OUSGNrPg4Dxi//8i//3d6Dj5+gyWo1HP7ij64xcyeHNA0M3yBhJsmmBjg+dpwTE9OcP3mJi6cu0mo61Ko1sv1Zrpy5yoUTV8nYgyStFAZRTBEFz6DSKLGYn6farBCJRBlMjzKUHgMt0WqrhdEqNH4isJo6eDtAymBM1CCKW7eprsSZ+YHDe99c5LN316iVfSIRgWkY2PHNEp27s8y7f3aLcrmJkALtgnYFUhnErQT9iT6mxqYYTA9Sqa3TdnxeOneVr77+NV4++xqnhk+TTY6SMJLErASpSIrFtQVKtSKe5zHUP8pw3zi2DCqi7qpnyg+EGOQhrNwahDYwiUE7SnEB7n7c4J0/muH6O6vUSx6mjmBbFlb0cInzgJKy/bYxO8rl05f5hZ/8G/zUj/01/oM3f5ovnfsKlyavcG7iPAkriUKDDB629E3QAtU7eN6D0GKj47Mveppp0zCwDAPbihEVg9SX+vjg/3X4V39/lt/7v25QW/O2nhCSHUjz2osv8bNf+1l+8af+Jr/4V/4mP/Xln+cn3/oZLpy6RNxK4zV8TCJEjQSqbdB2dTgZECRCCIHrNtBq53t0UP52y0mnkhlgmhLLlFjSIBlPkU0fo10a4YPfhX/9K/P82n//Q37rf/uULz5Y3WLlD5LtCjkghBBYpkUqlqI/msFUNhEzimXYmIa5+V5GaHCf0AMUnX9CIISB9iWeY9As2xQXwKlvrxnah5iRYnLwBGfHzzGWnqDfzpKN9WEpG8sIXk8Cixe8X6I333W3XEurh8pqkPbgkxACKSWGNNHKwHcl7ZpNaSbG3Ec2y3fDWbKHueEj4tAIs4MAJGLHQkIDapeexxNEa1CeQHkStf21FXTwImCbNrYVwRQmQXdtl3wdEEIQVBDPwm0YuK2ggvS2GgfBoRPmXmzW/oNFiMP1PvYs8nQ93p4mXIhwXLPzd9BneewEHaQ9btRp/58Qz2IleaqytNOrZbdAhOgd9TwgnrQww2bkMLQmj4qnSphPuLyfOrZ0EJ9yniphBm1378EjnkWeKmHqzhz5ETvyLD2ap0qYGzwjVlP0vJsEA+IPnrnuma2nnadSmKYhiNjbk96ZltsJIcAwt5/zIChf47V3GsC8P6yYhWlvrkLXevdZnL14kHMOO4+mpA6Ae9kVIbcOo2gNvv/wYnqk3CsTzzFPrTDvyU5d+GfPsDyzPLvCPOKp5kiYRxxKjoT5DPAMjatvcCTMZwARTss+SwI9EuYzxNGU5BFHPGaOhPkM8SyNhh0J8xniaEryOUcaIthf/pC4DQ+vvX3PUAff09hWAin3dp51NCV5SPB8jeMe3PSi8jXeI7i/GTMwrN2LQBoC12uiu/fpPifs/lQOIR2nAbvtKHxSaO3jqxa+X+/9Cgi2DO/nhS/Iz+49aSHCXZIHmdkD4tAIU6NwVZuG26KlXRztIW2BEZG4ykWp0A3cAZWRIQVatFFGjfhQmzOvJ3nzJ46TGthhz7oIEukrH197SGt38R0EfvgsPa+N69cxE1X6J9tkR2zE3m8NT4xDI0zXd1lcW+S7H32Hdz75Lt//4l1uLX/BYnGeXHmFtu+ABC00UgZL354EvlI4bQdptxk+qbn01Tg/9vODfOUXRrj05UGiqR1KUkK1UeXuwl0+n7vGTO42q5Vlal4NaQksO4p8gjvItA59G4W02w6uapAc9jnzZoS3fi7Dl34my4lLiQ3fUQfNk3s6W9iaea3A8xVr62t8cvtjPrr5Hh/ffI/vffIXfO+Tt/ngs/cpNtbQhsJpt1ivlyg7RapulapbxdOtzWVuguDhPqxuhcaMuSRH65x61eblr6f4kZ/L8qM/N8yrP5Hl1NUkiYEep69dVBsVbs5/wfufvcfbn77Ne9ff4f3P3+G96+9wd+k2La8FAnzfpe238JULOyzX2x2x/xkfEbRIbdVApqqMX/R46d+P8aM/P8CX//owb/2Ho5x/a5D+8WjvmQfGATnV0oBgfa3C3/+lf8U3f+8TIjEbaUsQCiGDklGehxBGWAhBzY8YNkOZYYYGxjDNGKY0SEXjxK0MUTtKrrLIJ3c+Il/JBd7exq5yfuK1DavRGVLRKnCm1UmN8jWe7+HpNtEkZAYjDIwL+k+0OXVpjOGpOJHE3lX5L/7kQ371l/+AudkCRtTorX8IFTg8iCdtWk4b39VMT0xzfOQECTtDxExgGAaWYROJxIlEDL75/u8ym5vZwalWsNWk0yNXvg7yEd5zI69CIy2fSFqQyCoGjreZvpzi+Av9JPojSGOPDB0gByTMgGq5wT/+B7/Dt//4Gso3cNoulVoV19Ohz0uBNEN3eaFV0ArwAR14W4uYEaLRCLYVIxXrw9cOufVVas066Xgf5ycCYRIW1sbQigZPaXzfQwkfy5bYCYGZajJ40ufECwMcP9dP37CNEdnfJrh3v/1D/o9f+QY3b6zQ9jx810diIIQM/FKKrdZNKzCxiNoRInYU24phWxHidoLswDDxqMWnNz8mt76K21acP7G7tzcVeq1ToUNXhEc0IUllDZLDiqFTUS6+OkRqyMdOmBvW9rByoMLUHty+OcfC3Cr5pRpfXFvis2szLCyWiDRjuG0PIyZxtUvb8VFKbfjfgU2xblzPDz2cyUB4qdimMDdWsOugmVZKgYS2rmMkHMamk5x9cZDjFxKkhhR2sjuIQEfM4Q13KdOZ24v8+R9/yA/fn+X27VVKa3VES4KWCEvS9nw8L3CQJaVAdNrsTqXTQR4C0xcelBppBl7j9vKP6foumsCBli9bRPqaHL8Q5+yrgwxPxcmMWLum+zBygMLs3DZ8WioQqu9pyvkWN3+4yO35W+QK63z6wznuflKgvt5EWgbSDLwDI7t76Too6E4h+1uFGfxC47sKM6ZQRpPkmOTY2RjTl1MMn4gTTRiIHTrZG+jdRdlBe+A5Hu2WYmG2wI1rd1hZzXP7zgJ3b64x+2kOpRRWJArCQCkBQm+8V4pdtijv6FG4Y/2FpuIViGXg+Ll+zr40wOQZm+QgmFFzx+sddg5QmDvQKXgdiCgYvtMUcxVWV9dwyj7XPl7mW9/8mNs356iVHBrlBpIYPk1S/X0YESMY/wuFuenq2kAZLm2vxviJJGe/HGfqfJT0YHTjnN3RParsfO49qRPwIEDrwPGm1oFb77W1ErncGmu5dd778wU+fu86ywtFautN2g0f244QSRogBIa9NexLrzARGi09EBoj3mD8YoLzr/cxcSZGJBnmpzt5W+xAZ8C+90eHh8cszO4C7TyAzkPZ/0u3UgrlK7QC1/VxnDbtpkel0ODujRXml5e4fWuJpRsONz6Zp15tAJBJDXDx9Iu8eP4qY8fjjJwzOX4hRWbcwo5uegV+4LLZYkHDfG3xbd7lPU0HQ0/K91FK4zgeXtujXvLIL66zML/M7OwKd28UWLhV5vqnM/i0iKfiSEPi1eHC6Ze5evY1ImYcK+EzdSnJ1BWbqbNJzLjEsiWGeT8Ov3pare7DYZp7v3pSPGZh7sT9CDNwib0jGnzPp9UMYuS0mi61gkOz1iKXq3L7i3kWF/JMjB3j3/vql8iMQDxrEY2bGNZDiHFXOtay68L7KNhgK7CP027jNF2aFZd6pUWj3mT+dp73P/qMQn6dlcUyE9mTvPHyq7xwZZyR6RiZYZtoWhKJGZtC2g2x07TmPSxm9/X2+Nnj4ACE2VVL71lwewhzB5QXdG4cx6VaaVKvNYhEIgwNDWDYOozYsD/B3D/dZoYHu0E41ar9wFlrvdZiLb+O47Qp51sYKsLwaD/ZiQSxRHcF20+GHkCYB8hjFubDVrn7E+ZWegXSVXj7Kcf7QHuBZ2E7JpEWXWNCe+V/l++2JHsz7InnBENdhikw7N487SdDOxVz59zO58PDYxYmgEb7QW8YDZ4nyK2WmJ9fxhQWE2NjZEdT2LHQU8YWHe7ngXfoER6d2Z/eQnwIVGCVfU/TanlUijXKlTql5SqrKxUmxkYYGh8gOxYnkbEw7aDHvTUdHXRXmnZLY0/F7BXt5h8PjtIoT+O6Hq2WQ7nQJJcrILA5ffo48ZTAjErEE5oC7vBYhOk5mkatRbVSo1JtUCu1KKxWKeXrNGotVpbL3L27yGD/MK9cepUTJ0ZIjggyoxapQZNU2oYdpqD3pqdQt/zZW+D7w2/7VKtNWg2PerVFpdhgvVinWnAo5GrkltcolqoUVivU621eu/QGJ44dJzsRJztlkxmWJPokqYEYVmwny9+drp2EplFhgJmtWtzptx32zmsnT9VqHddxqZQccotV1lZKFAtV1teq5FbWGegf5ctv/Aj9QxbpCZP0kEWq3w4jrfVetZu90rZ/7k+Y4S+10vieT9vzcNtttCcplxoUChWajSa1ksfa8jq5lQKFQpVSocnqUonF2RKNRhWJDUpwZvoFrky/yWB6iPgA9B836BsXjE7FSQ1ESAxIYnEDw5bh8rAHybTeLKzOAHmI8hWe59Nuu/iej9tSVCotqtUG5fUqrapHbnmd9UKDUr5OPldmLV+jnK+xXqjTarVQ4btbOt7Hj7/+kwwmj6HxSWQl6RFFalgxeWqAvlGbWFqQ7LM3gz9tqTgdtgrTR7Dlp13f7XQUNG7bw2m5+H5g3avrTdbyZeq1Jq1akKfcSoFGvcnaaoOFu0VWFkrUag209rGNOGdOneeV018iEYnTf0ySPR4hO2HTP2aTztpEkoJI1AyCxPbcf9vz7v3JPrinMJUX3KjZaOO2PVpOm0atRa3cYC1fJr9SQjdNbt1c4fpnc+Rza9QqbZp1B8/RWFYEK2ojDL11SZUrODN5gfOTr9AXGwYEbc+h5lVJpE2Onc4wfl4wcixKajhCIm0TiUlkMFN5H4QPSoPvQavRpt12aTRbNCstqpUm+fw6lbUG1YLL3Owac3MF7t6+S6sp8D0Pt+GjPI0Vs4IOh9RIY6tJj+oEX3np6wwmj2FgoTW03CZt1SSZshkaj9J3QjN1PkV2NIqdEhvRf4MxR7FDxvaoiJ2OklJ4LjTqDdptl7brUVwrs7y4Rq3Uoln1mbuT49MfzLGynNuWJzMaRG8TUgZ50iC1yZnJC7w8/aOYxIN7CYVLk/ggHDubYOSkycBYlMyoTTxpheEAw1cXCIW5+fF+2V2YGhynzdKtAp7nM3M7T255ncXFHMsrOUrFCnN3SuRmShunJNLpYNGAKTcWYnQbAyHCeIkClAdnJy5y4djLgTC13DKXrdH4Ro1IAoZPxZi+kGb0VITEoMCOmVi2gTT15pzvbgaE4Duv7bMyV+CT78+RX13n1p151otlKkWHlYUya8tV2k2FYRhEEhHohAyUXSH2giNB2EAZWD03nGLsFWZ3dDK0RqGoeEUiccmJc/30jwqOX44xOB4lkrSwYhLLkjush9w+DKV8RaPmUCk0qJWb1Eqaz6/dIp9bo1Aus7RYYP5OnrXlCu26j2GaxFKpjfNlsC4mQAPh60KwDGSrMIUfC4QZrg5xVAuXJqm0RWrMYnAsypnLfWRG1cZwnNmbj73KZhd2Fabv+Vz7wU3+9l/93ynkKgBIbAQGVsTCjttgBPO4vQiCnqT2FdoDiYUhDaJ2lJpbAalRfijMyVdDi9m1yKJr/aDrBdFym7qCEWkwftrmzEsjTJ3uo29CEU1HNgbJd529UZBbWucf/oNf51/8n/+OtOrDxCKSsJERgTB3X2qmPB+JiSSwJiYW8UiKTF8GO6q5uXQb0LsKk0CXQd40G2EDK80SMtZmcDLK8XMppi+nmDyXIJG1MIzu/HTPJgUlXCpW+PaffMQ/+1+/wfXvLwMgiSIQRJNRjDDepZDsIPTwnVWA9gX4AgsbIQSuaKGk2iJMS8RBi66KFkSUU2g8TyMNQdUvMDRsM3nB4syVIcZfSBDvFxuD/YLOAob9sy9hOi4YdkeBoQP+Tpi7MGiXDGfQtAfpWIpkPEPEjpOOZxjMDJHK9BOzBT+48QE35m/ieT5nJ7cL0/c2CxSgMx2s/GCLgdLgSwcZrzEwJjj76ijnX80QiRukhsygOeklFOav/k//hj/9NzcQdpD+Tj4gWOmjPYLFE2ZQ4ZQHpydOkooNkogkSaYypGNpoqaNQFCurfON936flmhsESa+uSUPOwlT06mA4YKOSBMr22T6UpZXvzJGIuuT7LeQYVoDUQbCLBcbfOO3P+R//ru/CUojN6Yvu8rGD/K0IU4N2hPEzDiJeJT+TB+JaD9xO0k2PYiQis8XPuGL2ZuYxnZh0om7Gc7A6aBDD4Dn+QgEvtL4dg27v8H4qQSXXhtl+nICO0bPoph7DwPeU5j/1V/9p7Q8H2nIoFlSwZ4WwzBIxpKMDA6itObO0h20B6emTnFm8jyDiTEsM1ipbUgzmFbz23zn2p/xxfxneL63RZhbmvGupmNTmGFt1QAahY/SBIsuRIvJsxbjlwWnLg0yejJJJNn1KqE3hflnv/kFwg5qPb7ANiySiQz9mT6GBrJEI1FmFmeYWZ4hKmP89Ff/GsOpQZQv0TqIkYsWuH6bxeI83/rwD2mJ+r6FGeoRpRQ6XJ8pAKUVnvZAagzLJTboMXnB46UvnWHiTJxIarMsy8V6IMy/85tIK4ga14nqJ1TwbmdKk/5MH1bUYKmwjKElZ46d4eKpqySNLGYYPFYKiRQGlXqRT+c+4gd3PtxRmL0Ws1uYhCu3guNB2WgJ0nJJ9HuMT0eZuBDh9JUsA5ORHaz4dnYNcqqVJr9a5I9+4wd4SpGKJzk9cYYr517k8umXuHr2FV564UVOHTtNMp7h008/QwvN6anTnB4/SyaexZQRDGEihYHQEt9XzObvUKzkUVqRTQ8zlB4naiUCMYYZDTZhhenopGfLdwLlCbQv8V2B70iqJVi80eLm+w2uvVuivNoikTBJ9gXLverVFu++/Rl3PyuggemJk7x15S1ev/QmF09c4tToaaZGjpNJ9bFWzrFSyGEbEa6cfYmEnQ7COutwCRsCXysqjXVmV27hCRcTmxNjp4nbGdBbI+920t8RpJRdGQxNttYE4vclniNpViTlZZM736/zwTcXkNKkfySGFRU4TZfb15d5+1ufIU0DXMHZ42c5M3mGC6cvceX0y7x46iXOTl0gFkuSL6yg0JwYn2Z6/DwxM4UpbExhYQgTgcTxWuQry6yUlpFSkk0PMdY/hSEs6ER06xJi13+BhVbBZIAgKBflCvy2pFWVFJYUs9fq3PhenZufFonEBck+a88t0Lt/04X2fdLxJOeOn+PyiSucHj3NVHaK4eQIGXuARCIZNIMaDGmCNtE66Oh0BLdFeD3DNveLCANAGUbQETEMk3ZT0izZFBclcz9o89Gf5rn5cQGnsX0qTviCicEJpidOcSx7jJH0CNnUICkrjUVk2z5u1Un/lqObBIFJ98eWAg6ObHwSGzKV4Js4FZvikmbpC83yrQaNstN1XogvSMfTXD37Eq+cf5ULxy5yanSaY8NTDPePkIymA+uIROoIcSMatHpdFeJxIATBviZl4tQN6gWb3KzmxnebLN1cp+3sHbj1nsJUeCgd9OyS8RSJSBJb2kiCyLfdm5w2zun0RndhY0ThAQle3rfHZZSGiWGY4NvU1yXVkr+5ZrELAUQiEWzTBr15HQ3oHX7fYWP7cC87HXsIVFfGpGFiyTieA57bUwNCkUftCP3pfjKRPuIyjiUsZE+iNAKtBAZGkI97lvzeBGUQfN5JA92I0HgYhoVbFzgNF30Pt+P3TJ4mNIWPkIc0mABBR2iXByIwkNJE7LnqdztCsLHVVmiBDvfRdH+/kwh7C3m33z0oItyesQ0RlKDTDlavK29renfjUe2q6Fzmcbim2SG3WxEYCILFq7shEPvaF9O5hH5Yk/kYESIcGFah9exK6vZmeGeCbRP3eBh7IO/z3HbbPVROEcReQ3f75J7ClFgIzI13kt2woj0xxXt5yBg2TwKtwQ/DpOxUzk8iAJYQAqMzObEPHnd6HoSHrZjsR5hHHG7u4W/rqeVImE85h9FiPgqOhPk00zXz9qxxJMxHQOjd5ckjNqeCnzWenDB1MNf6LLLTQpYnhRAQj0fvuyd/2HlywmR/Qy1PJQesifvpxT8tPHs5OuKZ4EiYhwytwX8OXVv3ciTMIw4lR8I8ZAgBxk7z4s8ZR0/giEPJkTAfBc/qaMMBciTMR0BnW8Oj40jpR8J8BDzK2RetNe49FtE+DxwJ85AhhMA6pA7774XYI1qI1uC2/H0vOnk6n8Ajwm+r0NPI4UFrjfcYVoQ/anT3Lsl9sl9R8rwLU5qCwzabJ4TAeMrmvR98Abje9X36kBXLo0P5Huoey36EFI9uA8wjpHf1t8JF389WzMeIINiQJ7q2yvSmdyeEIPD7tI2djj2DwvQ9FyVapAehb9jECH0QdaMFeJ5H22uD7I4YsbkZ7VHTKcj9+XzXuK6D6zrYMZeJ8zB2JkIstXcvS1ryoffa3Ivup7nbrYJdslufe+BFxcVTDZR0w62yu11hn8IUEhy3xXJxkdncDKuVZepuFV94+GL7WIlhBE3krttdHzG+UigczGSdkTOaS1+O8erXh5i+1LeDmzxAauZX5/nszjU+n/ucmU6evBpKBpZJiNCi7nD6gyJ7mz0d1pLOn1rjax9tt0iPKqYuGlz+8Tg/8nMDnH09TaJv+/o6raHpNljMLbBQnKXslGn4DRzl4Gp3IxTgo2Nz31NHehu7JMOWWW/80/i+Quk2kYzL2BnJ5b+UYvJsH1Z0e1662ZcwkVBplvn0zg95+9q3+eDmu/zw7sd8sXid2dwdSpXCxs5Hw+iJnPAIC7aD1oFHC89vo602mVHJsUsWF75q8WP/cT8/8Z+N8eZfGWF0OoVhb98UIwy4s3SH9669w7c//hbfCfP08e0PuTn3BfVWDWGAloqWU6fttVDCByO0rg+Rp+4HrlRgXTzl0fabiGiL7AnB9Cs2b/xsP1/9W4N8+ReGuPzlQQaPxcJK1mOJ0FTbNT68/j5v//C7fHTr+3w68wk35m8wtzpDqbaGJnBkJKRGSQ9phM2x2F9egk14vffd7Mxs/h84uVBaB9HZTJdEv8/YOcHFr0T4sV8c5Gf+y1NcfHWceDyy5Xq93NNFzB/8xod4fuBGr+40KFXXWV3LMbc0x8ziDMuFRcq1Euv1EhoYzY4QiSRQfuDPxtcKpRVCgMJnfu0Ohcrani5i6M5s+Lnzt9IKTB8j4mMnHcZekFz5ah9vfH2El/7SEONnE8T7Oo7zOxcRGy5ibn+SRxhBxXG1S9NtUK6VWV3LMbs4x9zKXVp+I7A2vk/Esmh7bRy3ieM3aXstXNfF9R1qTpmZ5Vv4wtviIkZiBOntLsst+dG4noenPaSlMRMu0YEm4+fhta8P8drXRjj3WorB41GiSSP0O7l5KafpcuuzJb77p58GDh6Acq1MqbrO/MoC84uzLOXnyZeXqTRK1Jwanu+STqaJRCIo38Npu3jKwydoIRy3zmp5idXSMlIaW1zE+F6PG5KevIjQ442vwvCHMU18QDF0As69GeOVn+jnxa8Ocux8nFh6e352YnenWr7P9U/v8N/8J/+U6rpP4KspiKaADpu5Dl0f05E06cQAA8ksmXSWaDSBZZikI3GkbfH969/m5vztbd7eup1qQeBEi2B7dxAnUSmkCSLqkBxVjJ2KMHEqwsW3stiJnnB0mlCUOkicFqwtl/nH/+h3+N1/9jFGTG48VNXx/7Lx/rf1iWkn8NRhCZN4LE0qlSIRS5KKJxGG4v3P30Oau/vHpFOxws+u9tFK0VI1IinN8MkoU+cSTF+KM346gRXbwZV0T34qpSZ/+v99xK/8d7+OZcfw8dFCIxAoFQhFdHooXdfQPtgqykA2S39qkGQ0SSKZIhVL47p1bi59xs25m1hmdItTLc/dFKbucaqlfIWvfUxL4ugKySE4fiHF2av9HDuXJDG4PR3b8rcDuwpTKU1hpcTv/PP3uHljiZmZRdZWK1SLHvgCM2qi0GitNsLcdfxi+q4XtFPCwDIixK048XgMy4pRbxeoNGp4rt7iH3MnYWqChywtAXaT+JDmwpsDnH81TXxAYyV6OgPdOdnIfHCw1XC59s4sf/KHH3J3do7Sep3icoNqvo3TcpAW2LEoYmNwe+f3Y+X7aF8HXj7E5raK3YTZEWUnLxW9RiwtmT4/wMUvpZl8IU48bezT53yQF7+tmb2xym/9y7e58dksuZU85aKLdk2aNScYBrONQMwyUEJvXrQX1kctsKRFJGojTJ9as7nNP+ZOwgQQ4fUrqsjk+TinLiSYvpJhcCqKHQ+f445CfAg3hISJ8Nwgklej6LI8V2RhPsfC3Tx3ruf4/JMlblybQdHCIEY8HUOEZloYXa5TtED7YYfCDC1Vx6PwLsL0fUWunGf8RJTTrxmcfWWI4ZPJoGkzutwvbARW2jujhJHJfE+hlMKptVlaKDE/t8zsrRw3P1nj84/muH3zLiAwRIx4KgaGG7j6u8ew0m7CBHC8NjWnzPmLg4xcrXP26jgDk4Hntq299I5V7EWE/zrfC5QKvCR7jqJWaDN/d4XcosOdm7N88fkid78osLqco1avYJoRoqkgSJVh270XD4SmBdIIKtJewoRQ0NInPugw+ZJk4lya6UsZ7JiBNDrWuqPkjrXn3mXUxZ7C7Eb7gYNOz/PwXB+35dOqe5SLVWZurnL9szvkVussLxZZvFtiPd+k7bgYNmHEBoFhdTVTHR/soatr5YtAmKZPbNBh5EycU1fijExFiWYkdszAMLuGQ/bWyVZ6cxi6zfM8hed5uK6P2/RxGh6VUo1bny+xsLzM7MwqC7fXmb9borLWQEoj8Fdu6MD9Xxc7+ceUEZfUWJuJ81GOn88wPBXDTGjsiImxj/esfaHD6Gquj+cp3JZHu+VRr7isLa0ze3eZu7fzLC2tsjhfYPFOmUa5jRUzwFBBfHgj9L8eXq9XmFoFrwg+LZIjMDxtMnRMc/rFLLGBwJ2gdc94nPfHvoW5jfDVTPmKZsOhXm/i1H3KhRYri0XWVsvkV8rM3F7m5s0FcstVnIqHDGuNFbM4d+IiF469QjKWQSY8BsYtjp2OMfFCjL5xm3jKxIqGER525F6LHTqWZh+ET8H3FI2Gg+M4NBttSkst5heXaNU95u8U+PzaXWZnFynlmuBGcRvBcEwqmebHX/9J+pJZov0Gw8ciTJ6JMXoqQnrEIp62sCKb0YEfG2E+lK9x2z6tlkOz7tKsOJTyTRYWcizOrLG6UmL27gr55TKlXJNmtQ0EfYdYMsqZ42FwABnBE2X6J6Mcv5hm/JRNZtgk1mcQS9oPMeuzNw8uzF7CVsZzNU6rTbvdptlwqZTrFFarFJaaFFZrrCyvUi07LC3mGek7xtnpC5w8PcrIKYu+CYNkxgqCN20ZGunN/G5NXi/3Icxd8BxNs9VAKaiVWxQKZarrdcprDrmFGssri6yv1Zm5VeQvf/lrvHDhBEMnImRGDBIDFvFkl3XcSErQHD9JtA9eW9F0WjSqDvV6i1qlwXquRXGlycpSkdXlPKsrJfIrZZKRLF/7sa9z8twAqRGXzJhF30iUWNLEtEE+5oUmj06Y29gUlfI17Yai2Wizvl6h1WiTWyxhyygDg1kGR1OkBy2sePf5IrSIu4lrP8ne6bxHgAbXUVTWm1Sq6zRqDot3ipw4fpyRiT4S/SZmhG09/E2evDB3w3M0TsujXm2yXqpSLtRZWy2DMjlz+hRDkwliabCiYrNjuJu9eIQ8oDB3S1n38b1/4zuBs39pBJ2ZoPfYnRR5CArwXvfvfK/xWip4BzY6L/47nbfb8cOADjupQXAxAMM0A3/pvZHYdivaR8gDCLPr59siX+0nxR0Bip7fdScj+F6FUcHuGwWuG0yVWpZ5P53BHnYSUvexoDB3F2I3u+W7l+7nsNvvOtfZz/PeD/e6zn7S9Gh5AGE+CnZ5EBvlG3zvBS5je3+1SRiz3PN8vLagWq5TbzZot9oU8xUiZpTjJydIZ+NY0a6w0OG52+rFbjfakq79iGsnujtqvTWl+3mEn1Wntw3KE7SaDtISxMJ461LK7ZZsg92OPyz7lcrD3/eAhNlLmIRuH9g75M3vdKxcB9/TNOoOlUKdQr5CvSS4dX2OpdwKlXKV1cUSo/2TfO3Hv8K5q5P0jSoSgzbRmB28L/VqYy8eWpid8zpsvbkO4xu12z6e5+I6QUi9SrlGcdWlVRHkV8pkh9KcODNIJmsSyVhE4xbmRhygPdir0u2b3jzsxf0+n+0cLmGGH5UCz/dQSuG7Ctf18FxFJe8yc3uJhcUFyqU6d2+vMntrhesfLgEgiRJLRJGGgSVMTk6+wIWTL5KIxUgMSMZfsDn1whhD0xBJGVhRGQwIy3AWY7cH+lDCDM8J89VxLOb7Pm47GBd26i7r+Ra5pRq51TVWF0qU8mVu3Fxg9s4a1UKTmJ3g6sXXefHSZYbHogxMGZy6OEhmEiKJYIx3c3C7Nw33y72G4fbifp7N7hwKYWodFJxW4DYV5UKT+ZUZCvl1Fm6VeP/dG9y4Nk993cNtCNphiBTDksT6ojt6W7O0zcnRF7h44hWSZhbfDVa9WHFFS6xy+vIY595Ikx23iPebRNN7DBA/oDCDhRzBbIrfVFRLLovLq2itWZpd4/MfzvGDT24xe2eJxrqHbkVwai5CCqJpeyNCGwIy9iBXTr7B1OBZlCtRuKhIBZlp8MZXp5g8myYzIoln7EewLnMnYe4vz4+KAxWm9qBacLl5Y5a7d2bJrawzN5tjbbHFzK081WIL5SmMKAgrCA3du2qne6pQeeFUqNhBmJ29PYLgwYsg1qGdcRicVpy8lOHE+QFSw0FsyS1lsCHMexAulEBBveIxcyvHnZt3WVnNMzOzTHHZZeZOnnquTdv1MG2JlgotVRAUtiu0i+jRQUeYJ4bPIZSB0hrl+yA0wpCIWJ30pOT4uTiTZ5MMT8WIZzq96s3rPC0cqDB/65//Gb/162+zeKuMcGSwmtwK4tn4SuCH21ilFBsC1Cqc2+2gASWI2VFi0Sh1t4qrvN2FGS5Q2VhUJDWGqVBGGyPmMjIV5fhVm9GTSSZOpTDsXZrGzuXC77QL//ev/R4fvXOHlZka9YpD23FpOy6edjFsE9/T+FrgO8HiB2mEHRgFWgvQCo3aCAMjlQArWPm0IcyRc2gviFS8kQYNSvtggmEKPNGgb8hm6kKUsQswdmKAzMgeC1467JTPA+JAhflrv/pv+e1/8S65hUbg41GKoOesg3DPvushhIHWCmnIoIkzIqSifaTifWQSfdh2nEw8iSElhjT4dOYjlkoLaE/sLkw/FGbngA7fabWPYStEvE5i0KZv0GL6hSxD0wbZcYtExsawugaZxeaHds3lb/38/8jcjRLakWiltiyWlqYMrKkIpliFDCqYiUXUihCxo9hWFMuySURSDAwM0axW+Wz+Bzh+i0ykR5g9TnA7efJ9hed7mJbEjLrIZJPMUJTRYzGOX04wfiZJImUgOxWu+zJHwgz4tV/9t/zuv/yA3EojaMp8kEhMYRFPREjE4gykh6k2yqwWV1AoTo6f4tzEBdLRfmwzglImthFYg3q7xvdvfIeZtVv4rt6/MAl6xoElVcFeIAGGBfGMT7QfBiZh/FScY9P9DB1LEMuEpRh2mpxym5/72t9hdaGGFYmgw0WLAhkEs9JgYRFLRKg5NXzlMZgZZCx7goH0IMlogkgkjilNLCJEo3GWi4t85+NvUHMrZKL7E6bSm8vtfOXjKQ/DEkQiEB106B+LMnIyRv+wZOR4goGRGJGE3Bwo2KhwB8shEOZ7rC7VyST7GMtOkk0NEo/EScaTxGJR4laShbU5PrzxfaqNKldPv8xLZ14nbibRGtpuEPUVoOau8/71bzOTv4XXVpwceYFL069uE6bWGl+FnZPOsVCYAMoXeGH4Zle18JWPlfBJ9gnSgwaDEyZTF1KcfmmI1FBQik65zV//2t9jaamMYZlkEhmy6UFidgLbtLCtGPFInFQiyfc++S759VWOjR7jysnXGRuYwjYtpDSDvKhgOGt2bZZvffj71NrlfQtTh/nbWAuqBVoFInW8JoYlSPSZ2HGX5IBm8ITFxJkYk6eSDIwldtyKchDcz2je40NBOp7hwsmLvH7pTV4+9yoXT15mevQMw6lR+hL9mKaF8oIOjvLA9TSut7lo9X7Yz3bTDpaMYss4qpGgOGdz87027/5+mXd/t8jC9WbvzwOUYHLwGG9c/BJvXHqL186/yesX3uDVc69y6cQVMvE0RhigJ2JEiZkJDGzwJdoLhNRBC/1QIQ5FuEDZkAa2jGP4Mep5g9Wbks/fbvPu71T583+d4wffKtAo9559cBwOYQqJadokokkSVgJDmai2RrXvz5h7ntpYnCvEZocJtnZgui3ljnS2WYRIGYQ7NgyTaCSF4acorwjWFncWpkDSnxxkcnCK0fQYA7FBEkYSQ1sotyveoxaPpd0MLGX4xw63EEJgWhaxSBrRyrB8XTL7qYtTPRxy4NAIM0T7GuXeSzX3j+gRmu59wexBhFuQHwalBJ4XBB7dDaUk6mHM4T4JJg82CfZ9B5+lIbCjFpa1fWX7QXKohPm40Hrrto3nHdMIxoQPM8+FMI/YytNQRY+E+Rzi+f42BwaHjSNhPoeYhnHUlB8GhBCPbdPU08jT8CSeC2FqHfREj3h6eC6ECXsPDz1v+Kpn2usQ8pwI84huuvyYHFqOhPkcspPzsMPGcyLMXdZUHnFoeS6E2Tsl+bxz2McweV6EeTQluRV/Bx/ph43nQphHbOVorvyIIx6QI2EecSh5LoR5NCX59PFcCPNoSvLp47kQ5tGU5FaOpiSPOKQc/teaQyVMIQXh5sFHTPfGtP2xW9Pfvc33SRDsT3+09+t1P3MYOTTCVFrjaRdMkAaPNFyzuM+p4d53Uq2DnY1KKZT2MGMuqSFI9e0edFSEgX3v5747EUTdfThhdnTdSYsKHX0B+H4bLVzMiEbIB9gL/Zh4hMX/EAhotGosrS2yXFqi6lZpqRauclEoPOUFluMB2YiAtk+EALPLyaurPJAeVtylb8Jj+nXBi385wvSV1Jbzumn7DZp+lTZtPO3hh3Hl9hRqt2XcENP9mTete3SsCbcJ642dn1IohOFjxRSxAYeRaZ+xUwZW4sGf8aPmUAhTSChUCrz7yTv84Xf+gG+8803eu/YB86VZCk6OQi1P2w3ctmgNOvC9sq2QdytDIcTW7bg7/GYrGqUDKRkW2CmHzFSTiz8e5Sf+83H+o799li/99AnS4ztfSAvNzPId3v30e3w2d42l8iKFRolicx3PcNGojmIQYV4I/Wd2UH5g1YIIbDvfZye0CnzbbzmmNZ6vcV0fLRS+VSWabTB5VfH1/3SKv/HfXuGtn54gPWg9rHF+ZBwKFzG55eZmQCcdeNoAwBPEIjGS8Rg1r4py4ezUZV489zLZZD82Fi0nLE0BTbfC9659i7u5vX0XAXhhwXfY4iJG+6w3CwgEl17JcvVrw4y/YJDMSozIZjo3EFtdxJgRG+X5aAUCA1taDGT6kVJybHyK2dXb5AtrTAxN8Mr5H+HE8CmkkrRDBw/KD15nZtZm+NbHv0+tXaFv3061dp4HV/iUm0UiScnVrw5w8a1+Js7GgohpHTqn7b8ePDYOXJi/+U/eIb9cw45b26KNocOmLLQoGjC0gaktInaEvnQf0UiSoewAfYl+hIDrdz5joTh3T2EqP7Rb4WGtNK12C0/UOXYmztk3Epy8nKF/PIIdl2Eo5dC6dRK0UZJymzA30MHPZWj1pGeiDA+FRvqSvkQ/6WQfqUSGbH8f6fgAtpUkacVYyM/z9rVvUXdr+xam3rC2Gsdt0lJ1MkM2F18f4uzLGYZPS+yExLSDcIFbXX4fHmUekDAVILn24Sx/+gcf8NGHn5FfKlMtQasc+FmPJqLIyA5J6xzSAolEisAiCSGRUuCoFq52MZW1IcyUNbgtVqVSGs8LvAxL0yU9Khh/Icr4WZOh8TgDEzZ23Nh3aD3laP7r/+J/4cPv3aVds/BbQYmbMQNhdeUjFGrns9ACiYEUBqY0MQ2LeCRJIh7B9TxWyou4ytviH1MoY3t+OhZTaRxdR9pNspOSk5cznLzYz/DxGNGUiRU5FLq7JwckzIBmo816sUq5XKW+7lBYarKyuMZqPs/s3TzXP52nsFRBeSYSEytiBo5UQ7/pumPAtAii2xI+9B6PwilrEK2DcHyd5rrSqJDsE0yejTN2NsbIdITBYxEiCYkdMTC2eEzZpSS7Rabg5hdzLN2qUFypUSgWWVrOc/vmMjevL5Fbq5AkhURix62NiMXILgMMgY8kKTHCYE+u76HRW4SJLwNf7uE5nq+RQF1VGTkR4/j5JEMnBP1jkvRQlHjqCYULfIQcqDC7UZ6m1fBoNhrUm03WCzXyyxVKy02WF4usLhUoV2qs5kusLpdplh1c1yMSiyJE8AogOoUMmL7F6fFLXDn1GlGZATRKeAi7TWYoRvaYxdhpi+wxk1TWIhbGrdyk+7HsUqI91g+g3VS0mg6tVotqrU4xXyW/XCW3UiU/Vya3kqfmtJify1PKNWjVncDJlW0j5O5xM3fyKCykRonAMWus3yN7PMLk2QRDx2LEMzKI7mvsz+IfNg5ImJ1b7vHEdGCF2i1FqVilVFqnVm2wslJi4e4apdUqpbUmiwsFllcKNCpNhLLx2j7SkNgywumJC1w6/TJRK04kIembsDh23mZgPMrgRIxUVmJGO8nYIy0PRJjHsDPXangU1sqUSus0Gi3m7uTILVaplx1yKyVm7+bIr5Vxmg7aN/BaGitigQyilPVFh3jx1FucGDmLUgpteGRGLCbPxsiOm6TGYWA0GsThtJ8u67gTByTMzrhI2O7CPcS6mcR2y6VWa9KoOVRKDjN3VlhazlFbq7Oec1nLl6hUGqznW4z1T/Haay8zPtXPwGiE7Ikok6cSROMGwuy8B3Toak83Pu+Ult3otbC9f3ehoVFv0ag5eK4mt1zi9heLrK4Wqa7VKeVbrJeqNGo+hVyF3Mo6po7xIy9/mZdevExyUJIakQxMRTh+JkMk4RNJGgjZSXP3/fZ6roeXAxJm78PaoxCh53t2/I3b9MgvVcivrbG8UmT2xhpxM8WVl08zeaafzICNGeuOu9IrvN409H5/L3rP7z4W/t2b7R6Ur2lWHXJL66zX1lldqDP/RZH5O6usF+tcvXyZV988z+AJm+xEjEiy0+7vdO+9jh9+DkiY98H96gPADyJfAJiWAY9l/v0JoIMKp5VmvVTHsg3SffHNsdRnmGdTmM8s9zC5zxC79AGPOHw8P6LkSJhPG7rn37PLkTCPOJQcfmE+Hy3XPhBd00Sdf88uh1+YRzyXHAnziEPJ/w8VVvHXMHRY5QAAAABJRU5ErkJggg==;" vertex="1" parent="1">
          <mxGeometry x="430" y="188.51999999999998" width="76" height="70.96" as="geometry" />
        </mxCell>
        <mxCell id="E9rDun7O-10vDkbBBoyJ-27" style="edgeStyle=orthogonalEdgeStyle;rounded=0;orthogonalLoop=1;jettySize=auto;html=1;entryX=0.973;entryY=0.519;entryDx=0;entryDy=0;entryPerimeter=0;" edge="1" parent="1" source="E9rDun7O-10vDkbBBoyJ-13" target="E9rDun7O-10vDkbBBoyJ-20">
          <mxGeometry relative="1" as="geometry">
            <Array as="points">
              <mxPoint x="720" y="500" />
              <mxPoint x="720" y="225" />
            </Array>
          </mxGeometry>
        </mxCell>
        <mxCell id="E9rDun7O-10vDkbBBoyJ-28" value="MV" style="text;html=1;align=center;verticalAlign=middle;whiteSpace=wrap;rounded=0;fontStyle=1" vertex="1" parent="1">
          <mxGeometry x="610" y="200" width="60" height="30" as="geometry" />
        </mxCell>
        <mxCell id="E9rDun7O-10vDkbBBoyJ-30" value="Controlador de Ansible" style="text;html=1;align=center;verticalAlign=middle;whiteSpace=wrap;rounded=0;" vertex="1" parent="1">
          <mxGeometry x="240" y="582.55" width="60" height="30" as="geometry" />
        </mxCell>
        <mxCell id="E9rDun7O-10vDkbBBoyJ-31" value="ConexiÃ³n SSH a vm en azure" style="text;html=1;align=center;verticalAlign=middle;whiteSpace=wrap;rounded=0;" vertex="1" parent="1">
          <mxGeometry x="631.31" y="450" width="60" height="30" as="geometry" />
        </mxCell>
        <mxCell id="E9rDun7O-10vDkbBBoyJ-32" value="&lt;h1 style=&quot;margin-top: 0px;&quot;&gt;Azure&lt;/h1&gt;&lt;div&gt;SuscripciÃ³n:&amp;nbsp;&lt;a style=&quot;text-wrap-mode: nowrap; font-size: 13px; text-decoration-line: none; cursor: pointer; color: rgb(0, 69, 120); font-family: az_ea_font, &amp;quot;Segoe UI&amp;quot;, az_font, system-ui, -apple-system, BlinkMacSystemFont, Roboto, Oxygen, Ubuntu, Cantarell, &amp;quot;Open Sans&amp;quot;, &amp;quot;Helvetica Neue&amp;quot;, sans-serif; background-color: rgb(237, 235, 233);&quot; class=&quot;fxs-fxclick&quot; href=&quot;https://portal.azure.com/#&quot; tabindex=&quot;0&quot; aria-disabled=&quot;false&quot; data-bind=&quot;fxclick: onNameClick, text: name&quot;&gt;Azure for Students&lt;/a&gt;&lt;/div&gt;&lt;div&gt;&lt;br&gt;&lt;/div&gt;&lt;div&gt;Grupo de Recursos:&lt;a style=&quot;text-wrap-mode: nowrap; font-size: 13px; vertical-align: middle; padding: 1px; cursor: pointer; color: rgb(0, 90, 158); font-family: az_ea_font, &amp;quot;Segoe UI&amp;quot;, az_font, system-ui, -apple-system, BlinkMacSystemFont, Roboto, Oxygen, Ubuntu, Cantarell, &amp;quot;Open Sans&amp;quot;, &amp;quot;Helvetica Neue&amp;quot;, sans-serif; background-color: rgb(225, 223, 221);&quot; href=&quot;https://portal.azure.com/#@comunidadunir.net/resource/subscriptions/538c4403-2c60-45db-bf2d-6187b49c8dd3/resourceGroups/rg-caso-practico&quot; tabindex=&quot;0&quot; class=&quot;fxc-gcflink-link&quot;&gt;rg-caso-practico&lt;/a&gt;&lt;/div&gt;" style="text;html=1;whiteSpace=wrap;overflow=hidden;rounded=0;" vertex="1" parent="1">
          <mxGeometry x="290" y="24.52" width="293.5" height="120" as="geometry" />
        </mxCell>
        <mxCell id="E9rDun7O-10vDkbBBoyJ-33" value="" style="image;sketch=0;aspect=fixed;html=1;points=[];align=center;fontSize=12;image=img/lib/mscae/ResourceGroup.svg;" vertex="1" parent="1">
          <mxGeometry x="239" y="110" width="37.5" height="30" as="geometry" />
        </mxCell>
        <mxCell id="E9rDun7O-10vDkbBBoyJ-35" value="" style="shape=image;verticalLabelPosition=bottom;labelBackgroundColor=default;verticalAlign=top;aspect=fixed;imageAspect=0;image=data:image/png,iVBORw0KGgoAAAANSUhEUgAAAJMAAADBCAYAAADLo4LpAAAAAXNSR0IArs4c6QAAAARnQU1BAACxjwv8YQUAAAAJcEhZcwAADsMAAA7DAcdvqGQAACK3SURBVHhe7Z15kCVHfec/+a7u18eMZjSH5tJoDkmMTkAYEIaVLTDr2CXMFXY4zCXWLNh4N0ImkJBAQkggISzwApKFEEJ4EYhjjQMwBjsC2IXwErEmjNAi1pY0M5r71Bw9M329o3L/yMrX+X4v63ivX3e/V92fiOx+lfmrqjy+lVdlVanJyUnNokRDbRKmj0P1OJx+Fs48jT63EyYOga5CbQxyZSgtg/JFqGUXwehlsGwbFFfCwCrID8oDL1rUohRT5SSc/r9w+gn0kX+EsSdR1NDUjchyy5vt9SToCoo8oEAV4byXwdpXw8prYNnlUBw1YYuYxSWmyhgc+ymc/BH6yI9g+iioPKgBaZmARgVTaDQMbUGtuR7W/C6s/k3IFaTxomHxiOnkE7D/y+ij/wC1k6AUMABawWxyQFdB12F4K6x6FWr7jTC0TlotCrIvpvo0HPwues+DMPEsUAdVmgmPS71WEEjPCHQVVAG1/ArYdjOsu05aZJ5si6k2AXv/Gr3701CfCrs0bfZronKnHnEcHaAGV8PF74PNb5GhmSa7YqpPw95H0U/fDrlhGdpd6qKp1DUoDMCld6C2vN0JyDY56ZEJgmnY9xj6/31w7oUEkNdQ0KbSK2hQBahPwDN3w96vQVCRe2SS7Impdhb2fAn9rzdBcZkMnVvyYfVU0FAoQTCGfuYeOPBtU1NmnGyJqTIGex5BP/1BM++jtHBAzv3v+Me5TskNQO04+um74OB3zKgvw2Snz1Q5BXs+j977uZhec4focGQHRnzmR/rTBNNQOB8u+RBq8x/J0MyQjZqpcgqe+xx6/xdJP5ZvAxWKqKkWC3+nITcAtRPw9B3o3Y/K0MzQ/2KqjsGeh9EHHoVgapbtUgy+Jk9p01zmUlRRuQEIxmHnPehdX5ChmaC/xVQbN/NIe+43TUlLac8jVlRxwlJFCCZh9yfQu78oQ/ue/hVTMA0Hvore/RFQOVQBVMk0PY3/BW1SmNeogkaVZlwjPA/kzW9V0raDFOFS4gpL6ttOG+z8OHrPV0HPQbO8QPRnB7w+CQe+gn7mJlRhFLQpapUL+8VVhSpodE1BDlReo+szt0ZU0eyg6wqVM0LRQYDKgdY1yA2aQidv+mC6ZgQQFJzrL+/GKBl5DzCYhsJK1KUfgY2vN81gn9N/YqqegQNfRu+6DdQylAprl07RZtmJLq6D8nrU8Mth5Aoong+5EdDTpvN85hfo8V/A1EGYeAZ02TRbtFdpNdAqFNQa1KW3w4bXQ865Z9iH9JeYKqdh/xfQez+Jys824wMjpMHN6OWvQZ3/u3D+SyEfU0MEU3D6KTj+DfTJn8H4s2YJS1CcqbDaabW0raHWoHbcCRveJC36iv4RU+UU7HsIDj1smp3Zoupw3vWw4R1w3isg38Ztl6ACJ/83HHwETvzItK25AjqY6SLpdlYcBBUoroGtN6MueqsM7Rv6Q0yV07DvQTj8JTMaaunVtomegDV/DJvfC8MXydB06AAm98Oez8Dxr5k4BfmmGkoHpk+m5Y1gH0EFikOobXfB5v4UVO+P5qpnYP8X4NAjXRLSGVj1Fth+S+dCIuztD22GbR+Ala8zfSt3WiCH6c8RjhSLCWrKlaA+hd7zMdj7mAztC3q7ZqpPwYEvoXfficoV0gvJ3nD1sgFe8RMzYusWk0fRT/4eaupAOKSMQZvRZjR1KJRh822orTfIwJ4mIeULSFCBI1+H525F5Yp+IeW133nRRpxXPdpdIQGU16K2fBRybdzIDacsWsmbydj998HBb3WnfzhP9KaY6hOw/7+j/+1GyI0aHeXSiiaC+jisficMb5Eh3WHta2H4xUBC4YeTqiqn0SgzrdFynRShcgL9zB1mtUHQH8tXek9M1TE4+CjsuQlVHI2eSZbYe2c+B5AfgQv+Y/drJZfNH4RgTPr6CftUSpnZeXKyNEpm+crue+DID/qihuotMVXH4MDnYe89pvB997mkUFK5GoxcDYMXJvdpZsPKl8DA+hkBJ2EFpMNOuhVVgwGYPoDeeRcc+q4b0JPMYc62SXUMDjwEhx8OH0NyaBGHx8VShaHLoLBCBnSX3CCMXGemHtLUphanFFpFNQDTh9A7Pwz7vj5j2IP0hpiqY3DwYTgcDv+VahVLGtFIW9eVL4R8We7RfZZfC7pizpm2iZbkCO8ZWkpQeR69+46enjZYeDHVzsGhv4aDD4RXtEdIPqRNlJ0lV5zbJs4i1527ouoAlbdiLEH1HHrP3bD3K9KsJ5iH3I3BDv/33mlub8jmzSVOOG6B+Vxjqe08UIy4LaOcqYw05MyoT2uzAsKQh8oZ9HMfhf3fFDssPAsnpqAChx+HXe+HwpAMNUSJpxOx6KDD2/ttUhkLxR06GXdCUaWsqVT4CJVdgwUFqI6hd38MDv5tTz1GtTBiqo3Docdg541QHGkOkwLy1TrtooDKETNpOddMPAPuuyussKSobE2V5kIIUUW7Br0ElWNmHurw3/XMPNT8i6k6Bge/CLtvahaSKyJXQHGZ3bKP81+68Sehdloeofuc+WHzuwwsbjxdcrT1cIIqalReowpFqB9D77LzUGmXKMwd8ysmO2o78KmZpq2RyY54ogQkxSOdtWmhCFO/hMrBuW3qJvfC1C9Alf3x8MUXK3ibdsffh41+DrOmq3IA/exHTJO3wMyfmKpjcPghOPKwmURUbgZGZKKb8bbW8RVGHArzziR9GsZ+MrdNwqHwqRObJhlni5smFyuqXER+IPZrCOoIeuftsO+rwnh+kcmZG2pn4PAX4MgXzPBfKfEMmtyhTeG4tVlDnKKmy5Xh+Uegekzu3R3O/Ruc/CbklznxFrWsLx1WcC523zTkQBWLUD1tRnkLOA8192KqT8CRL8Oh/2YeBFC2RhJ29oqzToZL3A65LTz3t9xf5YyQ994hArrEwTvNc3FKLEi38XK3W+LmKQllO+jC34cCVSxA5ayZh1qgGkomobsEFTj8Ddh9m0lxlEii/F1sTWNdOzSEquD0N2HP/d3rsOrA9APP/hPkgpmLQSLj7Uuvb1/fhedDgSrmoDKG3v1ROPA33UtjSmTUu0d9Co48Dvv+HEoj/mrbl3kusvbx0RBKjHP3LS6H4x+Gw182b0yZDfUJOPY4HPuseXOcmxh53oa/IypfOB7/uPS7KFCFgmnydt0Nh787t31EwdystKydhSNfgX23+hfqxwmIMPMkbmamydhYNAQlWP1fYe0fQGljm7daAqgchee/BUcfgtpxM5kYhxYDSc3MyzDstou0BwhCe+nvoOsKpTS6XoHSRtT22+GC/zAvj1F1X0zVMTjyKBy8N3yQ0UFFCEERrsPw+Xt+dws1DKPXwco3wtBvQGlVsqiqJ+HM/4HT34GxvzdXvptOKxBfrvoEojGJiwzz+AdpHlBgRlDbboMNb5QWXae7YqqehsOfhyMPmTvnFisEKYjGCEz6i/9t0UZyVGhe2ATD18DIlVC4HMpbzQqDfNm8pKt+BiqHYOJfzOTnxK+gujv+IcyGEEQiogSiQ1vp3wiT2xG2LgHoWhVKa1Bbb4dNvy8tukr3xGTnkY4+YkY1hHf/8YjCJ6Ko31H4+mCzJbcMcmuhuNo0W7kSBFXz5El9DGr7wq8WhCJyiRRJRKH77K1IpH8jTG5HHNtFg65WobgcteX2OX2Mqjtiqp01a5EOf9ZkvBVSlChknyjOtglPUxiHrXncbUI/9zi+HPDth1PYcciCx+nvSHy2UULx2aZp8jToah1Ky1AXfQg2v01adIWEDkIK6lOms33w3rBpixGSHd67RI16JCpBSPacrpP+rq1L2v0gXY3o20+m26JiSkEeo53juihQpbyZh3rubtj3DWnRFaKSkQ5dhRPfNqM22wn1JZiwEFx/O2yPw84gywKUhe8732xIOm5UvFysSJrS7LmYLG5eKDsd4LmAfPFKWCNln9NTxdzMTPkcPEaVVJzRBFU4/j9g53vM8N+XeTgZaP2tXRy+gkos4C45iQyXNjKeEuXJlzSCIu6cHr8YQdmniXVNzSwB3nU3HP1BV9dDyein5/nvwM73mqdIfIlTnkzz2bnEicjnF5XZs0Ee13d86ddJTWVrHomssW3tlBQH6xeDXWgHJZg+iN51H5z6eddmyjsT09g/w/5bZmqkpoz1ZFRUoVh8BSHtk44x1/jOL7cJ0xKHu4+yaRc2NqzxO2WTlzRT7r5NjwE4+zT62XthfL+07Ij2xTR1GA580ozgZGJs5rhYG5lI39Xss5XbvYCMZ8u2J20urr1y7KWN3O6GoAjtc5h3UY39BHbfJy06on0xPf8YTPw8/E6b428T6yITCmacmmTnZnQnuIWZ6GZxHjz7yuP5hILPzmMrS6dh4/F3iROUMo9RNZ56yQ2jj30Djv1YWraNjG48Y0/CyX8wX4aUT5K4maBE/6CBJ5EtGepsp8F28F1nj5PKhQXYcgyPAKLwxbtlO+J4Tf0jJ06+cNw4C3+Z3wmCovF8RRF0Cf30fzHvY5gFMqrxnP0uTD3VumbH19H2If3dbRkWhy3wucTGxyeUKKRdy3ZEnGUpJAnK0nJ8sR2DbjLOw/RhOPA9x699oqLZyvizcOaJ1ilYt1BVzBFlzdVJYSHON9eC8tVQSeeU6ZFpk02ZReabPE5LDRYeo+X4zu+Y2knlZ15hDYAeQR/8pHlyqENkEvzoACaegvF/ad5FCskXcZl5cRntw57DNkVpUWFUk1wa3GYwLW5++NKZRlAtF67zO0pQ8lxJcXbjWR2DEz8XBulpib6X2jicewqCc2amW7UhpKZt57/P3sW1ibrCrI3yiMRn78O3X9L+VlgyfT7i0uzbP0owlqRw6x+37dB4RWIufOXj898PO1Ttk05M1RNw9pdO4c1SSEnYc8hjWBrxiDl/p7jxtKKKOn5SPC3uMeSxfPu6YrbncHGP4TuujHOS8Ovh3bAgh574V5g+JS1SkU5M9ZNQ+XW4fqdNIcVlpCSqcOwxpJsPks7ZCAvjLePu4uaDeyzfPq6NPb4vDCesyc/5TUJJu+epnoDxvcIgHXGnCNEQnAB93KxCjIswImFJthabWSqmOcuFX5jIe5qm+XD23IXQRYXnnMe+vc7JG7uvYqb2kHZuHri44Tb/JDm57bFhxk4VNFRPmYdJOyB5PVNQgaNfgf3vg7zzggkZUWieR4rLCElCIpmowrFpqHhPurAEQBAR/07JKRgdgBXhlw/cw8t1UbJ7I9c3ueHas7+LrqEDjdpyC2y5UYYmkqJ0Aqifa/aKis9cCOlsHXZW4KSCyQCmFsiNazgXunE9418JoKZbXVXDFJ25CQ1Hp+BwDWoJGegLdv3cElYx+Q3oahHqJXT1jAxKRbKYdNA89+BWry5p2m2JL2G26geoBfD8hLm6Gne8F4h8+IXwQsp3LCn74Wd7Y7UDxiZhvNq8v8wzWR6+5i4lqqRRhWnQYx2tdUqZzIT3W7crJN8VIjPFMpVvnW/pN3KhoHzpS2I6Zy6mphomJu/kf+S+nrx30Qpl2m4ZkkgKManw+2sRBS4ThsfGxXYwm/wijk3YH0kRy54nl7JGi8Pmg/Lku5t3MgxPSfvyWmMMcyXPDskk76HUzAN8MgJupH1XhMSOUpr8YvZRwEDQ9xVTE3G1go+i86ko0uaz+J/kb1HhspTcecnPD3pIsUc+fPRH0LaQPOE+P5d8DlaXzBXdZhnMO+4oqa6iXZqnWyyjJRiJmY6Rh3K3faJt2tdzYRO+V7SwKp00BMlTA2gY+5+w+49mTuATkvzt4ktY2rgqDePAiWmYqrdXGPOKmunbxcYxHOnFkdMwWoAVZSh5jqedbqQc6jdNBXieFHbD5TQCNSitha33wdrfcQNSkUJMwMSvYfd7ofqs2W6nwz0bIcnPpUadYyHQKfuojXVDDrKAXf+mbSfB8r0ETQJJCHO348J1DT38AtSOz8PIJY5ROtIVa24FlHaYWPg6d+0UchpbO5sssRnRC44w92wOynDrlCeXrZ+yG6FToWv4RZAQPCuKq2HoQumbCplMP6UVMHIZBM4UQZrEyFopTSaki1Fv0RBGDO2kyx7LPabvIra4+SzzOGm7QVhRDF/b8ceK0iUxV4bhq6G0VYZERGwWQoqysfv3qrP35aS/tHG3c2E+STub3jhcWzz5bfF1SaIorUKtea30TU26PhNA5SQcuhtOPx6f4EZYzNUikRkpqdZhvJ58a6EXSMpNOx9ok2Lt3f0UMFCAct7koxvWSd9JvtdJ7ldXQAXOfx1c/nDrsuyUpBcTGk58Cw7dA8Fh4xVVtvIqiRMKCTXSdAAHp42YEibie5pAzeSLzR4V/g6ESHJAKQ8rBmFFzuzXEILIKJ9oLHaAoMP93GJx96srYAKu/D6sfJlj1B7pmjkwKV/22zB8ZWPTi69tj7IlQUhaw/FJOBVA1cmAfnSEgtBu+sL/KrwAbXgdmKybtI+LK0jmr5t3UWHyv/ytz8L5N8B5L3I826cNMQHFlbD6P0Oxja9uJ50hSkiEXyg95Ty+1M/ExV+FTt5uqQYwialV4va3pLFxsfb5Mlz64Vm/qjCpqAUKRl8Jw681jxdL5Kxq0tHTNM2yWs8yPkHVVOt8lqyBomgqi3AfmZ21MdjxmHlx7CxJKm4/F34IyhdL3/ZIIyQwC8UWE3WR3oKeyatuZoXW5k02G2+Gla+SoR3RmZhUCTZ9CYo7HD95JTi/JWkzpaDg/HJrX6OfsemwaZLOHbwUczCcoiZy8zrOtnHswIhp1ZvgwndDztPKdEAbozkPZ38FR26DyX9ubuKksFxUgtAklQCOVOFcHerumLpPCcJPfciRl4vSUFSwsgznhTd6XRE2/jvHsGIkZooAwiXGGkZfC1s+DMPbnMDZMTsxoWH8CTh6L4z/dCZtcWKJG71FYUc31T4VkyxQF+mvwz+lHAy6r4QWNlJMeKYCWvy1WTm7/HrTVRm5fMamC8xSTJjlnRNPwLH74FwoqG6LiQ736RW0U6ASn9C0Z87I+jf9b1NMwTSMXg9b7oLhF8yEd4nZiwnMuy0nnoSj98D4z6I710lCyzJxgsITJicZSSEmK0yvmM5C+Tq45AEY3Ozs1D26IyYAXYfJX8HhW2D6lzLU0GmtlCWiZvFbxBQhFve3DCc8jgwLzkDpJXDlt6Ew+ymAKLonJsvkU3DgT2fWPrksiWl2YrL+Tf8Tmjp9DkpXwwt/2mw3B3S/0SlfARsfhKKYh1JLQoql6yWhzXvZy6+CHV+XgXNC15MAQPlKI6iBq2auoCUhGeYjH3Rg7kWNvBK2fwYG1kuLOWFuxEQoqHX3wdC1Zns+MrEfiMtxN486rckV5smSkWth8+3mo0LzRFzSZs/QlbDmQzD871pHJku00ol4JCoPIy+DjXfA8Au7dNB0zK2YyMHQC2HVTVBeElSD2eS61EbT7RMVdjHuhJEXz/JE7TP3Z1MFGHoRrP4ADL5sSVBzhdJmadBFD4RrzqTq5p7uTw1EEphpg8N/DtVfy8DFhfZMBVhcf9/EJXbYL/xyq+AFP4LSGhEwf8x9zdQgB+WrYN2nIb9dBi4xG3IrYMePF1RIzK+YQspXwoYHoXBx69W1RHpsK1baAhd/y/8I/zwz/2ICU0Ot/xwMXLMkqNlQvhwu/AyUL5UhC8LCiIlwpnztx6D8yiVBdUL5Klh/p/lQ9QIWo8vCxqJ8Fay+ZWnaIIqoVZPlHbD+Dhh5eUevvpkrFjYmKg/lq8N5qKUaqgVffhQ3wYZPwvDLO35Ycq5YWDGBebf40Ith9Ydg4CX+DFy0iLkiVTZr74df1FM1kmUe55lSMPkUHHov1J6RIdmi03mm7U/A0AWOR2/RW/IuXwHrH1iah5IU1sDWn/a0kOg5MRF2yjd8DgqXLTV5AKXtsPGLXX2KZK7oPTERTmyu/zQMvjSbgkqbpoHLYN09MNqbfSRJ78awfCWs+YhZKZg28/uFNOkZuALW3gaj1/bcqC2K3hUTyjR5q25ePPNQNo2lLbDmAzD6Ksg5z871OD0sJnf5ys0w+IpsCCpqFEcopsJqWPtxGL2ur4REz00NRKHrZtrgyM1QebJl+qWviH06RcHm78HIC/umaXPp7ZrJovIwdDWs+5RZbZBFcoOw5ccwek1fCom+EZOlfAWs/yszD9X79WkrUU1cfh1s/AYMO2+V6UP6S0wAQ1cZQZWu7D9B+Zrn4jbzFM/oNTKk7+g/MYFp8i74BAy+vH8E5buFUnqBeXpn9FXhF5f7m/4UE5jVBqs/2D/zUC1CuhhW32TeSqK687KthaZ/xaTyZtpg1fth6DdlaG8hhVS4ENbcDqOv6fhrAL1I/4oJu3zlGlh+AxS2yNAeZRmsuRdGf7trr//rFfpbTIQTm8teC8MvlSG9gX3Fjf19wUOw/LfMhZAx+l9MYPocA6+A/FoZ0juoUVj/OKy8vi9u2nZCdlKVvwTUedJ3YXFrpfX3wsrfEgbZIjtiKg1CvoeG166QFDB4eaay20e2U7dQaLHMpB+mLrrAkpjmgkUiHsmSmLqN27xZNHD0fvNW4gyzJKZu4hMSYZ/p7N/B3nfLkEyxJKZuEITrlHxCsugKnPsBPPe2BMP+ZUlMsyWqNopi/H/Bc+83n+bKGItTTJU6TAYwXYdA3jhrg7RCajpFFc59Bw7eC5WjbkDfs7jEpIAzdfRzE/DMJOyahBO11huxSdjlJG0LyTIOZ/4WjtwPlUMysG9ZXGIKgAMV1DllPpU1BRwLYCLlZ1utiNIIydpKP/vItz4DY38Dzz8CteeFYX+SLTH5voTkUlEwrWdSrYBKDaZq8eJoR0RY0Ug/1fruAD0GJ78Oxx+E4KwT0J9kS0xJyAK2+EZiroDSisgibaWIXIJTcPwrsOcvZEjfsbjElIZ66KyAokQgccXX5B8jJOw5zsLpx2DsSRnaV2RPTFYMrijSEMQ805ZElOii/C02TAO5aTj1T8Kgv8iWmHwFpyOasW4RJRgd1kpRuEICoACrf2MmvA/JvpgsUYXeCfZYUX2ptoVUhNF/37urRVOSLTHFkVTAabAiihJmIyzmPC1CKsF5b4DNn5ix6VMWj5g6RQooUkR26N+mkFa8GdZ/AArnz9j1KUtiwiMQKZ5UIpKBghYhleG8P4R174fS/HxccK7JnpjSjt4ktpDdKYE4gQRtiKjFZgBG3wQbbw2FFFOb9RHZExNistGddPQWbIhOEKJWMzPsSTPtFvdc9tyqCOe/GbZ+HAo99gDELMmWmOL6K52gQ+EETg2URkiuaJsEnIcVr4dNn1p6bq6viauVEEK04ulEnLI2cn8P/A5ceL/jmS2yJyYrGp+TNMJC0Win5mlXSO455Pk0pp+05eOOZ/bIoJicIbp0tqPb6Es5TZgrqnaIE5H1I3zRRmm5CMwW2RKTLEiJDW8RkbBLg9xPHqNJwApqp2A6OwvhfCxOMbWLKzqfiJq2oyYui7DvVvNgQUbJlpg6xScyn3BcZFikiELyeRj/GTz71swKKntiiqpB0pC0ny88SUSE9gGgAzj9A9h5AwTT0qrvyZ6YJLLwfUTZJAkztYgcPzUKp34Iu2+F6kknoP/Jnph8hZ4GKZyo4zSNDj3YfaWIbKcfZd7PdOprsP8TUDnmGPU32RGTO0stReEWsJcoYfimFyKQ53L9W2bN86A1nPgqHHoAqidEeH+SITFZQXkcooB9yH3ihOMSJSKcY0o0RlBBDY5+CfZ/GupLT6f0FrIwLWkF1Q5JInJryqYwd5+8eTPKsS/C3v6/zZItMcWh7QRih2h35twjIiugOBHJfpQGdME0eQcfgKn+fhgzW2KqnzPD73aRwnD9XfFEoSMERISIrH+jxsxDfQxq/d0Zz5aYWkqsTdyaxycAi6192q2JLI2+nQ3XMFCGkcukZV+RMTF5BOEKI67S8hW6xW3C7MjM17EmhYga+4d+OjBLeLd/2bXsS7InJhd75TdqgAhcG1c0cTWPixWQT0TuMV0/MB9lLKyGi+6C8189E96nZE9MDWG0MdR37dPSEJ9HQI1wcUy7D6GQihfApvfBmt/LxKcvsicmbCFKv4RmLomGSIWTNAk4wlbXoXABbLgR1rwBCiNOYP+STTFFoWOmB6QwfH0unzAIt90m0bWXBBpyy2DTjbD2zVDIzoK5bIlJCkCKIQpb8K59Ek0CcjrVUedpxKMOF90Ba/8gMzWSJVtiIqYwo/zbJUpAUce3IgWzSmDzp+CCP4R8WRj2P9kTUxLaU+q+PpZFe6YFSBAQjoisTe00rP4zuPAtS1916hvcwtdWKM52NUIBUjTuMRA1kO8QbphsVu3vDW90PLNHBsXk/nZGVEnIwpfOhxSPz1bbeCioT4rAbJE9MeERgizgKNLYyuNG2Tc63KGg1SAc+DzomrTMDNkSU9wb4qL8iQmTopFO0tQ8OnNNhGI69T3YdV9mBZUtMdnmRvZZQnTcOyutQOR0gnQS7Y7wYuzAzC8duh92/2UmBZUtMeEUpBRGEBZ6FHEikNTVjHNFlEgxXLv0Wdj1F5kTVPbE1AlJQggc8dRjBJkGXUBP19H7/gr2PpSpb9BlU0yyaUoSizvqc0VjXdL+baIKBajX0c/dBwcez8wzdNkTk5wncl0caWzawYpTNLW6qtA1Zd5nWZtC77wHDn4rE4LKlpjiaqG4sG4ROL816LBJ1HUjICMilwGonUY/eycc/nsR1n9kSkypl3/X9YwLuqiw8FC6rtCBMjVRLamZHID6afTTd0L1jAzsKzIlpkRsobpiqmv//boYdE3NfBojFIyuKbQOa592PrOhAT0Ik7tg4ogM7SsWl5h8a5mSmr+wn9Nko82hdFWZpkxOQaRBh/00d2JzeJMw6i8yJyZd9QgmJbqq0JWZpSW6YmobVTQfN2yEa6f5ihOixB0M2CUsANUx1BWfg0J/L0vJnJhUUc8UeNU0ObYDHFXwum6EowoaVTL7N0QZhtljdox3pKihPo26+KOw8fdlYN+RHTFVA6jrhghs06TrRlBKach7Pp+aV6iigpyomWaLbcaiphx0AKqI2vJ+2PJ2yA9Ki74jO2LKFUB5Ci1E15UR1PAA5EI7BQzmoTDLWgen7+VrxiQ6gPwQauO7YMt/ysyLU7MjpoFloAZiRaHrCr1sCJaXYVkZlpfRo2V0vhS7XxNWNBqx8C5BQA005AZQG26Are+GwZXSoG/JjpiKK1AD68wrkhPQI2X08iH06BAUSzLYjysed3lJWhFaghpq07th63tgsP+/5OSSHTHlB2D16/zD/7S0iEU6uUMbBMqM2rbeAtvek6kayZIdMQGsewNq+dXNHd92XFMTJlwnBDM3jlXtHOqST8C2d2WmjyRRk5OTnWZVb1I9hf7HDVBcLUPmD3EPTgXjcOndsP2dkMveB3gs2aqZCPtOr94TjtjSTkd3iZoSQtJmgHnx7bD1LZkWEpkUE0B5Deql34fBtQlrddtANns67AdZAbWsCNCofBm2/BlseQcUhkV49simmACWvQB11YMwvB3qteR+jxb311qcZ9FcZMWnUYVhuPCdZh5pIJt9JEl2xaRycN41qMs+Cst2mDfbtghEiCXOJYnRQeVKsOkdsPVdmRv+x5FdMYGZc1p5LWrHR2B0OwRBq0g6EEskAajaFFz0p+GE5OIREpkczfnQdTj9C/STfwLjx7tzDXmmDFT1LFx2F2x9G5SWNQcuAhaHmMDcDzv7LPpnr4F68ix5C5H9I4OqnoXL74XtbzcTqIuQxSMmy+Qx9A+3Qy6cgfbUMO2iahOw40645I8hl/L2TAbpQn3fZ5TXoK7/NZQGIajPUkgaRQ4uvRW2vXVRC4lFKSaA4Y2ol34TRjeFLyjoAK1Ragi2/AlsuwGKo9Ji0fH/AdRmOvKIAz/1AAAAAElFTkSuQmCC;" vertex="1" parent="1">
          <mxGeometry x="244.73" y="50" width="31.77" height="41.71" as="geometry" />
        </mxCell>
        <mxCell id="E9rDun7O-10vDkbBBoyJ-37" value="&lt;b&gt;Rol:&lt;/b&gt; Host de aplicaciÃ³n en podman&lt;div&gt;&lt;br&gt;&lt;/div&gt;" style="text;html=1;align=center;verticalAlign=middle;whiteSpace=wrap;rounded=0;" vertex="1" parent="1">
          <mxGeometry x="611.9599999999999" y="277.52" width="98.69" height="30" as="geometry" />
        </mxCell>
        <mxCell id="E9rDun7O-10vDkbBBoyJ-38" value="&lt;div&gt;&lt;b&gt;&lt;br&gt;&lt;/b&gt;&lt;/div&gt;&lt;b&gt;&lt;div&gt;&lt;b&gt;AKS&lt;/b&gt;&lt;/div&gt;Rol:&lt;/b&gt;&amp;nbsp;Orquestador de contenedores&lt;div&gt;&lt;br&gt;&lt;/div&gt;" style="text;html=1;align=center;verticalAlign=middle;whiteSpace=wrap;rounded=0;" vertex="1" parent="1">
          <mxGeometry x="414" y="270" width="98.69" height="30" as="geometry" />
        </mxCell>
        <mxCell id="E9rDun7O-10vDkbBBoyJ-42" value="" style="endArrow=classic;startArrow=classic;html=1;rounded=0;entryX=0;entryY=0.5;entryDx=0;entryDy=0;exitX=1.04;exitY=0.479;exitDx=0;exitDy=0;exitPerimeter=0;" edge="1" parent="1" source="E9rDun7O-10vDkbBBoyJ-17" target="E9rDun7O-10vDkbBBoyJ-26">
          <mxGeometry width="50" height="50" relative="1" as="geometry">
            <mxPoint x="364" y="290" as="sourcePoint" />
            <mxPoint x="414" y="240" as="targetPoint" />
          </mxGeometry>
        </mxCell>
        <mxCell id="E9rDun7O-10vDkbBBoyJ-43" value="" style="shape=image;verticalLabelPosition=bottom;labelBackgroundColor=default;verticalAlign=top;aspect=fixed;imageAspect=0;image=data:image/png,iVBORw0KGgoAAAANSUhEUgAAAJ8AAACjCAYAAACUo8w2AAAAAXNSR0IArs4c6QAAAARnQU1BAACxjwv8YQUAAAAJcEhZcwAADsMAAA7DAcdvqGQAAG7sSURBVHhe7f1nmBzXeaAN31XVOafpyTkBGOQMIpAAcxCTEhWtYCXLkq31ar2y5Xe536ddr3fX61eybEmWZAWSWjEoMIEJTACIDAziDCbn6Qmdc6qq90fPNDGDTCJQ4b6uusjpPt1dhXrqOec8UVBVVeUM8vk8siwz7+XrRt++ETqe6Gf6WORdnZMiq/AuPn+pqCqoytX/nTMRRIGK9R6Wf6KFqqWl89++LgiCgCRJaDSa+W8VEWaFT1VVcrkciqLMH3PdCAxH2PO9Y/TvGCUdzsK1kZ/fOQQBTG4DTbdXs/ZPF+Ousc8fct0QRRGtVosgCPPfKgifqqpkMpn5711XYoEkB350kq4XhkgGUggaAUESUFUVQRTQGKT5H7kkRL2IKJ79D3G1EXXiOW/AuyWXzJOP58mnFUxuAwvvqWfD55ZisOrmD72u6PX6s65fUBRFzWaz72pKu9LkszLHftvFwR90Ep9KgCjgXeCkfHkJzEwzGqM4/2OXhNaoRdJeeSG4GKJW5CrIHslghv5Xx5g6FUQyiNjKLWz4i6Usuatp/tDriiAI6HS6OQIopFKp947UzazN+veNsvvb7QT7oygZBXeTgxUfbaXl1tr5wy8bSSshSldBCq4TmUSWY7/o4djj3SRCKSS9iHeJk5v+ajWVi70I10HLX4gzNeB7SvjkvEJwOML2v92N/1QYOatgLjGy5jMLWfxgMya7Yf5H/ggQGotw7Mkejv+yh3Q4i8YgUb7Gze3fvAFHpRVR885miauBKIrodIUlwXvmrBRZIToRZ99PTjD66hSKokIOWu6qoenmmj8K3gVwVtppvb2O2s3lKCkVOa/Q/8w4hx7vIDadKOz03yMoikI+n4f3jPCpkAimOPVcH+3fPo2hUgcyND9YzZIHm3G9h3Zv71XKF3pY9YmFVN/qRc2rGKr0tP+wi65XB0lGUvDekT9kWYb3ivDl0nnG2qfZ/72TmOqN5GMy9hYzKz+8kJIGx/zhf+Q8lC/wcMNnl2OqMKCkFTRmibf++ThjR6bJpQva5r2Aqqrk8/nrL3xyTmH4yAT7fnICJa+iyiqSWeLGr66mbIEbSfPOTCp/iEhaidJFLjZ/ZQVKtmCvzYXz7P3RcYaPTCDn3js2XFmWr7/w+TqnOf7bbgKdYUStgKAK3PAXS6la4UVn1sJ7a7P23kYAo1VP/cZK1v/FEsiDaBAJdIY5/ttufJ3T8z9x3VBV9foKn38gxKnf9DH40jhyRkFJqCz6cD1tdzVgtBvOMkr+kYsjiAIWt5Gl9zfTcm8NakJFzioMvjTOqd/04R8Izf/IdeO6CV9kKs7pF4bof2OcbCqP1qSherOX1R9dhM1r+b2yxV1rREnEUWFl9SfbKFvjQmOQyKby9O8a5/TLQ0Sm4vM/cl24LsKXTeXo3TFM10tDJKaTaCwaHA02Vn5qId4m13vOMPq7iCAKlC/wsOrTi3A02NBYNCSmU3S/OEzvjmGyqdz8j1xzrrnwyXmF4UMTdD4/SGggiqARsFWaWXRPHQ3rquYP/yPvkpYba1lwZx2WUhOoEOyL0Pn8IMOHJpDz13cDcs2Fb7ovxNEnTuPvDaPkFPQ2Pc03V7P0gRY0+j/ubK80Gr3E4nsbadhcgcGiQ8kp+HvDtD9+msmuwPzh15RrKnzJSJpDv+hg/ICfXCyHqIrUrCpl8YNNGG36+cOvCaqqIssy+XyefD5PJpMpHqlUikQicdaRSqVIp9PFcblc7j0XB3kmNq+ZpR9qpmqVF0kUySfzjO2fZv9PTpAIp+YPv2ZcM99uPitz5Ncd7PovR5EFBTmpUH9zBev/fAl1qyrmD79qyLI858jlcgWhSqbI5XLEY9GiAM0K2JkxjoIgYDKZ5sSomc0WDEYjer0Oi9mMXq9HkqRiLJsoXtNn/LwMHh7n0E9OMfRmweYnySIb/nYpax5qQ6vXXHOz1jURPjknM3E6wJOf3IGMjJxScLXZ2filZSy8pX7+8KvK+Pg4PT09jIyMMD4+ztjYGFNTUwwMDHDs2LH5wy+J8vJy6urqqKiooLy8nNLSUsrLy6moqKBt8RLcLheS9N4QwM4dA7z1vWMET0WQjCKiInLnd26gcX11QQCvIVdd+BRZJdgX4d9vfhrRKaKqKnqHls1fXcHCOxswWK5e0KOiKCQSCcbGxnjjjTd47rnn6O7uJpFIIMsyiqLM+W8ul8PpdGIwGDAYDIiiiMFgKEZhMKM5E4kEzGhGv99PPp8varrZ/84eWq2Wuro67rvvPrZs2UJ9fT02mw2tVnvGmV470vEsnS/0s+s77WTCOQRBQA7IfHz73ZQtciFpr926+6oKnyzLBIbD7PvRCU49MoDWpUHNq6z74hKWPtCEvcJy1QzJ4XCYAwcOsGPHDl555RWi0SjhcJh0Oo2iKHi9XlpbW6mrq8PhcGC12tDqDVhMBcGTJAlBENDr9ej1hfWoLMuk0+miYzyVKkzViUSCdDpNMpkkHA4zOjrKiRMnCAQKC3q9Xo/D4cBms7F8+XJuueUWNm3aRENDw5xzvhaoqkpkPM7xX/ew77snkIwi+bhM073VbP7SSjwNdsRrpKWvqvAFhyMc/OUpun41RDaVJz2ZYfWfLWLlRxfirrMjaa/8RQYCAV544QV++ctf4vf7mZiYYHJykgULFlBTU8PChQspLy/Hbrdjt9sxm83odLqCxpI0SGIh8WUWQRDmPCBnrv9mhfBM7ZnNZkkmk4RCoYLWHZ9gcKCPkZERenp6EASBsrIyqqur2bhxIx/5yEeorX33QbKXg5xTCAxEOPxYB0e+34mhQo+klWi+q5p1n1yC5xoFc1w14UuEUnQ+18+e7xwnk8yRC+ep3FjCzX+7lrKFHjS6K6/eDx48yDPPPMPLL7/M8ePH0ev11NXVsWbNGpYsWUJZWRmlpaVYLJazsqrOt0ud//r5NPW5XlcUhXgiSSgYYHJyku7ubg4fPkxnZyeJRILy8nK2bNnCvffey2233XZWmPnVJJ+Vmej08+p/O8DYW9NoHRo0Won1f76Exfc3YvWY53/kinNVhC8ZSdP75gjtj5zGd8iP1qbBWm7mxr9eSf26SnSmK7veGRsbY/fu3Tz33HPs3r2bVCpFfX09CxYsYNWqVTQ3N+N0OovT57XM0JvVorlcjmg0ytDQEKdOdXD8+HFOny4I4YoVK7jtttu4//77qa2tnbPGvJpkkzkG9o/x5j8cIeZLkIvm8bQ4WPknC2i5oxaLyzT/I1cU6Zvf/ObD8198twwd8NH+2GkmjgaQDCKiLLLpPy9jwbZ6tIYru6Py+Xw8+uij/PjHP2bv3r3odDpuuOEG7rnnHrZt28aSJUswmUyIYmGzM1+TXW1mf1MQBIxGI5WVlTQ1t1BVWYnZbCYWi9He3k57ezvJZJKKigocDsc12ZBIWglHpRWtQ2J09xSqpBIfT5EMp7GVW3DV266qq/OKC19wOMKxx7vpf2MMQSOgM2qpXVnOpq+suKK2JFmW6e/v51e/+hXf//73GRsbo6amhltuuYX3ve99rFixAovFQj6fv+YCdyEURUGn1VJaWkpjYyNut5tgMIjf72fv3r2oqorb7Z6jqa8moijirnUQGIgQn0iCBuKTKVBVHLU2zG7jVRPAKyp8iVCKw7/opPulIbKxmUiVG8q4/b9vwGDVX1HBG/f5+O4//zP/+q//SjKZZNGiRXziE5/gvvvuo6ysDPk96m3gDG1oMplobGxkwYIF+P1+gsEg+/fvJxKJUFVVRWlp6dXXgAJIWpGqNV6CwxGiownknEJkMk4mmaV0oRPDVfI+XTHhy2fyHP1NFx2/HSQxlUKQwVVtZ92X2yhtds8f/o6RZZmJyUl+8YvH+T//+L9RVZWVK1fy8Y9/nDVr1qDT6YoJKu91Zh8Ot9vN0qVLCYVCTE9Pc+zYMWRZprq6Go/Hc9bm6GqgM2qxVpuZOOQnPpVCkVVSoQyKpFLRVnJV7H9XRPhUFfr3j7L3f5wgPBRD0go4W+ys+EwLbbc2zh/+rpienuaJJ57gm3/7NwCsWbOGr33ta7S1tSGK4jXdTFwpVFXFYrGwYcMGEokEo6Oj7N+/n+npaWpqaqiurr4mu2BriRnBAuGxGOlAhpQ/S+h0FF2ZhvKFJVf8HK6I8PkHQrzxD4eI+OKoioqpzMiiB+pYcl8TOv2VmzYikQjbt2/nb/7mb1BVlWXLlvG1r32N6upqOIdZ5HcJVVURRZHm5maSySQ+n49Tp06Ry+VYuXIlNptt/keuCu46B3k5T2AwSj6eQxFUwn1x3IvsOMqt84e/K96V8KlqYbv+7H98k+nThSRvUSOw+N5GVn1sIRan6Yo9Lal0ml27d/Ov//qvDA8PU1tby9/+7d9SX19f3Mn+rqOqatE26ff7GRoaIhAIIAgiS5cuuzYbEEksCGBGZrIriJJVyESzjLw2Rev7atAZz130553wroQvl8px8PGT9G4fKQQm5lUab65myQeaKWlwXtFd0tH2dn72s5+xc+dOrFYrn/70p1m3bt3vjeDNIggCFosFq83O1NQ0pzs7iUYj2B12lixZMn/4VUFr0GCw68kms/h7wqiqSi6VI53PULbIg86guSIC+I6FLxXN0PFiL/v/6RT5nEw2mKNhWyXLPtJC5ZISNFcwQmJiYoJf//rXPPnkk+h0Ou6//37uvPNODAZDcY0369BXZ3JCFUVBVVU0Gs17TkBngw4EQSiWpZsNSpjF7XJjNBqKnpFEPM7y5cvxeDxzvutqobdoMTj0pEJpptpDaCwS0+0hMEJJk/OKOArekfBlkznGjk2y7wenCPfHECQBe62ZVZ9aRP2GCgyWKzc9pDMZXn/jDZ544glGR0dZs2YNH/nIR/B6vSiKgiAIiKJIJBqjs7OTI0eO0NnZSXd3N319ffh8PmRZxm63I0nSdRVCQSiUeAsGg3R3d3P06FFOnTpFT08PAwMDTE5OotFoMBgM6PV6XC4XqVSqGKRgt9tZumw5Wu2V0TwXQtKIGB16tGYtodEoyek0uaRMdCKBvdqMrdT8rh0Gly18+Uyeic4ARx7rYvzAFJJRxOjSsezjrbRsq7niLpnunh4e/+XjvPXWW9TU1HD33XezbNmyorbIZDKcOHGCN3fuZMcrr7B37x6OHz/OyZMnOXXqFF1dXQwPD5NIJDCazJhN5usSWydJEtFolPb2dl5//XXefPNN9u7dy7Fjxzh16lTxXMfHx0kkEpjNZjweD1qtlqmpKXp6egiHwyxbvozysjLEaxCgqtFJGN169A4N0z0hMsEsclomPpHEWmXGUmpG8y5MMJclfKqiEhiIcPypHjqfHkAyiMgJhcUfaWLFgy3YSi1XdJ2XzeV45umneeaZp0mlUmzZsoXbb78dg6FQNCiTyXDw4EGeeuopXn75JXy+cTQaDXa7HYvFgqIoTE1Ncfz4cbq6ukhnMrhcLmw265wp7mojCAKxWIzdu3fz5JNPsmvXLqampornajKZyOfzTE1NcfToUQYGBpAkCYfDQXl5OXq9nhMnTjA2Noacz7Nly5ZzFlu8GugMWqxlZvKyzPDOSSSLRKgrhiqqOGqtmD2md1xs87KELx5IcfrFQY4/1Y0qF0wDznobt/3deuzlVz7XdnR0jJ/+9KccPHiABQsWcPfdd1NfX19c173xxhs88sgjdHV1YbFYWLFiBTfddBO33HILW7Zsobm5GbvdTjqTJRQM0t5+BKvVSk1NzTUzXTCzxtuzZw+PPPIIfX19VFRUsHr1am666Sa2bdvGxo0baW5uxuVykclkmJiYYGBggHw+T1VVFeXl5cUH7eTJk9x///243e5r9gBp9RpcNXbC0xFi40kko0hoJIbWpMFZY8Vge2cPwiULXzaVo/eNYY491U1sJImoFbF4zdz29+soqXdc8RpwsqywffvzPPfccwSDQbZt28Ydd9xRXLcFAgG+/vWvMz4+Tn19PQ888AAPPfQQW7Zsoa6uDo/HQ2NjIxs2bGDxkmVMT08Si8UoLy+nubkZh+PaxKwxY0I5ePAgPT09VFRUcP/99/PQQw+xbt26Yuj9ggULWL16NRUVFcRiMQYHBxkcHMRqtbJhwwaMRiNvvPEG2WwWr9fL4sWLMZmunCnrQgiCgM6kpXpNGUP7x0kFMig5lbAvhsakwd1oR2e8/A3IJQmfqqj07Rnh4L91MLEvgKgX0YkaNv7NUhbcVH9VIl+DoRD//J3v0N7ezqpVq7jrrruoqKgo+mzz+Tzj4+NMT0/z5S9/mdtuuw273V7MQlMUpRjg6S3xFDXLHXfccc2DN0VRpK2tDbvdzk033cSmTZswGo3Fna6iKMX/r66uprq6mtHRUURRZM2aNSxYsAC9Xk8ymeTEiRNkMhk23LARj+faaT9BENCbddjrLfQ/P04+kyOfkIkHU+idWkqbLz/Z/5Li+XxdfvZ85xgDO8dBVTE49Cz6cD03fWn1Fdd4s+zdu5e//Mu/ZHBwkIceeoj77rsPt9tdNK2Iokg6naanb5CmhjoMBv0Fd7KzGuJCY642wkxUtHqR0C5RFOnv70ej0VBRUYEkSWSzWdrb2/nLv/xLJEni3//937n99tux269t7UJFVjn81CkO/6iL+EQCEPAudrLmc4tYuO3y0gIuKjmJcIpDP+5g9NAkCCpam5baLWWs+uCiqyZ4AL/5zW/w+XxUVVUVg0HP9NsqioJOp2NBSxN6ve6CN5PrLHRncjHBY2ZMTU0NFRUVRRulVqulsbGRjRs3Iooizz33HBMTE/M/etURJYEld7ew8IE6TF4jqqoydTTIke+fxnfaP3/4Bbmg9ORSeQ491sHokSlyaRlVhvKFblZ9dBHWkqsTZq2qKpFIhI6ODhKJBAsXLqS2tva804vmMur3XeymX20uRfA4w897pjlFEASsVivr1q1Do9GwY8cORkdHi3kk1xKDRcfS9zVRva4UjUlCFcE/GObgj09dVhL6BYXv1Mu99Lw0QiqYRpVVype6WfyBJrwtriu+s51FURQ6OjoZGhoinU5TV1c3Z7qdz5k3UxAFRElAlGZSF6XC3+9FBKGgRUSpYCQvnut5Tled8dasXbsWjUZDKBSis7OTUOj6lDyzV9hYfG8jVau9iDqBXFZmeP8k+350olAF9eLP2LmFT8krDLX7OPLjLqLDcbKhHPYqC6331FF3Q/lVSf6ZpSB8pwiHwzQ1NVFbW4vRWFDv50OYuXG5RJ7IUJLJ42Emjobwn44RHU0hyzLCBW7stUQQBVRU0tEsoYEEUyej+I6EmO6IkpjMgFIQynNtYkVRpLKykpqaGrRaLUNDQ9dN+ERJoGJJCW33NuJd4CIfyZOJZejaPkTHK/3kcxfXyGftduWcTGAwwr4fnmB8T6EqvLnEwKIHGlh4Zx02r+XM4VcUVVVJJpP8+Mc/5tSpU6xdu5b169df0CwiiALZeJ5gR5zJ/REmD0YIHI8R6kwQ7UkRG0iRnMygMUnoTFqEcz5uV5/ZDU86lCNwIsbk3jDTh2METsQJdsSJ9qSID6XJhnIIWgGN6ex+IYIgoNFoGBsbo6+vD7vdzvLly6moqLgmJpf5aHQSJo8BQYDwSJxMJIucUYiMxXDUWbF4TEgX2BfMET5VVYn7Uxz6RSddTw8haAVErUDrfXUsfbAZT51z7qevMKqqEo/H+da3voXf72fz5s20tbVhNp97fSmIAulwjvHXggw+6yd4LE6sN0WkL058KkHWnyc5nCXSmyKfUtDaNOhsGkTNtb9RoiSSmEwzvivIyIsBgu1x4uMpAr0hkhNJlBDEBlJEB9JkozI6mwadQztHAGd3y6lUigMHDhAOh1m9ejVNTU3XJNr5XOgMWsylBgStwOTJIJlwjlQwQ2wiQUmrE6PTcF5TXPFVVVVJhjMM7h3jxOM9qBQWx+WrPLTd1Yin7vza50qhqiqxWIyJiQm0Wi0lJSVFV9pZCCCnZUZf9TP8fABNWkv16lLqt1RgadYyZR6mX+lkklGyagbf60EGn58iMpBEyamXPQXP3vjZ43IQBEhHsoy+7mdyZxSjZKR+SyU1N3nRNsuMa/sZULsISJMk4wl8bwYY3REgNpya0+hwdsNSWlqK1WpleHiYsfFx0te5b5691Erz1hrqbqoo1IHWCfQ9P8rJZ/sIj8TOWwewqPmyiRwD+8bY9S/tZEI5UFQsFWa2/sc1VC3zIl3Fdd4s6XSaw4cP86tf/YrKykpuvfVWKisrz97pCiAgMNkepeP/jFCzrYyb/8ta1n56MYsfaMK8SuJwYA/PtD/JcLQfi9aGzeAkPZRHBcwVegwO7UUXxfOFbTZMa/bvS3buiwIjr/sZeyFE9eoybvyblaz79BKatlVjXapl7+QOHtvzE5JyDKvejsVgI+OTEQSwVBvRWbTFNa8wE8XT2dnJ5OQkixYuLBqwrydGux5njZ2QP0KkP4HOoWGqM4jBqS+44M5Rk0dkpvvPRFeAY7/qItaXRJAEstN51n1+EWULXdesaGMul6OjowNFUbBYLLjdbrTat//hzySflul/cgpVUVnzkcVULPIU1xdLly7lC1/4Ajds3sBgqofHRv6V4XQfsiZP+GSSyGCCXPbiC2J1pnZfKpXC7/czPj7GxISPSCRCNpspCuasRjof4VCesZfD2BttLPlQM5VtXgCMRiPLli3ny1/+SzQaDSeih3lt+nmmsmPks3mCx5MEjidAePu7FUXBbrdTUVGBXq9nZGSE6enrX2VelEQ8jXa2/NmqYqSLklU58lgnI4cmkc+xAZG++c1vPjzVF+TwzzroemIYjU0iO5Fjw39ZwooHF2K8hm2nQqEQ3/3ud+nv72fFihVs3LgRi8Uy58YKYkHrxUZSdP7LKC0fq6bt7gZMTuOc78pms4yPj7N79+7C30qaOlsL8oiAzqbF1mDCYNOe1b9Xo9GQzWaZmprixIkT7Nz5Ort3v8Hx40fp6DjBqVMnOHbsCIcOHeDEiVNEIhFEUcRoNBYjTc48X0krMrknwMSOIAvurKfxpspCGukZv2cwGHjzzTeZnp4mlPEjqwoekxdxQo8oqbjXWuZoWY1Gw+nTpzl9+jTRaJTFixfT1tZWfP96IUoiBrse5yIb/S+NgQZykTwhXxRziQFPw9w9gxjzJzn9whADO8fRlWiRNCJND1Wx/hPXvmeroiikUilUVaWqqgqNRnNOjSJnZUK9cVRZJZvIo5z9UBWnp1l6E51E80E0bol8DLL+tz8kzHTFnp3OXn75ZV588Tna2w8QCEyTTqeJxSLEYlFisSjRaGTmCHDq1FFefPFZtm9/juPHj5NIJM5aJsR7M8hJpfDgnGO9qM5stFRVRUXlVOwwvtQoqqKSS8hkQ/JZG4+KigqMRiN+v59IJDLn+64nGr2Gpg3VLP9cC2qscO9CXVFOvzDI6InJOWPFE4/3cvKpXnJpGUkn4l5o56Y/X4PRZrhsR/G7IZPJMDY2RjAYRFVV6urqMBrnarMisoCQ1KL3aOnc2U1oKjTH0i/LMhMTExw+fLj4Wk7JksgnUMQ82VieXLyQ2ysIQiEJfXyc3/72t+ze/QaDgz1Eo3GczhJWrlzL/fd/gC996S/4T3/9d/zHr/8tX/rSV/n4xz/DqlXrqaqqQxAExsaG2bdvNzt2vERXV1fRQ6HkFTLBPBqLRMfRbsYGfMVzYkZDj4yMMDg4WLyGrJJBpvAZrVaHkDy7GU5dXR1ms5lsNkssHieZunTPwtVEEAo5wKsfWkTrh2sx2Auuz4GXx2j/eReBoXBxrHSD/raHw4Nx1JyK2WFiw1eWUru6/Cwb09UmnU5z8uRJfv7zn5PNZvnoRz9KaWnp/GEIAig5lWB3nEhvkpyaoyNzEINTh9PpQhRFOjo6eOyxx3jppZdInXFT2mwrcUklmJwmXAvNWKsM5HJ5JiYmOHBgP8PD/QSDfsrLC+XLbrppKytWrKS1dQF1dfVUVlRRVl5ORUXB0Ftf30BzczNebxmxWJypqUni8QixWAxBECkpKUEQBcbeDJEN5/D5xwkoPoxeHS6Xi1wuR2dnJ9/73vfmPCgAC6zLqNDWYCjV4VhsxODWos5sGgVBKMYzjo2NsWjRIpYvX47VemVTG98xAuhNOmzlFqb7QiSmU+QzMqlwBkQoW+hGo9cgbRBue1hOydhKLSz7WAuL7m54R7FZ75ZkMsnRo0f5zW9+g8fj4b777jtnwKcggKpCKpTBfyCGRqthR9d2DnUcZO++Pbzyyits376dnTt3Mjn5tprXYWKFYz123FirTbiWWtC6RMZGRzl4cB/j46NoNFo2btzE1q3bWLFiJbW1tbjdbkwmEzqdDo1GQqPRoNPpMBqNOBwO3G43paVlVFRUYjSaiEYjTE9PEYvF0Wi0lJSWEOyJkxzLkE3mODK2jzeO7mDPnj289NJLvPDCC7zxxhskk8niuZYZqlhkWY4958ZUrqN0vX3OjhdAq9UW/bvNLS0sW74Cb0mhE/t7BZPTgM6qJTQYJRnMIGdlYhMpFEWhfLEHaZN4x8N6u46m26tZ9amFVzwH41KJxWIcOnSI1157jdbWVrZu3YrFcu7KpYXXBAZ/PYXGoCGYCLK/aw97D7/FkSNH6O7uJhqNzvlMq2UJi2wr0ceNuJfbKFlpI5oKcezoUfr6utBqtWzevJXbbruDlpZWbDbbGeXN8kxPT3P69GnGxsbI5XIYjcbiOtFgMBRr/0kaLYFgiPGxIZLJFG5PCVq0BA/HEWWJ0cgQe0/tZs+ht2hvb6enp2eO4AEss62j2dKGQTXhbLFQvunsNFSdTseRI0cYGxujurqGVatWUllZOWfM9UYUBWxlZhRFIdgfIzmVIpfKk5hO4WiyIt1W9cDDdZvLWfbRFkqbrlxNlcslHA7zxhtvcODAAdauXcu6devOv+YTQNJL+I9FkdMKLr2HdD5FJBcgo6bnDJUEiXJjDZvct1EqVqC36qi80Y22UqW7p4vu7k50Oh2rVq3mnnvuLQiQJBEIBOjq6mL//v3sfms3b775Ji++8AL79++nq6uLgYEBJiYm8Pv96HR6DAYjdrsNT0kJIDA6MkwkEiSTzlJZV0lqQEGOqehEAzJ5ovkgGWXuuWrQUW9uZYVjAyVSObYaM+WbnDibzYXm12cgimJxrWi321i5ciX19de2uPqlIGklzKUm8sk8oYEYmWgWOaeQmE4ifeKOzzy88k8WUb/2+j01qqoWF/w9PT1s3bqVtra28xdJFEDUCBgrdUR70ogpDXbRCYKIKiroRSMmjQWHzk2lsYa1jhtpNi5CJ+rxbnNSut7BeGCIEyeOksmkWLBgER/84EOUlpYiCALRaJTnnnuOxx57jJ/85Cc88fjj7N69m9OnT9PT01OcMo8dO8aJEyeQJInSslKsFksh68ztJpfLMzQ0yNSUj4raSlxeF2lfHn3CiEVnRRQL7jCNoMUsWXFIbqoMDdzouZNKXR1Gk4HyTU4qNrvRGM5O+RRFkYmJCTo7OwFYtmwZCxYsOOdMcb0xWHRYK0yk41n8nWHyWZlobxzpP//Hbzzcuq32vP63a8Fsrb1HH32UYDDI1q1baWlpOctkMR+zV4+ag8RkBn3eRI2xgRpTE159JdXGBhbbVrHeuZUKfQ06vRZLs5mKW0vQuFW6u08xMNBHVVUtt99+F83NzcXvPXLkCN/61rfYtWsX2WwWs9mM1WrF7Xbj9XrRaDRotVqi0ehMW4VhqqqqaGxsRKvVYjAYcLnc9PcP4PdPoaoCdYtrEFIS2VAek2ylVt9EnaUZu9ZFnamZxcbVrHJvxK0pQavV4F5lpXyLC0uZ/pzhZIIgEAqFOHbsGKlUira2NtraFqPVXh8f78UwOQyIBoHgeITYYBKNQ0KsvaHsmrjOLkY8HufUqVOFlEGn85JcV5IkUX9fCTX3uTBW6NCio0xTyRLrKlbY1tNgbEUvGBGAkpUO6j9eQcUiB6HgFFNTU+j1RqqqaucYaFVV5ciRI4TDYbxeLytXruT222/nIx/5CJ/73Of46Ec/ymc+8xne9773sXHjRhwOBydOnODQoUPF6vOiKOJ2u9m2bRuZTIa+vi7Scpzaez3U3FWC3qpFjUGJpozV9k2stN9Ao2sBJtWMJEm411qpu8eLs8l8lsabRVVVHA4nRqORsbExBoeGyOaufzO/C+GotOJtcpMN5xEQEBOh6+uUPhNJknC73VhtlxY9I8sycl6h9qZSVv/nRlo/VYWtyVIMm9IYJco3uFj+N/Us+Gw53hoDipzF5yu4yNxuD01NTXOCF1KpFJ2dncRiMaqrq1m5ciULFy7EZrORyWTIZrOIokhLS0sxucdqtTI5OcnU1FTxe/R6PS0trVit1pn12Sh5TYaq2xy0/acqmj5djrmqsKYVRAG9R0fprXZW/F0dSz5bi73ahCqfW/Bm0Wp1iJKGaDRKNDJ3g/VeJDIRJzASRufQIAoiYnT8+vdeTSQS+Hw+hJm+F26n7ZI03yyKoqCzaai80cmK/1TDpn9ayKZ/WsAN/9BK66fKcLVYimFUsVis0O4qkcBut8+ZblVVZWpqin379hEKhYpVQc9VbDKTyaDVarFaCwnop0+fpqurq/i+KIpYLBYWLlyGVqsjGo2STeeQRA2OKjMNd3tZ9Tf1bPw/C9j4j62se7iRRR+txllfONfzabwzsVrNVFdV4nA4yGYzpFNzd83vNSIDcaaOhxA0AnJERkwMXX/LeCaTIRKJIMwUzbZY5voyLwVVVREkFZ1Ji9Gpx+Q2oHdokXQzhsEzxs1Gp5jNJlwu15zvMZnM2Ox2tFot3d3d9Pf3k8vlzoqX02q1jI6OFrWk2WzGYpkbaCtJEvX19Wg0GjKZzJz60KJGQGfWYPYYCudq1SHpRBAKLrZLwWg0YrfbMRgMxGKx4rT/XkTOyiQnMiTH0ohGEXOtETE2lSQZmbvlv9Ykk0kmJycRRRGr1VoMHr2Up38WSZKwWGw4Xe7i4XK5cTrdCELB1aWqKolkikQyPmOfK6yxZhEEAYfDwRe/8AXq6uoIBALs2bOHvXv3EgwG0el0aLVaFEXh8OHDvPLKK/h8Pqqrq7n33ntZvXr1nHMSZpJ+RFEklUoVmwiKoojRaMLlfvtcnU43bpcHUby09bc6k9Gm1+vRaDTEYjH8/svLHruWxINJ4uEkkl5Ea5RwtloR4+EEsclCL7HrRSwWY2RkZOamGM8fQHoBTCYTZoulWOGpcBjQGwzkcrlixfdwKEQ6lZoJJihos3g8zlt79vGLX/yCwcEBtmzZwuc+9zkWL15MLBbj2LFj7N27l56eHoaHh3nzzTfZt28fw8PDNDY28oUvfIH3ve99pFIpnnvuOV544QWy2SzCTNi7IBSm7lA4wsTkNP5AkHg8QS6XP+Nc9Rhmrv1StL46k1Ckn+lwGY1G3xOhVecjNpUkHkwgaAQkrYi10owYD6WITl9f4ZvVfJIk4fF4kGb6nl0qGo0Gw0ySUSIeJxwKMTU1ydDgAD093Uz7g8RiMdLpNJIkotMVzBeZTCG5KBKJ8Pzzz/Ev//IvPPvss+h0Ot7//vfz1a/+Bffddz9Wq5WOjg52797N7t27aW9vZ2pqim0338qXv/xlPvjBD+L1etm9ezff/va3eeqpp4oBErFYDEVRC92FAFnOkUwkmJqeYnBwiP7+AUZGhgkGA8RjMcQzavddyr+BxWLBaDQSDofx+eYGLbyXiE0niU8X1qSiJGGvtCAmQ2kS00kU+Wxb0rVitnmeJElUVlYW12SXgjJTaiIYCDA2NsbwyAjDwyOMjowyOTlJLBpFqytsDOx2e2E3bbWhqirxeJRYLF4oQ3H8GMeOHWNkZIRcLkdZWRkPPPAAX/3qV4r90QYGBujt7cVut88I51f50Ic+XEzgGRoaYvfu3XR1dTE1NYWiKMX6gEajAafTQYnHg9dbgtVqQ5ZlAoEAvvFxxmfOfXJqmmAoTCKRJJvNntPGdyazVa7ey5ovn5GJ+RIkghlUFURFpKTBgZiaThMbS5FLnyMo7hogzzTLy+fzaDQaSktLLyh46kx0cSaTIRZPEInGmJicYnh4mAmfj0gkSi6fR280Ul5eQUtLC00NDXg8nmLAp1arRaPREIlEGB0tCNvseqmsrKy4uTAY9KxcuZIPfOADrF27FmY2Gq2trfyH//Af2LJ5I1ZrYZNx5nIhl8sRCATIZrMMDvaTz+eQpEKFVJPJRFlZOY0NDTQ01FFTU0VJSQkajYZEIkkwEGTaH8AfCBAKR4jHEySTyWK3zPnYbDZMJhOZTIZkMnldksgvRjqeITqWIBPMgKIiqSLeJjdiajJLdChBJnF97H3pdJpQOEwymUSSJEouEpmhqirZbJZAMMTUlJ9wJEo2l8NstlBeXkZ9XS0LFrTQtmgR1TU12B1O9AYD6XSaYDBEKBRCo9Fis9mKidezGwFVVenp6aG/v5/p6Wn8fj/d3d0cO3aM0dHR4u8nEgkOHjxId3c309PTBT9wdzejo2Mwo40TiQTj42MMDPSiKIVWB4lEAr8/QCQSJjdzzqWlZdQ3NLJg4SKamxqora3G5bAhCgLJVJpwOEIwGCQYDJ5TsGan3dl/l/lBCu8FMvEsCV+KbCiPqBMxenTYyyyFqBajW493qQt72bWPB0skEhw9epQdO3YA8MADD2C1Ws+r/VRVJZfPE43GcdgtuF1OPG43FZUVeDwlWKxWdLpCAKOiKGSzWUKhIKMjIySSKURJwma3k0wm8PlGEQTwestIJBKcOnWKo0ePMj4+TigU4sSJEzzyyCP89Kc/paenB5vNhsFgYGhoiOeff56+vj4ikQidnZ088cQT7Nixg3w+z+LFi7nzzjtnikD6sNtL2LDhBsxmM9FYgkAwSCqZKGrh2Q2GwWjEbDYjiSJmswmrxVysQzNrhpq/O5dluVj8sqqqik2bNl33ZKL5+Lqm6X1phFBvDHOlkeoby2jaXI20zfW+h3VuLa5GG2Wt16bY9JlEIpFix0iHw8EnPvGJC/p0BUFAp9Xicbswm83FG6eqKhpJU/xsLpcj4PfT39/H0PAYubyCzWqmxOPB43YTi8aYmJgkmUxgMJj42Mc+Rnd3N6Ojo3R3d/PGG2/w2muv0dPTQzabZfHixfzVX/0VH/7whzl+/DiRSIT+/n7eeOMNduzYQWdnJ8lkkk2bNvH1r38ds8XCU0/9AoDFi5cWvSSSJJLN5QhH44QjYSRRwHJGEGgoGCSbzaLO1GvR6XRYrdZz2j4FQUCr1XL06FGOHj1KRUUFN998M2739YtOOhcD+8cYOTRFJpzFVm2h9e4aylo8SFuMdz8syzJGu5GmGwvNVK4lwWCQgwcPcujQIerr67n99tsvKHyzqPMyxmbXgblslngsVvB3Do+SyWZxOqxUzESdaLVaEokE0WiUeDxKMOgnlUridpfwpS99CY/Hg06nw+PxUFdXx6ZNm/j85z/PV7/6VTZv3kxjYyP33nsv69evJ5vNUlFRQV1dHQsXLuTjH/84f/Znf4ZGo+HnP/sp6XQCi8VJXUNz8bd1Ol0h+sVkIJPJMjkVYHx8HBSZZDJBPp87S+vPv9YzXxdFkcOHD3P8+HHKy8tZt24dNTU184deV4793x5GD02STyhYPWba3t+AvcyKdEvlfQ8rWRVnlY2GGysvWN7gajA5Nc2+ffs5deokS5Ys4cYbb7wkE8N8RFGcWVP5mfYHiMcT6HUS3pISHDOV6CVJIh6PEwqF0WgLQpDJZJmenmB8fByNzsQtN9/MLbfcwm233VZswrx06VJKS0tnopk1WCwWqqur2bJlS3HsnXfeyZo1a/D7/TzzzNNMTIyi1Wq49dY7MRmNJFJpJFFEr9cjiiJarRaT0YhWI5FOpQhHY4TCEbRaDYZzZMGdD1EU6e3tLS4L1q9fT1NT0/xh141kJE33C0MEeiNIJomShQ5abqnD5DQg6mwaUCAVThMej83/7FUnHo8R8PvRzlQoeCeCl8/nCQaDTPv9xGIJJFHE43ZSUlKCyWQs2s5isRihUIRcLo/NaqWpqZmFC9swmaxMT0/y6ivbee21HQiCSG1dHfX19ZSXl2O32+e418QZv+1sGFVTUxNGo5H9+/fym988wejoIDqdjmXLVlNVVUVZWSk6jUQoHCESiRa9HBqNBqvVQllZKQa9DgEFvz/I+Lhvxj549u72XJSWllJWVkY2myUev/6++jMJj8ZIRdKggsGlw9Fkw+QqWAVEnVWHqqikohkCo9c+BS8aKeQ8GAyGYjHEyyGRSDDtDxIMRxFFDU6nA6fTgdlsLubRCoJQ1Hi5fA6L1YzNZp25+TYamxbg8ZQyNeVjz55d/PrXv2Lnzt309Q+QSFzYAD8xMcHu3bt5+ulf8+abrzE6OoLRaGT58lWUl1eQzWYxGAy43S40kkgkGiUSjSHL8oyXRSq873JS4vGg02lJptP4AyGCwRCpVMEQfj4EQcBut2Oz2Uin0+85W19kKk4mkUNVVLRmDdZyEwZzIUhYum/Bhx+OjSTR2jU46ixULT07Y+xqIcsyb731Fr/61a/QaDTFYt6XMt0ATPsDxOJxFEXGZDBit1sxm0xotXP7gyWTSYLBENlcHpvNgmNmNxiJxsjmcnjcbkrLykCQCAaD+HxjTE5OMD42wsjICKOjo0xMTBAIBJicnGZwcICenh6OHDnIoUMHOXr0ML29PeRyOaqr61iyZBnNza2oKiRTKUymgg1wNsAgk0mjIqDX6YoPm2YmMUmv06HV6mY8MBmymSyiWIj2ORezy42enh66evrJaxykLa0c6wue92jvDdA9HCGflylzX72cnXxWpn/vKONHpkn60tirLDRsqyy2wJU+uOzjDwd6I2hsEuYSI/XrK69Z2mQ2m+W111/nmaefxu12c+ONN1JRUXFJwicIApFoIUXRbrNit9vQ63RnTdupVIpAIEgmm8NmNeN0ONDpdMTi8UKGmSRRUuKhtLQMp9OFTqtHFME/Pc3gYD8DA/0MDw8xPDzI0NAgvX29dHaeorPzFEePHqG/vw9ZVvB4PDQ0tNDWtoTGxsI0LAgQjcURBDAYDOh0OiRJIpPJkk6nERDQnSGAzAih0WhAP5NCoJ7hwz0XoiiSTCY5ffo0x46dwJ+SmNK2cWIwxIn+ECcGzj6O9QUZmIhiN2hY1nz1LBy5tEznSwNMnw6RnspS2upi0X0NWGYEXrSUmpH0ItlojkhvnFTs2hmb44kE8VhsJiLFgtP5dhCpMFNx4MxjvmCVeFx4S9zYbLaivWz2YFbwgiFSmWxB8JxOtFotuVyOVCqNqoLVWghGQFUpK/Wydu0a1q27gSVLllNf30hJiQdJEonFokxMjDM+Nkww6CeTSeMpKaO2rp7Fi5exdu0NrFy5iurqasSZCBqLxYJBryU648KTZRmTyYTTYUcSRcKRgntv1o7HGSFfOp0Op8OBe8akdD7UmU6VNpsNvU4iGw8RCocIJfOEkrlzHuFUjmhKJnOe6lFXilwmT7Q/QTaaQxAFTC4jjsq3zUrSp+/7wsNTPUFy4TxiXqT2pvKrVm95PoODg7z++ut0d3ezcOFCbrvttuJuUD3DYp9IJIjH40SjUcLhMKFQiHA4TCwWI5lMEo8Xbu5s2FJBuFKEQmHyeRm7zYLX6y2acGb9uQaDEYfDXhTWWdOFw+GgtraWuroGvN4y7HYnLpcHr7eseFRWVtPSuogVy1fQ3FRos6CdV9Ro1kSSSKXJ5XLo9YXdslarRavVkE6niSeSaCSpuD49kzMfwAshimKxRVYmp1BZv5DSyhpsZv05D7tFT7nLSFu1jbaGufGMV5LgUITjP+slMZVEMkjUriun+da3zUDCnkfb1YM/6cB/LIytwszmv1vOsnta53zJ1WL37t185zvfYefOndxyyy18/etfJ5FIkEqlimFWExMThGfcb+l0unDDztjR2WyFqOfZ2LbZZB+z2YxOp6OyspKGhobilJfNZpmc8oOq4nY7MZsLeaXnYlbbzheKM5Fn+oJciMnJSaLxJCUeNzbr28bidDqN3+8nnc1TXurFbC40dbnY981HEAR27drFj3/8Y2LxFJ/6/Ff48Ic/Pn/YWeh0InXlZyfmXyk6Xu3njW8eJjwaw7PMwZpPL2LF+xcU3xdOv9Wn7vl/j9P30hj2ZjONd1Zx199umvMlVwNVVXnyySf5p3/6JwKBAPfffz833ngj27dv55FHHiF3RjLMrAaYFYQzhWH2Rs1qmfkRMXq9ns2bN3PrrbcWUwvjiRRWa8E1d60YHhlFzucpKfHMcR9ms9mCpyWdpbqyHIvl8gNpdTodx48f58c//jHd3d089NBD/M//+T/nD7vmbP9vu+l7YZRIT4LG2yu54S+XUruyovi+9PW/+s8PT3eHCA1GUQUVQRFY9oGWOV9yNYjHEzNRwnsIBoNMTk7y9NNPs3fv3jmCB+DxeFi+fDnr169n7dq1bN26lfXr17N+/XoWL17MggULaGlpwePxFKJdYm/bK2VZZmhoiDfffJOOjg6CwSBVVZVUVVWiOU8VrCuNKIooikw6k0WSpDm7XEmSMJvNpFJJQpEYep0Wne7yu3mn02mGh4fp6urC6/Xy4IMPzh9yzdn7vePEJhKIkkDlWi91Gysxn1HKTvCPB9X2X57m8KOd5GJ5bKUWHvzhNty1jnNWRL9SjIyM8A//8A/8/Oc/R5blogeiqqqKNWvW0NjYSF1dHS6XC6PRWPQuCIIwZ5pUFKW4lpsNz0okEkQiEaampujv76ejo4MDBw4gzCQoNTc3c++997JlyxZMJtMF7WhXCkVRGB+fIC/ncTkd2O2FteaskMmyzNT0NPFECrPRgMViRjuTwMSM9p81dJ9p8J59bzbR/dvf/jYNDQ089thjLF68+KLrxauCCrFAkic+/QqhkShas8Sqjy9kxUML5gpfIpZQTz7fy54fniA+lMBoN7D1/7eKhTc1nFUf5Ery1FNP8Z3vfIeDBw/CTBzd+9//flpbW4vlvwwGA9I5oprnr9Hm/wMrilLswZZKpYhEIpzq7OLN11/j2LGjZLNZqqurueXW27jrrrvxlrivugCKokgwGCQciWEyGXG7nORyecZ9E0xOjBe1fyweR5x5SISZalSzn581t1itVvR6PQ6HA5fLRVlZGS6Xi/379/P3f//3SJLE97//fbZt23aWoF4LVFVl4OAYL/2nfSSCSYzlBjZ+filL72uZ07VKSKVSau9bw+z94Ql8e/wYnXpWfnkBGz6+7B33Ub0Q2WyWJ598kscee4zDhw9js9nYuHEj69ato7W1tSh0XMChfqnMrg8VRSGRTDE1OcmhQwd59dVXC60EHA42bdzE/fffR2Nj41UVQEmSSKVS9PX109XdxfDQED7fBPFEnNTMTj2dTs8RtvnXP6vhZ4Nh9TO5HxaLpdj0sLOzk2Aoyo13f4yV2z6KpLn8imOxjMymJaXcufrt9dnloCoqh3/Twb7/fZJkII13lYsNX1hK601zGy4KqVRKnegKcOBHJzjxaB/maiONd1Vy+9dvQGvSXvGp94knnuAHP/gBR48epaqqittuu40tW7YUIzHma7UrhTDjygqFQhw6dIjt27fT3t6OwWBg69atfPKTn6SsrOyKC6A006J1eHiY06dPc/jwYbq6uoqJ68wImtvtxul04nIV7Hqzy4xZgVNmqramUqmiecnv9xOLxYqpnQaDobChSqYwuWpo3PrnmN1ViDOJUpdKJCXzydua+Mq9b+9MLxVVhVwqx2v/cpCup4aIDydZ9KF61n5+cbEW9SxCKpVSE6EUh3/SyZv//QjmWgOOWisf+P4tWD2mKzb1KorCnj17+Na3vsWhQ4eoq6vjrrvuYtOmTcXQ+Xej5S4VcSaN8ejRo2zfvp19+/ah0Wh43/vexyc+8YkLGnQvF0EQCYcjHD5yiCOHD3P69GmGh4cxGAxUVVXh8XhwOgvmHq/Xi8NRWAvOrnHPDDSdFb50Ok0mkyGRSBAIBAgGg4WKBdEoU1NT+Hw+pqamEEQJR9NmnPXrsVe2IWqN5BS1WGDyQoTTCp+7q4mvP7ho/lsXZTZO4Fdf3YG/I0J8IMXGv1rGqs8uxF46N69ZSKVSqpJXOP5EDy98Yw9auwYxK/CJ5+7GXWe/Ip0l8/k8IyMjfOMb3+DVV1/F6XTy0Y9+lJtvvhm73T5H6K6mEM431Rw7doxHHnmEXbt2Ybfb+fKXv8wdd9zxrtdJwkyEsc/n45Udr7HjlZcYHR3F4XBQXV3NkiVLaGtro6qqCq/Xi9n89ubiUuyGZ57fbCRLIBBgZGSEjo5OTpw8yUB/H8FgEIN3IRVt22hqW4untBSN9jyVv84gnpG5Z10VD225/L7EiqwS9cX42X3PkcvnyQby3P6t9Sx9qAWtYd5GabbfbteOIV751j6SE2nUhMoDv9hGw9oKNPp3dyNUVSUQCPLd7/4z3/nOdzCZTHzwgx/kzjvvxO12k0y+naVVMBQbMBrfXvNdCURRRJZl0ul0MUpk1qfa3t7OD/7t3xgZLlSa+vu///uii+ydIAgCuVyO4eFhnn/+eR5//HHMZjNlZeVs3LiRLVs2U19fP+P7LRiU381S48wHSlEUEokkI2NjvPrKy+zbt4+hoSGMVi+33HkfD95/H21tC9HrLy6AToseh+3y86fzGZnBQ+M8+f4dSHYRvVPL7Q/fwII76uYPfbsJTCaRJTASJtwVQ2OV0JVoqV5WhvZdCl86naH9aDtf+tKXyOfz3Hfffdx///2YzWY6Ozs5ePAg7e3tHD9+nOHhEaKxBE6H/SyH+ztlVsuNjIxw/Phx9u3bV6wIGolEKCnxUlfXQHv7Efx+P3a7ncbGxvMXprwIsiwzMDDAL3/5S377299iNptZv349n/yTT3HXXXdSWfl2D90rpeXP/B6dTkep18uaNWvwer2MjI4S8k9wsn0fZoPAqmULaagpx+Mw47QaznsY3uF9z6bydL7az8ibk6BC6VoXzduqsZefnR9UFL58Nk9kLMbEkQCCTiCTzLLojnr0M7FX7wR1pujjT3/yEw4fPozRaORrX/sabrebZ555hh//+Me8/PLLnDhxgo6ODg4ePMAbr79GJpOhurr6nHkLl4ssywwODvIP//AP/OpXv6K9vZ3Tp09z9OhR9u3bx+joCFVVlZSUlNDZ2cn4+DhtbW14PJ53NP329/fzy1/+khdffBGz2cy2bdv4kz/5ExYuXIBGI13xDc25mPXy1NfXs3TpcgJ+P9PT03R2dpJIJGhubsbtdp9lwroSZBJZDjx2ilQ4i6qoNGyrpHZdBSbH2Vq0KHwqkAykGT5Y6F6djeVYfE8TBrv+HW86EokE+/fv5x//8R/JZDJ87WtfY+nSpfzbv/0bv/3tb5mamqK8vJy1a9fS0tJCJpMhGAwWWzu1tra+40ysWRtZR0cHn//85/H5fOTzeZYuXcrq1asxm82EQiGGhobo7++noaGhaGvT6/U0NTVdVnV3SZIYGhriySefZPv27dhsNh544AG+8pWvFBN6roSWuxwURcHlcrJ06RKi0SiDg4McOHCAyclJNm7ceFnXd6mkI1l2/2N74VoFgcabqylf4ikGkJ5JUfgEUSAVzjCwdww5raBkVMpWuXFUWN9xf92+vj5+/vOf097eztKlS/nIRz7CxMQEzz33HKOjo2zevJk//dM/5Z577mHt2rVs2LABr9fL0aNHufnmm1m6dCkm07sLdhRFkdHRUXw+H1/84hf52Mc+xqZNm9i0aRMtLS1Eo1F8Ph9ms5mGhgb6+vro7+9nzZo1xb5v4rzQrnMd4XCYZ599lqeffhqTycTNN9/MJz7xiWIHJWFeU5prgTjjQTGZTFRWVhKJRBgZGSGTyWAymVi6dOk70u7nQ87JhIajnPxtH6igd+lYdFcD3mbnOWXoDOETycSzDB+bJDGeRskoeJc68ba43nFrhCNHjvC//tf/QhCEYhUnp9OJ3W6nqamJG2+8keXLlxcNyzabjbq6Ouobm9myeRMul+tdTQ3CTK7rwoULWbZsGRs3bsTr9WKcyY8tLS0tmjjuueceVq5cyZ49ewiHw1RXV+P2lIPGSDqrXPDI5BTeems3r7z8IqFQiBUrVvCnf/qnlJeXY5hJWJ8N+5IkCd1M0OvV0IRCsTiRQDgcJjXTh8TtduN2u4v5yKFQiJISL97yGlKZ/GUfkkZEmvcwZRM5htt99Dw/AoCxVM/iexpxVdvOeR+Lu12AwFCE3f/WzuknhkBRWfSxOrZ8cRX2istXz4FAgMcee4y//uu/xuPx8L3vfY+qqioEQSjG4VmsZixma2GNgjrjURGIxxIYjQWD6btl9iZnMhmMJgMCQqGyuwiiIJBIJAgFCyVwdTod3/jGN9i3bx81ratZvOkDuCoungmWnO7jxFu/ofv4Xurr6/nUpz7FjTfeSCAQ4MCBA/T29hKNRhFnXGStra2sWrWq2OTm3ex2ZxFmdrypVIquri527txZDLDQ6/VUV1fT1tbG9PQ0v/71r+ns7GTRsjVsfvCvQGfncrwJkiTwwMZaFtU50M00+QOITifY/+gJjnz3NIgCtbeWsu1ra/E2nztm8Kxmz0l/mp5nh9HaNagS1K+vxOwumAUuh97eXp577jk6Ozupr6/nk5/8ZHFXptfrsVjNkBWJjaeIDCaJjSXJxPNoDCImq+ESyyNeGuJM8nXMlyLUlyAynCQVKJTkN5gNOF12RLHQ4CUSiXD8+HECkQyqpYa44GYypjIdzZ/3OLVvO0Mdb1HidnDnnXeyZcsWxsbG+MEPfsCuXbs4duwYfX19DA0NFaf1YDCIyWS6aG2aS0VVVSYmJnjttdf4zW9+w759+xgYGCgefX19TExM4HK5cDqddHZ2MuKbYiprI6i6GfMnGfUnLnoMTycIRDMsbXBSVWJGO2MHVhWV6ESCzhf6Cl09wzla7qmlZk0ZBst5UgDO/ENn1OKucSAnFUStQOBEhIQ/dd5mvecjm8sx7vMxODiIxWJh1apVc9YWqqoSHUozsj1A98999D0+weAzfgZ/Pc3A01NMHA8jZy7vN8+HgEAuKTO6M8Dg09P0/nKCgV9NMfjsNIPPTjO+M0jcnwahUIBo8eLFGAwGMvFpYkEf2WwSSRLPe2Qio4R9p0nHQyxYsIAbbriBQCDAz372M15++WVGR0dpamripptuYsuWLTQ0NOD3+3nxxRfZvn07Y2NjRRfaO0UQBCKRCAcOHODXv/41R48exev1snHjRm655RaWLFlCPp9n7969vPLKK8RiMdra2silE4x3vA7ZGJLIWdd2rkMUwKgTmd+8QFFUMrEsgZ4Yol5ETip4G5wXtJbM0XyiKJBL5jn94gCIAsnhNPVby3HW2y/L3hdPJDh44CAvv/wSGo2GBx98P5WVFSiKgiAKxMfSjLwYIHQ0hZSTUPMqofEIqbEssYEM0aEkppmGzPNb0s8u3GenmTOPcyFnFaYORel51Ed6IoeagqgvRsKXJj0hkxjPgAqWGiManYgkSRw6dAj/lI/yiirWrFzGioU1NJZbzzoq3WamT7+Jr68du9XIrbfeysqVKzl27Bi//OUvUVWVW2+9lfvvv5+bbrqJ5cuXU1NTg0ajIZVKYbPZWLx4MU6n811pP3Emg623t5e+vj5qa2u5//77ueOOO1i3bh0NDQ1YLBampqYYGRnB7XazZMkS+nq7SYYnWLZsGWuXL6Sl2nHWNc4/6sqstFbZWNrgxm3TI81IoZyVme4Oc+xn3UgmETUP6764BEe19bwBKnOET5h1Cw34iQ0mUdIKjoVWShc4MV6GtTsei7Fr10527NiB11vK3ffcU0xXVBWVoZenCB1PUbO+jOWfbsG91MZkzEfXYAdGTGR6FVSNgL3eiM5aWDwzozHz+TzJZJJoNEooFCIajZJOF3Ik5gumIqtEx5N0//sEalyl6c5q6m+pJG9KMxYcJZFOoE3pSftyGMt1WGuMSKKGiYkJBgcHaa3z8pF7t3Dv1uWsbHafdZRZFPa9+isGejtZu3Ytd9xxBx6Ph3g8Ti6Xw+Vy8eUvf5nW1kI7LZvNRk1NDZWVlVRWVhbdbO92zaeqKiaTqdgnZM2aNdx88804HIX85bKyMhobG8nn8+h0OlavXk1rayt+v5/hoUHqvTq+9rkPsWlZ9VnXOP9Y3ephSYOLUpdpznovHcswvN/H6aeG0No12BrNrHioFbPr/Mb6OcLHjPqMh5KM7p5CMkiIFoGq5aXYSi/d4e73+9m5cyft7e0sWNDK1q03YZgp9xqfSDPwq2mqV5ay+lOLqFtVgafBScQ4zf965L9hU51UldaQmcpjbTBi9hqQtCKZTIZwOMzEhI+urtN0dJzi2LFjMxEi4/j90+TzbwugTq9FTitM7Asz+MtJln6pmc1/tpLmTTV4ltp4a+h1DrQfoNxQg041IGehdK0NnU7HxMQEJ06cIJvNsm7talYsX4JBrznrOHzwLZ544nGi0Sg333wza9asQa/XU1payurVq1m9ejWVlZWoqKhqwfCrqip2h4OG+gbKy8vflcabj8Vioampierq6jm/p6oqRqORhoYGNmzYUOxQGY1Geeutt+jp6eGzn/kTKsq9mAy6s67zXIc0T5tFJxJ0vTLIZHsQSSvReFcljZuq0JvOP+2eZXjSaCVKGpwIkoBoFgn1x0iHC1WTLpXZ6IrZKgQmk6n4dEeGk6R8GSSNBo2hEMYuCgIGox6DS8ux5H5kUUbJqiSnM2RTOZKpBN3dXbz88gs899xvOHbsED7fKLKcQVGyTE/76Oo6xSuvbGf79mc5ceI40WiMbDxPrDOLIAlULPKgm3FsezwePFUOQjofPfGTKFmF+EiSxFTBKu9yudDpdJw4cYL+/v7zXvsrr7yC3+9nxYoVtLW1YTAYitdpNpspLy9HzikoeRU5q6JkVVS5oP3P953vFnWmeKaqgpKj8Lt5FUVWsFptuFyFtrAmk4nly5cXAxr2798/J/3gslAhGUwx2RPCUF5wSnhbnGh0F16qnSV8kk7CXe1AaysUss7F8iSmk2STZ/eiOB8jIyP09/fPlIlwF4NDAZSMgiqrTHYFmOzzk8vliMVi9Hb3Mj0eIJgJkZKTyBkZFJVoNMbePfvYufMNJifH0Wr1lJZWs2TJSu666z7uvvt+VqxYS2VlHQaDmWDQz549u3j+ueeZGJ8EScBQqmN6KEwuW3BtRaNRJsenmZieIJwNIGgE1LxKJppDRsbtLUWvL5xzMpkikTh3wcUdO3YQCASoqKgo1pJmVgAUGYVCt8XBV6c4/TMfp386ydArfsIjcWR1bvfwK4EgCghSoRLo2IEQPY9N0vlDH72/nSDQHSOfKrRikGUZURTxer0sWbIEQRDYv3//O+5YLucVUuEs6UAaUSsgGgTMbtNFr++saRdAycp0vjJAPiWjZBU8C524m2zn3TLP56WXXuLZZ5/FbDazbt06WlpaUBQFURKI+dIEDsaIjaQ4NX6M146/zBNPPs6PfvQj8tk8ZYYKVtpvQCNosTYaOD15gr6RLjKZJLW19TzwwAe47777WLNmDTqdDrfbzQ033DBTaqOBeDzO1NQEmUya4HQEXciEEhLp7erjZPAwvSPdPPXUU7z88suQkGi2LKbCWIPGLFF1sxujRY9Br+PQoUP4fD4WL17MypUr5riiFEWhp6eHRx99lEgkwu23387SpUuLebuCICCnVEbenObofxlgeneExFiG+EiSqT0RwieTCIKIqVSPdkb7v1sEQUDJqYS6E/T8fIr+n/pIjKeJj6SIdBV+NxnMovdqMTp1oL5dQfXw4cM4HA42b96Mx+O5bE9MOp5hrH2K/jfHEAQBY6mBVR9ehLXEdMGefme9I4oCepse7xJn4YIyKuGxKKlwdv7Q8xKPx4nNNEYpKyt7+w1VwF5jwtJoQjIL5Po1dDwzwJsv7oG4lgXWJWwpuQONoCWnzXBy4ihDE73IssyGDVv44Ac/gqrCt7/9bT7xiU/w8Y9/nI997GN86EMf4q/+6q/o7e3lrrvu4d57348oaghGJplSRxF1AqashZFnA/zkf/yCZx5/Aab1rHXeyCLrCiStiLPZgtmrQ1bkYl0VQRDOamvFjPCdOnWKTKZQ3aGkpASLxVLczWeiOQZfmqT3RxO0fqSWTf/PCqrv8SCUKAg2lWw8z/ALfvp+7SOXy53zZs+uXWcPSSrYIc+Mbj5zrJxRmDwcpvNHY0R7k3hvcFOy2km+IkVGnySv5PEfiDL03DShgQSC8HZ9aUEQ6O7uZmhoqOgRuRyyiSyxqSRyXEYQweDQYS0zIWoubEI6+6oBSSdSvsRDPiSjKirh8TjJ8KU1ikmmUiSTb8fMud3u4pOtKApmrx7vOisag4guZKBRXcJN1ru5o+z9bC25l2p9A5nxHEJFnrAySTIbo6WlhbVr1xEKhfnBD37AL37xC3bu3ElHRwednZ3s37+fZ599lh/+8IccP3GSJUuXsWHDBnKkCeomCMtBSAu40uW0yWvYYLiFLY7bWWRegUE2FXq03eRA1BRCnXQ6XTHAc3ZXfSaKonD69Gmy2Sz19fW43e6iACmyQmQgwfgLIWq2lbPpiytY8aFWtn55HemV05yUDjCRGyMbzhHqTBI8HS/2imMmQEGSJGKxGENDQ8VSve3t7Rw9epS+vj5SqRTSGYlVggiJqTQTB8KkRjPUbi3jzodv4Na/Xs+GryxmqKSDYaWPZCZJ8Gicyd0hcvk84kx1BpvNRiAQIBwOF3NILodkOENkLIaSUyEP7iYbWn1h2XYhzi18kkj1sjIEWUDQCET6YsTHEpdkbA6Hw8TihYWr0WicU6JVVVUESaB0rYPK21zYG6yUSKU0a9pokhbiFcqxuqxU3eVBsyhLXp/G5fKwdOlyysrKOH26k127dpHJZGhubmbr1q1s27at2Jv35MmT7N+3D0VRWLlyNZXV1aS1MdJt03hW2rFZ7VRJ9bRqFlMtNmLV2rE1mai+w42jyYQy02hPkiRqa2ux2WzEYrE5C3FVVUmn00xOTiLLMm1tbTgcjhmtB7mkTGwwRS6o0HxHNSUNTmxeC2VNHryLHIzpe+kIHyGSC5GLygSPJVCUQpkOWZYZGRlh166dvPHGq+zdu4vDhw9w9Oghjh49RHv7Qfbte4vXXnuZ3bt34/P5UBSlYKHwpYn1pjCY9Sy6u5HKpV4q2kpYftNi7Au19KknmMqNkQnkiHSnyYTziJpCx6empiYURWFsbOyiJeHmI+cVYpMJQsMxUEFOqFStKr2kCPhzjhAkAWeVHYNXh6gTiI+kiPvSyDML9gsRDoWIzbSY1+l02GyFcgyztjdUsJQYqNrmof4+L5VbXVSs9VCxpgTvBjvVt7po/FApaWuUVC5BeXkFtbV1ZDIZBgYGiMVi2O32gmF07VpWrlzJ2rVrqaioIJ/PMzw8zPRMqNaCBYtI5+LEnVNU3uWg5g435etdlK8qofIGD1W3uqi52035ppmoC/Xt4NPKykpsNlsxaWcWVVVJpdLF/hqzu/mZi0TOKKRDeVBV8pm5/16KohDKBhhO9xPIT6LKKumpPNl4oQ9JR0cHhw4d4Pjxw3R2nmR4eJhkMolOZ0CvN5BIJBkY6KWj4yTHjh3h4MF99Pb2EI/FkdMq+biCpJWwet+OBLLb7ejNekYy/UxnJxFEATkjkw7mEGciXqqqqtBoNMUA28tBlVXiI0lCXVEEjYCQh+ql5Rdc681yzhECAnqzDvdSO5JOQsmqxKYTJENz1wOqCsl0jlAkTXDmGJ+OkcgbsXibMDmrSOdUgjGZcEItHsGYQsagQd9mw32Lh6r7yql9fy2ld3gwrnKQd+gJplQyWDHayslhwB9Jk5D1aOw1ZHUegmkdks6CzuwhKhvJaNxItiryGjvhWI6MrMXmriEhG4lltaScMqYb7Hjv9FB+t4fyu0vw3OxGu8BCUhQJxpTi+fkjGQS9E72zhrzGyXQkj8+fIBhJMx1K0j86TXd3oVC4zVawDZ65aRBEyOdlul8aZM+evfT29vLGG2+wa9cuJicnUQSZvFCoyiBoIBaNceTIYY4cOcjgYC9Go4lly1awdevN3HrrHdx++53cfvtd3Hrr7WzbdjPLlq1Ar9cxMNDL4cMH6enpIhaNImoFkpkEB3ccYWpqqpCvfOoUXV09+KMB8moOUScgaAXkbKE4pV6vp6ysDEmSaG9vv+z+bfmsTGIqQ9KXRjKJWOpM2LzmS4oBPeduFwEkjUjQF8Z/Ikw+J6P3aHE12XFWvV1YJi8rdA6E2H1qmo6hMKdHIhzvnWYgIIOtGk/VAlStnd6JLMP++UeO0VAef0YlrtMR1RrxJVP0B/MM+3P0T6XJaDxgLiec1TMakBkKqPhzFgRLFcGsHqujlJTo4Wh/mKhqR+9uxFO1EJ29gvEI9E1m6J/IgLmCaNbAdFpDTJSISCIBGUZjCgPThd8789wGpjL4QgqTaQN5vRfBVEooq6NvPE7HUIADR7t4+bc/R6fVctttt1FXV1f0XSs5leR4Bv/hKNHpBAcGdnGy/zhP/upJ9uzZQzQco9bUQqt5GTajDUO1lrhrml27XiMWi1FdXcPq1evZsmUrS5YsxeFwoNFoMJlM1NbWsmzZSqqra9FodDPpk5OEw2Fkv4QubCWeiHPq9AmG5B66urp4/vnnef3119EkjCywLMNNKQaPjtL1DozOQmK63+9n7969jI6O8r73vY/W1ksvFBWZiDOwe4zJYwEMHh2VG0to3VZXqO19EfmbE1I1n+Pbu9nzj8eJ+ZLYmiys+0wby+5tKUp1Ip3jp8938vM3R0hllUIRRI2ARS8hCJDOKeQu0rAYQFZVZAV0Z9iF9BoRQYCsrJDNF75DrxHQnqHOFaXw+pm+w7yikskpyGphvF4joigqWUUthGtfIlpJQBSEQtM+RSWTV8jJQD6DPNnOwGvfpbmpnq985StFMwszwjd5IMyJfxwGq8pIrJ9XI88QyvkRBAGr6GSt80aW29eisYnoVsgMG08xNjaEzWbjox/9E8rKyotlPnp7e4vBB4WybYXK94sWLeLw4cPs2bMLn28MZ7ycCv9ClKCIPz/JU+P/TlpOIqsyOlHPCvt6FpvXYFdceFfZaPuzavTWQgXU9vZ2vvnNbxIMBnn00Ue5//77z9pRn4/ePSMc+PFJRt6cxOw1suyzzWz+7Mr5w87JuTXfDOlElpFDk6RjGdS8irvBQXmbB2nGp5fPq5zsD9A1FsOgETDpJLSSiDozJUtiQVgudug1Igbt3NcKN15AIxbe12tENPMCCkSxcJz5miQWBG72+2bHzf/Nix2SOCt8b3+nUSuiF3LkJo4THD3JooUL2LhxI05nwSwFhT66GoMGWYZEXwqH0U2duQWX1kuDeQEb3NuoNzUXAiYqsgRrBxke7kevN/Cnf/ol2toW8+ijj/L3f//3PPnkkxw7dqwYirV//35eeuklfvGLX7BmzRq2bt2KKEpMTPgIpQMoqJijLsyihcX2VXh05ZTrq1jrvJFW01IsWLEuMFF5hxNHvRlFVhBm/Pnbt28v9hFpaWmZ4xg4H6oKwwd99O8cIxfNY3QZaL27Fm/jueP35nPONd8szkob5pKCbzWXypOYThUqi88giQL1pVZKbQY8Vj3uP4DDapCYmOkoabPZzuoKpCoqklPCc7sL52JbITgDN8tM61hqXItDdaNkVCx1RlybTcWO5mvW3MCiRYsIBAK89NJLDAwMFL0Qa9euZe3atXNMOs8++yw+n48VK1ZQXV1DPBsh5QhBcwoUEaNsZoF+GWssN1Ip1aPJ6jCWGqjc5MSzxFrc2QuCMKdwZiKRKNovL0Y+kycZyJCN5RANAjq75oKBBPO54LSrKirP/d1OBt4cJxPMUndjBeu+uJiaZeWF94FcXiGTlS9nRvudxucb54uf/1MO7t/LQw89xEMPPURJScm8yJSCxswl84zumibekyPuyyBqBXQeCXebGWuTniF/H6++9iKSJPHf/vv/pqy0lJdeeon/+l//KxMTE6xbt45FixYVPSeSJLFz507eeustRFHkN7/5DTfeeCOvvrqDF154HlSVZYvWUGWpY2xfkKxPIRPJYXTqsdRr8a6xY6s1ztkMCDOpBnfeeSc+n48/+7M/4/Of//wlrfsik3H2/fAEJ3/di6QVqVhdwvv++40Y7ZfmCbug5hNEAXudFY1Og5JVSUUyJIJvaz4B0GlErCYttj+QQyvIHD96BEVRsFoL7RTORkVFQWMUqb6phOaPlNH4+UqaP1tG60PlVN3gQbKLxJMFN5vN5qbUW4okSaTTaWRZJhgMMj4+TjKZLJbNSKVS+P1+lJlK9cpMP4/S0jK83lJy+RxpJYmr1ULrg5W0/ImXxi9W0fypMuru9p4leLOIokhVVRV6vZ5gMEjyEpsHJkNpUoF0IfhYI2L2GjFYzx/FMp8LCh9A+SI3WrEgfIlAmujIO4x8+D1BURSSySSqquJ2u9HNVI0/i5mpQG/WUd5cSsvyahqX1eCqsiPoIJVKkkzGkSQNNpudfL5Q5WDBwkWsWbMWh8NBd3c3O3fu5NSpU3R0dPDEE08wMDCAoij8+Z//OWVl5UQiEbQz9tTZMrvxZByDQ0vt4mpaV9ZQ21aJvcRaXKufi5aWFoxG42VNu2FfjNhkAjWvojPr8DTZzync5+OiwueucaDTa0CExGiSwKkY+UswNv8+IssyiTO0gsPhQJqpQnUuBFHEbneACpFIEJ9vnInJSSYnpwgEg6RTKaBQLiMQCPDwww+zffvzrF+/jrvuugubzUZPTw+7d+9mz549DA0NkU6n+Yu/+AsWLVrEL3/5f/nxj/+d/v5+NDN+1EKv3zBj4xOMjo0SmJ4kEg4Vgm3PY/vI5XLFBKpMJjOnVNuFiI7FSYTTqLKKBglXvWP+kAtyUeEz2gzYGy3onVqykTyxkQRx/+W5YH5fyGaz+KffNsLOb4vFjAckl8sVOh4Fg4yO+RgYHGJ4eBT/tJ98LodOr8NoNKE3GFEUhWg0xPHjx3nxxRd56cUXqaio4DOf+Qyf/OQnqaurY3y8UDxywYKF/OdvfIPPf/7zKIrCyy+/zDPPPM3JEyeIxxNoNBqsVitWq6XQVy6dZmpqkpHRMcZ9k0z7/XOiv2fPV1GUYm+5WXdi7iLCJ+cUQl1xkuMFx4NOp8FTe4WFT2vU4Fpkx+AuBAmmMxkCIwX32R8a2WyWqanJ4t/2mYaCswgzVRIikQihcJhgKEIoGESW8zgcDsrLy/F6vVgtFgx6PUaTGUGQyGQyvPbaa2SzWUZHR+nq6iKdTuN2u4sVGyRJwuVy0ta2mMnJSU6dOsXk5CTDw8N0dnYyMTGBZqZGnyRJOBw2yssr8JaWYjabEQSBVDJFJBIlGAoTjcWLmyRVVfGUeNFqtQRnGktnMxeOYooHk0QH4mSCObR2DdZa85ySt5fCRYVPo5Nw1Fgw2PSIOoFsJk94+PL8f78vZDIZfD5f8e/Z0rVnTruKopCXZUSx4JWoKC+lvr6O+vo6nC4nKhCORMlkM9isNlwuD6oK3d2niwv+2Sr9jz/+OENDQ8V0x/7+fv7lu//Mt7/9bV5++WXC4TCqqhII+AmFgpjNhUY64UiEaX+AXF7G6XRRW1tDVWU5LpcTo8mEdqZM2ux5q6qKyWRGlCSmpqYIBALkchcWPv9QmFQiDYKAscSAc5Htkvy5Z3JJo+3lVkxOHaJWIBPLEByMIef+8NZ9Bc03hSAIOGbaaJ1p4GYmmKLE46GqspzKirKZalcC4VCQ4aEhhgaHiMUTmM1m6mpraGlpQVXz2O1mGhvrcTodDA4OcPDgAcbHx6itreWBBx7gwQcfxOPxMDAwwOuvv04ikcDpdFJbW4vFYkKn01FX11hIVrKYiURjnD59msHBQRKJJIqiYLFYqCgvo7KiDLfLWYxZBDDoCy1Yo9EokUjkogWNggNhMtkcolZAb9HhrLGg0Z9/Q3MuLujhmEUQBHwn/ASHoqCC0WmgaqX3kiObrxaKopDOyuTyyjU5/MEw+/Yf5Pip09ywcTMbN25Cq9Mhy6CoAooqoCKCIKGoAnlFJZFMMTbuY2pqmnQ6i0arw253YLPZMRhN6A0mJib8xJIJHE4nbYuX09zSTGNjPVtvvoVPffpzPPTQx9iwcRPLlq3A4XLhcnlYtXoNjc2tmK1mJK2G2tpG2hYvx2y2oNEZ0Ov1ZLM5wpE4gWCQXDaPKoioCAWdM3OOCgIqAplsno7TPUz5gyxZtpwlS5ZiMJrnXL+iqoUSGapK5yuDTJ4Mkk/KeJpsNN5SjbPi8hrKXNDIfCav/s+DHHuiCyWr4l3o5MZvrKJ2ecHYfD1QVZVkMsn+jgCp7MXjDN8tAuAPhtn+6i7e2n+ADctb2bp5I2bz+QsZqYpCKOAv2l0sNge6eQ388vkc/qkpjpw8XXxt9YplLFu8AJfdSjKTJ5bIogIaScBjN6ICr7+5l87efpKpFB6ng/raGkq8JXO+GyAS9Be1mMlixWA8//k++fTLdPT2s2nNEm7ecgNuz9tR6JIoUOYy0dboRknLvPStPfS/OYqcUWi5pZbNf7EcR+VVEr79j5zg8KOniQ8lcTfbueE/LGXh1ob5w64ZiqriDyf5yncPMBZMoV5lH4soCOhEAVmRkWUFSSoUGD+f+WKWOaFW5wntVVUV+QwPSU4BnUZCIwioqOSVQnCDXipM72lZQVILgRxQKLMiCmc3RuSs32fmMTo3+XweRSnUYlEQmInnQFYKZqMHV5XxpfcvJjOZ5JX//17GjkyjMUksebCZTV9ajs50eQWlLmnNB+ButOOotKDmVdKxLP7+67/pUNWCew9VRVC4qoeqqGTzCooqIEoaVCRy+UIEzYWObF4tHvPfO3OMrAjFQ0Agn1dI5+RChI5cuMZsXiGTk0FWUdS3x+dl4bzfP/f3zz1m9lAFCUGSkFUB5YxrF1ERUcjLhcgg/0iISG+CfFRGMkjobVq0xnN5ei7MJWu+wFCEt/7pKCef7MNYoadqjZcP/uut84ddMxRVZTqU5L8/cozgNWzTSlGDFIT/94mi4jxH9JlGEljR6OKz71vIsSdOceSH3SR8ScrXuln9mTYW3Xr5s+AlC186lmHPd49z8CcdCBK4Kuz8yfP3nFVh/FqhAplsnu7hSEH7/ZGriiAI2Mxa6sqtbP+7nQy8Pk5iJE3zXdXc8BfLzuqxcSlcsvApskL7k13s++EJYoNJzBYD9z9yE9VLz0iN/CO/v6iQy8qERiI88+WdhH0x8nGZFR9r5Ya/XIZ1pnv45XDJaz5RErFWmrFVmQvRvWqeo09207N7mMhkHOWP2uf3lnxGZrInwIlnutn7z8eJjsVR8yqGEh22KvM56y1fCpcsfAAWtxGr24SaV1Eklb6XR9j7/WMc/b9ddL06RGgk+gcbdPD7hqqopGMZJjoDnHy6l0OPdLDvRyfp+HU/siKDCK5mG44G62V7Nma55GmXmbKnp37dx5GfdZHNZsnF86hyIVvLXG1k4R311G0ox1Vnw+Q0XvbW+1ykM3kyWRl5Jl/jvYxBr8F0ndbAV5J0LEN4LM5UR4D+XWP0vjaKklYKqkqlEJxabmbRvXUsuL3unD02LoXLEj4o9FEd2DtKxzP9TLwVBEuhCrmSUVHzKvYmCzUbymjYUEnZIg9Gh76QvX4ZcV5nMjAeoXMoTDCauYCF6vqizhhh2+pdLG16O0n+dwlVUckmc6SCaYaPTdL1yiDDOydIT2bRe3UIEmgkCSkn0fyhalpuraW81YPB9s69XJctfLNkElkGDo3T+UIfI69PkY3lQCMU7FGBPJJJpO7WclZ8ZAFlCzyYnYYLBjOej2Nd03zvhR72dgW4TNfhNSOdB6dFy2dva+KTt128gPh7jXxWJhlKM7B/hIP/dprA6TCiTkDUicVEelO5kcbbK1l5/wIclTYk7Tubas/kHQsfM0+Lqqj0Hxzl1PN99Dw5QjaaQ+vSImoFclG5kMF+p5flH1pA65bayxbAWeE72BPAdAUu+GqQlVWsBg2fvPV3T/jyWZkTL3XT/mg3k7sCiGYRjUVCyajkQjnMZSZWfmUBS25vxFZmLZRhu0JT0LsSvlnymTzZdB5/b5je3cP0vTZGqDsKCkhGEUESkP0K5iojG762mIaNVVhKzIXE4osw6Ivy0oEROgfDiFfqqq8wKioGrYZtqyu5dU3V/Lffc+TSeYLDEXpeH+bQP3UiWARk5IL3aiKLwauj4gYPLdtqqV9TibnEiNaovWi9vcvligjfLPmMTCqaJjAQYeiAj55XRpjcF0BrL4Thi1oBnaTFtdhO421VtN5Ui6vmwu2tMjmZaCJLKnPhyNrrjSgIWE067JZ3Zna4Vkz2BDm9Y4ChnT4CxyPkkQsFJX1ZVFml6d5qWu+soXyJF0elBYP1nbc/uxhXVPhmyWdkEqEkoaEYUyeC9B0YwXfYTz6hgAIaq4TeoMPiMFK53kvTXdWUNbvf1eL1j5yfdDTDWMcUfS+MMnE8QDyaIh3OkA3lkFMKthYTlcu81K+tpGyZB1u1GYNFf0kz07vhqgjfLAVbUZbJ7gC+o36GDvkYeWOyEL4946w3OvWULHJSdUMpFStKqFtZcdlBiX/k3OQzMoNHxhlvn2Z4l4/pzjC5ZB5hZmOoM2up2VhG5WovlSu8eJtc19RdelWFbxZVUUnHs/hOTzO+289E1zT+oQjx0SS5aB7JJGGuNOKstlLeVELllhJKm11YPOYrsqv6Q0LOKcT9CSZ7goztnMbXO01oJEZiNIWclAttCuoslLa4KFvopmZzOY4KKwaL7qpNr+fjmgjffEZPTDK0f4KxfZNMdYZJR9OoCqg5FTklU3Wjl6rVZVQuL6F0gRuLx3TVpgBZUUmkckTj1zYy5nzYLXpMRu1ZrQYuhpxXiPuTTJ4OMHZ0mtFDE4y+OYWoFwslPEwSZrcR70InNRtLqd1QQel1tkleF+EDyMSzBIbCDOwcZ3j3BLFAklQkTSZYqFsnmURcLXYaNlRSudyLu9GGpcR8xaeFZDpPz0iY19rH5791zUnlVO5eW0lLjQPjJXZ8yqXzJIMpAn0RRg5P0r93jGB3BDlZ8LXrnVp0Gh2Oegv12ypo2FKFq9p+zhak15rrJnxnEpmK07trmP7XRhl/049iVAr9I9IKuUgee7OF5rtqaL6xBk+jHZPDeMXWhZF4lteOjPN3j50A4DIVzhVlLJrj3764kltXVWC7iLNeziskgikCfWH6943R8/wwgZMRtHYNokFE0glIGYnq20pp3FZNw7pKLO8g8uRq8p4QPgBFVkmG0wy3j3Po551EuuLkcjKqohR6dyhgqjBSd2MZS+5upqTFic6oRaOVLhQZflGiiSw7j/n4H0+eAgr1Ba8XkbTCwx9bwpalZVjP07lHzitkEzmiY3EO/7qTgTfHSY6lQAVRX6hcr9FJOFosrP/CUioWlWC0Ga64je5K8J4Rvvl07x6ia8cgPU+OkI5k0bk0IAjkYzJyQqb6Di9rP7uExnVVl9WUcD7prEzPSJjndg/Nf+u6cO+WOpoq7ejPMS3KOZmJriC7vn+Y/qfGEU0iGqtUcGkG8xjsOloeqmHx3U3UrayY//H3HO9Z4ctnZRKxBFOnQ/S8NsLAG+PEh5IIkoBkLGw+NJKEe6mdpR9opnFjNWbH5WXMMxMKn5cLZd7eCxj0EpJYqMo6SyaeZeToJId/2cF0e5h0OAsaUNKFbk6mcgN1N5Wz8PYGSlvdmBz6y3ZjXg/es8LHbPZ/RiYdyzLdE2Lo0DiDu3yMvzmNzqFFMotIehExI+JotdJyVw2Nm6txVtneEwvqd0tkIsbAvjF6Xhxh8mCQnJRHziqoWZWMP0vFlhLqNpdTu6ocT7MTo+3dRRBda97TwncmuXSeZChFaDjG0N4Jet8aJngyijoT5ycZRcweI846K1VrS2m6qRpXrQPtFdqYXEti/gS9bwzT/+Y4gd4oSX+SbDRfWNcZRGwNZlpvrKP2hjKcNVZMTuMVtwJcC35nhG8WOa8QDySZ6g4ycTSA7/Q0vkN+MuEcggiSScJg0+OutVOxroS6jeWUtXgK68L3uEKY6AowcsjH+F4/k70hEoEk+YSMnFbQ6CWqNpdQuayM0kVOShdeXfvnteB3TvhmURWVRChFYCjM6N5pxk9OMdUVIjWdRk4XCl2ba4yULXRRvrSEipUllDa5MVivvSX/fKiKSjaVI+KLM3pkgpH9U/g6AsQGEyg5BVEvYnTpcNbaKFvoof7WSryNTszOc1cY/V3jd1b4ziQTzzLRE2Bk3yQTx6fx90SIjiZQsgqSUULv0uJtclK9ppzyFR7cjXYsTuN1W5QrskoqliY4GMF33M/EsQCjJ6dIjqVQ8oWIcEuFCVejjdIlbqrXllK+yIPF9d6y071bfi+Eb5ZsMod/IMzA7nGGXh8nOBgjkym0cchM59B5tFSs8VC7toLyJR48DfbC1HWNNiezQhcejuE7Oc3Qfh8j+yZJDKXRl2gRNIWOnxarkdqbyqjfWom30YXJcfG2BL+L/F4J3yxKXiEyEad39zBdzwwR86XIJDPk4oWASVEv4my20rC5koYbqnDW2zBaC71vrwaKrJKOpYn6koy2T9D75ggTRwNvuxL1IkanAUu5kZotZbRuq6OkwXnVzue9wu+l8M2iKirJSJq+/SOc/FUfE7sDqBq1aCNTciq2WjMt99bQsK4Kb6sLvVmHpC10UHq3qIpKJpkjMZ2ib88wp18axLcngJJV0Lm0hUCKiIrZa2TN1xfQsqkWW7n1d3oTcakIgvD7LXxnkonn6Ns/zPGnepg4FCAXlxF0hS6YckpGa9NSucnDuo8voXxRCTrjO7eXqWpB+8aDSY4+3cWJx3pJTqQRtAKiRkDNF7qRuxbaWfqRJhbf2oze8u7TTH+X0Gg0fzjCVxAImXxGZvzUNKde6KfvhRFiA0n0Xh2iRkBJq8gRmbr7ylnx0AJqVpZjvMzoajmvEByOcvy5bjqfGiDSGUdfri3Us57IIupEam8pY/GDjVQvK8VaarlimvZ3BWGm2+UfjPCdSS6dJx3PEugL07d7lL5do0R646AUajhIGhGDVY+j2ULjzVU0bqzGUW69YCRNJp5lrGOKrpeGGHlrinQoTS6bLwRF5MHg1VG9oZTmLTVULCnB7DGiNWrecbb/7zIajeYPS/Odi3wmTyKUIjgUY+jAOL1vjDC1J4hk0SAZRSSdiFarxd1so+HWCho2VVNS75zzHalohpFjE/S/McboniliY3FkQUXJKmQDOfReHQsfrKNhQxUlLU6spWb0poIm/ENEFMVi45w/aOGbRc7JxKYTBAaijB+cZvDIOMHuCNlIDiWvojVrsFSYcFZZ8bQ4WXRfPRaPif59Y4zsnsTfEyQyniAdzJCPy0h6CWebjbIWN/UbK/G2ObGXW9/VOvL3hdkK/gCCoihqNps9bxedPzQSoRS+U358xwKMH59k8miQ5FS6ECunEdDZtFSvKcNo0+M77ScyECOXkpFTMoJGwFFnpXp1KVUbSilb5KakwfUHtZ47H4IgFKv3F19TC1xyv60/FBLhFJPdQUZ2T+A76ifki5KcTqPk3i7bqcoqSk7FUKLFWmqhpMFB9YZSataXYy+3/F5E1lwpztR4swjqjMqbbds0t3XnH8mmckz3huh/a4yxg5OEBuNEh+MAaG0azDYT5atd1G2poHZ1+Tuu2PT7iigW1s3zBY8zhW+WfD6PLMt/nIbnkUnk8A+EGNg7TtcvhshnZdwrbLTeVUvNyrJCmucfgHH4UhGEQrX++b3pzuQs4Zvlj0J4bma9FrGpJK7qC7cR/UPkUoRulvMK3yyqqiLLMoqizOnV9Uf+SHHXKgiIoljoS3KO6fV8XFT4/sgfuVr8f5SgaNds5wFhAAAAAElFTkSuQmCC;" vertex="1" parent="1">
          <mxGeometry x="670" y="146" width="52.67" height="54" as="geometry" />
        </mxCell>
      </root>
    </mxGraphModel>
  </diagram>
</mxfile>
